<svg width="1200" height="1200" viewBox="0 0 1200 1200" fill="none" xmlns="http://www.w3.org/2000/svg">
<path fill-rule="evenodd" clip-rule="evenodd" d="M550.249 22.3315C562.983 17.5562 577.016 17.5562 589.751 22.3315L1009.75 179.831C1031.71 188.064 1046.25 209.052 1046.25 232.5V600C1046.25 782.612 925.402 928.142 817.041 1022.96C761.679 1071.4 706.582 1109.25 665.437 1134.97C644.806 1147.86 627.534 1157.8 615.29 1164.57C609.164 1167.97 604.286 1170.57 600.864 1172.37C599.152 1173.27 597.804 1173.96 596.844 1174.45L595.699 1175.04L595.351 1175.21L595.234 1175.27L595.19 1175.29C595.172 1175.3 595.156 1175.31 570 1125C544.844 1175.31 544.828 1175.3 544.81 1175.29L544.766 1175.27L544.649 1175.21L544.301 1175.04L543.156 1174.45C542.196 1173.96 540.848 1173.27 539.136 1172.37C535.714 1170.57 530.836 1167.97 524.71 1164.57C512.466 1157.8 495.193 1147.86 474.562 1134.97C433.418 1109.25 378.321 1071.4 322.959 1022.96C214.598 928.142 93.75 782.612 93.75 600V232.5C93.75 209.052 108.295 188.064 130.249 179.831L550.249 22.3315ZM570 1125L544.844 1175.31C560.68 1183.23 579.32 1183.23 595.156 1175.31L570 1125ZM570 1060.98C579.728 1055.44 591.886 1048.27 605.812 1039.57C643.418 1016.06 693.321 981.726 742.959 938.293C844.598 849.358 933.75 732.388 933.75 600V271.481L570 135.075L206.25 271.481V600C206.25 732.388 295.402 849.358 397.041 938.293C446.679 981.726 496.582 1016.06 534.187 1039.57C548.114 1048.27 560.272 1055.44 570 1060.98Z" fill="#F27A86"/>
</svg>
