<svg width="1168" height="1200" viewBox="0 0 1168 1200" fill="none" xmlns="http://www.w3.org/2000/svg">
<g clip-path="url(#clip0_268_1029)">
<path d="M778.517 800L584.001 600L389.485 800" stroke="#70CBF2" stroke-width="80" stroke-linecap="round" stroke-linejoin="round"/>
<path d="M584 600V1050" stroke="#70CBF2" stroke-width="80" stroke-linecap="round" stroke-linejoin="round"/>
<path d="M1010.53 968.674C983.856 983.626 950.095 974.149 935.125 947.505C920.155 920.862 929.644 887.141 956.319 872.189C1031.11 830.267 1067.34 739.609 1046.94 657.191C1018.26 541.334 915.403 514.011 808.863 514.011C783.47 514.011 761.33 496.765 755.145 472.166C718.085 324.779 581.179 213.456 426.452 219.317C328.117 223.043 233.28 274.611 174.656 357.129C116.018 439.667 96.5496 549.61 123.381 648.444C136.795 697.859 160.899 743.381 193.769 781.625C213.693 804.807 211.03 839.732 187.82 859.633C164.611 879.534 129.644 876.875 109.719 853.692C65.9957 802.82 34.1512 742.532 16.4693 677.399C-18.8933 547.138 6.50287 402.631 84.3177 293.101C123.23 238.329 173.812 193.201 232.352 161.222C290.892 129.243 426.452 88.8628 615.464 146.73C723.734 195.739 809.721 290.53 849.902 403.371C992.985 403.371 1119.3 488.582 1154.47 630.634C1186.7 760.823 1128.29 902.665 1010.53 968.674Z" fill="#70CBF2"/>
</g>
<defs>
<clipPath id="clip0_268_1029">
<rect width="1167.1" height="1200" fill="white" transform="translate(0.452393)"/>
</clipPath>
</defs>
</svg>
