<svg width="24" height="25" viewBox="0 0 24 25" fill="none" xmlns="http://www.w3.org/2000/svg">
<path d="M12 16.1621L10.75 13.4121L8 12.1621L10.75 10.9121L12 8.16211L13.25 10.9121L16 12.1621L13.25 13.4121L12 16.1621ZM5 22.1621C4.16667 22.1621 3.45833 21.8704 2.875 21.2871C2.29167 20.7038 2 19.9954 2 19.1621C2 18.5121 2.18733 17.9328 2.562 17.4241C2.93733 16.9161 3.41667 16.5538 4 16.3371V7.98711C3.41667 7.77044 2.93733 7.40778 2.562 6.89911C2.18733 6.39111 2 5.81211 2 5.16211C2 4.32878 2.29167 3.62044 2.875 3.03711C3.45833 2.45378 4.16667 2.16211 5 2.16211C5.65 2.16211 6.22933 2.34944 6.738 2.72411C7.246 3.09944 7.60833 3.57878 7.825 4.16211H16.175C16.375 3.57878 16.7293 3.09944 17.238 2.72411C17.746 2.34944 18.3333 2.16211 19 2.16211C19.8333 2.16211 20.5417 2.45378 21.125 3.03711C21.7083 3.62044 22 4.32878 22 5.16211C22 5.82878 21.8127 6.41611 21.438 6.92411C21.0627 7.43278 20.5833 7.78711 20 7.98711V16.3371C20.5833 16.5538 21.0627 16.9161 21.438 17.4241C21.8127 17.9328 22 18.5121 22 19.1621C22 19.9954 21.7083 20.7038 21.125 21.2871C20.5417 21.8704 19.8333 22.1621 19 22.1621C18.35 22.1621 17.771 21.9748 17.263 21.6001C16.7543 21.2248 16.3917 20.7454 16.175 20.1621H7.825C7.60833 20.7454 7.246 21.2248 6.738 21.6001C6.22933 21.9748 5.65 22.1621 5 22.1621ZM7.825 18.1621H16.175C16.325 17.7288 16.5583 17.3538 16.875 17.0371C17.1917 16.7204 17.5667 16.4871 18 16.3371V7.98711C17.5667 7.83711 17.1917 7.60378 16.875 7.28711C16.5583 6.97044 16.325 6.59544 16.175 6.16211H7.825C7.675 6.59544 7.44167 6.97044 7.125 7.28711C6.80833 7.60378 6.43333 7.83711 6 7.98711V16.3371C6.43333 16.4871 6.80833 16.7204 7.125 17.0371C7.44167 17.3538 7.675 17.7288 7.825 18.1621Z" fill="black"/>
</svg>
