<svg width="24" height="25" viewBox="0 0 24 25" fill="none" xmlns="http://www.w3.org/2000/svg">
<path d="M10.021 1.68359C10.021 1.40745 10.2449 1.18359 10.521 1.18359H15.521C15.7972 1.18359 16.021 1.40745 16.021 1.68359V2.68359C16.021 2.95974 15.7972 3.18359 15.521 3.18359H10.521C10.2449 3.18359 10.021 2.95974 10.021 2.68359V1.68359ZM20.3105 7.92883C20.1616 7.72222 20.1762 7.43637 20.3563 7.25627L21.1205 6.49215C21.3157 6.29689 21.3157 5.9803 21.1205 5.78504L20.4136 5.07815C20.2183 4.88288 19.9017 4.88288 19.7065 5.07815L18.9437 5.84089C18.7635 6.02115 18.4773 6.03562 18.2706 5.8863C16.767 4.79977 14.9605 4.20282 13.0982 4.18368C11.2754 4.16496 9.4946 4.7008 7.9893 5.71323C7.7399 5.88097 7.71628 6.23249 7.92731 6.44649L8.6513 7.18068C8.82349 7.3553 9.09594 7.37754 9.30409 7.24787C10.4138 6.55654 11.697 6.18647 13.01 6.18359C13.0157 6.18416 13.02 6.18894 13.02 6.19464V12.9576C13.02 13.0902 13.0726 13.2173 13.1663 13.311L17.6206 17.7699C17.8154 17.9648 17.8168 18.2822 17.609 18.4632C16.6937 19.2603 15.5844 19.8078 14.3888 20.0478C13.0299 20.3206 11.6205 20.1838 10.3393 19.6549C9.05817 19.126 7.96283 18.2286 7.19211 17.0766C6.5143 16.0634 6.11439 14.8934 6.02784 13.6832C6.00815 13.4077 6.23386 13.1836 6.51 13.1836H7.8029C8.24836 13.1836 8.47144 12.645 8.15646 12.33L5.36356 9.53715C5.1683 9.34188 4.85172 9.34188 4.65646 9.53715L1.86356 12.33C1.54858 12.645 1.77166 13.1836 2.21712 13.1836H3.50954C3.78586 13.1836 4.00835 13.4079 4.02345 13.6838C4.09268 14.9493 4.42854 16.1878 5.01117 17.3175C5.67038 18.5957 6.62631 19.6973 7.79887 20.53C8.97143 21.3627 10.3265 21.9023 11.7505 22.1035C13.1745 22.3048 14.626 22.1619 15.9834 21.6868C17.3408 21.2116 18.5646 20.4181 19.5522 19.3727C20.5398 18.3273 21.2626 17.0604 21.6598 15.6782C22.0571 14.296 22.1173 12.8387 21.8355 11.4284C21.5829 10.1646 21.0622 8.97148 20.3105 7.92883Z" fill="black"/>
</svg>
