<svg width="24" height="25" viewBox="0 0 24 25" fill="none" xmlns="http://www.w3.org/2000/svg">
<path d="M7.5 22.6621H3C2.60218 22.6621 2.22064 22.5041 1.93934 22.2228C1.65804 21.9415 1.5 21.5599 1.5 21.1621V12.1621C1.5 11.7643 1.65804 11.3828 1.93934 11.1014C2.22064 10.8201 2.60218 10.6621 3 10.6621H7.5C7.89782 10.6621 8.27936 10.8201 8.56066 11.1014C8.84196 11.3828 9 11.7643 9 12.1621V21.1621C9 21.5599 8.84196 21.9415 8.56066 22.2228C8.27936 22.5041 7.89782 22.6621 7.5 22.6621ZM3 12.1621V21.1621H7.5V12.1621H3Z" fill="black"/>
<path d="M21 3.16211H4.5C4.10218 3.16211 3.72064 3.32014 3.43934 3.60145C3.15804 3.88275 3 4.26428 3 4.66211V9.16211H4.5V4.66211H21V15.1621H10.5V16.6621H12V19.6621H10.5V21.1621H17.25V19.6621H13.5V16.6621H21C21.3978 16.6621 21.7794 16.5041 22.0607 16.2228C22.342 15.9415 22.5 15.5599 22.5 15.1621V4.66211C22.5 4.26428 22.342 3.88275 22.0607 3.60145C21.7794 3.32014 21.3978 3.16211 21 3.16211Z" fill="black"/>
</svg>
