<svg width="26" height="27" viewBox="0 0 26 27" fill="none" xmlns="http://www.w3.org/2000/svg">
<path d="M0.8125 3.41138C0.8125 1.58325 2.23438 0.161377 4.0625 0.161377H13.2031V1.9895H4.0625C3.25 1.9895 2.64062 2.59888 2.64062 3.41138V12.3489H0.8125V3.41138Z" fill="black"/>
<path d="M21.9375 0.161377C23.7656 0.161377 25.1875 1.58325 25.1875 3.41138V12.3489H23.3594V3.41138C23.3594 2.59888 22.75 1.9895 21.9375 1.9895H13.2031V0.161377H21.9375Z" fill="black"/>
<path d="M13 26.1614C6.29688 26.1614 0.8125 20.8801 0.8125 14.177V12.3489H2.64062V14.177C2.64062 19.8645 7.3125 24.3333 13 24.3333V26.1614Z" fill="black"/>
<path d="M25.1875 14.177C25.1875 20.8801 19.7031 26.1614 13 26.1614V24.3333C18.6875 24.3333 23.3594 19.8645 23.3594 14.177V12.3489H25.1875V14.177Z" fill="black"/>
<path fill-rule="evenodd" clip-rule="evenodd" d="M13.2031 7.27075H10.1562C8.73437 7.27075 8.125 7.88013 8.125 9.302V15.3958C8.125 16.8176 8.73437 17.427 10.1562 17.427H16.25C17.6211 17.427 18.2812 16.8176 18.2812 15.3958V12.3489H13.2031V7.27075Z" fill="black"/>
</svg>
