<svg width="24" height="24" viewBox="-4 -9 24 24" fill="none" xmlns="http://www.w3.org/2000/svg">
<path d="M16.4471 0.936981C16.805 1.17098 16.9162 1.6334 16.7452 2.02539C16.3248 2.98893 15.772 3.74858 15.0866 4.30435C14.2525 4.98068 13.2713 5.31884 12.1429 5.31884C11.505 5.31884 10.8918 5.21014 10.303 4.99275C9.71428 4.77536 8.92929 4.35266 7.94805 3.72464C7.16306 3.24155 6.54978 2.91546 6.10822 2.74638C5.6912 2.57729 5.2619 2.49275 4.82035 2.49275C4.08442 2.49275 3.45887 2.72222 2.94372 3.18116C2.59515 3.49006 2.24039 3.96965 1.87944 4.61994C1.60847 5.10811 1.02028 5.36852 0.552942 5.06302C0.194973 4.82902 0.0838331 4.3666 0.254838 3.97461C0.675179 3.01108 1.22804 2.25142 1.91342 1.69565C2.74747 1.01932 3.72872 0.68116 4.85714 0.68116C5.49495 0.68116 6.10822 0.789856 6.69697 1.00725C7.28571 1.22464 8.07071 1.64734 9.05195 2.27536C9.83694 2.75845 10.438 3.08454 10.855 3.25362C11.2965 3.42271 11.7381 3.50725 12.1797 3.50725C12.9156 3.50725 13.5289 3.28986 14.0195 2.85507C14.3862 2.52841 14.7528 2.03655 15.1195 1.37948C15.3916 0.891924 15.9797 0.631486 16.4471 0.936981Z" fill="black"/>
</svg>
