<svg width="24" height="23" viewBox="0 0 24 23" fill="none" xmlns="http://www.w3.org/2000/svg">
<g clip-path="url(#clip0_540_4406)">
<path d="M11.2069 9.41372C10.2122 11.0555 9.25928 12.6454 8.28643 14.2233C8.03659 14.6285 7.91293 14.9585 8.11253 15.4734C8.66359 16.8959 7.88622 18.2803 6.42522 18.656C5.04737 19.0105 3.70497 18.1214 3.43159 16.673C3.18934 15.391 4.20259 14.1342 5.64222 13.9338C5.76278 13.9169 5.88597 13.915 6.08865 13.9001L8.27847 10.2946C6.90118 8.94997 6.08143 7.37821 6.26284 5.43043C6.39109 4.05364 6.94253 2.86379 7.95034 1.88861C9.88065 0.0211004 12.8255 -0.281285 15.0984 1.15212C17.2813 2.52901 18.281 5.21098 17.4288 7.50644C16.7863 7.33541 16.1392 7.16291 15.4279 6.97347C15.6955 5.69719 15.4976 4.55117 14.6209 3.56936C14.0417 2.92114 13.2985 2.58138 12.4534 2.4562C10.7592 2.2049 9.09578 3.2736 8.60218 4.90639C8.04193 6.75936 8.8899 8.27312 11.2069 9.41381V9.41372Z" fill="black"/>
<path d="M14.0476 7.47251C14.7484 8.68638 15.46 9.91856 16.1652 11.1394C19.7295 10.0566 22.417 11.994 23.3811 14.0682C24.5457 16.5737 23.7495 19.5412 21.4625 21.087C19.115 22.6738 16.1462 22.4027 14.0664 20.3643C14.5964 19.9287 15.1291 19.491 15.6983 19.0235C17.7525 20.3299 19.5493 20.2684 20.8831 18.7214C22.0206 17.4017 21.9959 15.4339 20.8255 14.1419C19.4747 12.651 17.6654 12.6055 15.4784 14.0367C14.5712 12.4564 13.6483 10.8887 12.7697 9.29695C12.4735 8.76048 12.1465 8.44916 11.4788 8.33567C10.3638 8.14586 9.64401 7.20575 9.60079 6.15251C9.55832 5.11087 10.1834 4.16929 11.1602 3.80247C12.1279 3.43896 13.2635 3.73233 13.9144 4.54016C14.4464 5.20016 14.6154 5.94301 14.3354 6.757C14.2576 6.984 14.1569 7.20363 14.0476 7.4726V7.47251Z" fill="black"/>
<path d="M15.7226 17.3941H11.4316C11.0203 19.055 10.132 20.396 8.60131 21.2487C7.41134 21.9115 6.12884 22.1362 4.76384 21.9198C2.25059 21.5219 0.195587 19.3004 0.01465 16.799C-0.1901 13.9654 1.79356 11.4466 4.43759 10.8809C4.62012 11.5317 4.80462 12.1889 4.98715 12.8382C2.56127 14.0535 1.72165 15.5846 2.40059 17.4993C2.99824 19.1842 4.69596 20.1077 6.53937 19.7505C8.42187 19.3858 9.37099 17.8497 9.25512 15.3844C11.0397 15.3844 12.8259 15.3663 14.6107 15.3933C15.3076 15.4041 15.8456 15.3331 16.3706 14.7298C17.235 13.7372 18.8261 13.8267 19.757 14.7643C20.7084 15.7224 20.6628 17.2641 19.656 18.1818C18.6847 19.0673 17.1501 19.02 16.2413 18.0658C16.0545 17.8692 15.9073 17.6357 15.7226 17.3941Z" fill="black"/>
</g>
<defs>
<clipPath id="clip0_540_4406">
<rect width="24" height="22" fill="white" transform="translate(0 0.162109)"/>
</clipPath>
</defs>
</svg>
