<svg width="480" height="482" viewBox="0 0 480 482" fill="none" xmlns="http://www.w3.org/2000/svg">
<g clip-path="url(#clip0)">
<path d="M230.14 410.121C189.012 410.121 149.157 395.974 117.364 370.091C85.5724 344.208 63.8106 308.191 55.7871 268.175C47.7635 228.16 53.9747 186.622 73.3622 150.64C92.7498 114.658 124.114 86.4584 162.111 70.8452C200.108 55.232 242.387 53.1716 281.744 65.015C321.101 76.8585 355.1 101.873 377.95 135.797C400.799 169.72 411.084 210.454 407.053 251.057C403.022 291.66 384.923 329.62 355.842 358.469C339.373 374.896 319.783 387.92 298.206 396.786C276.629 405.652 253.494 410.184 230.14 410.121ZM230.14 58.7766C132.871 58.7766 53.7375 137.279 53.7375 233.771C53.7375 330.263 132.871 408.765 230.14 408.765C327.408 408.765 406.542 330.263 406.542 233.771C406.542 137.279 327.408 58.7766 230.14 58.7766Z" fill="#CCCCCC"/>
<path d="M296.146 436.567V258.904H162.853V436.567H296.146Z" fill="#2F2E41"/>
<path d="M319.046 253.48H139.954V324.003H319.046V253.48Z" fill="#3F3D56"/>
<path d="M319.046 332.14H139.954V402.662H319.046V332.14Z" fill="#3F3D56"/>
<path d="M319.046 410.799H139.954V481.322H319.046V410.799Z" fill="#3F3D56"/>
<path d="M319.046 283.381H139.954V294.231H319.046V283.381Z" fill="#1269ED"/>
<path d="M319.046 362.042H139.954V372.891H319.046V362.042Z" fill="#1269ED"/>
<path d="M319.046 440.701H139.954V451.551H319.046V440.701Z" fill="#1269ED"/>
<path d="M284.184 267.72C286.449 267.72 288.286 265.898 288.286 263.651C288.286 261.404 286.449 259.583 284.184 259.583C281.919 259.583 280.083 261.404 280.083 263.651C280.083 265.898 281.919 267.72 284.184 267.72Z" fill="#57C0B3"/>
<path d="M298.54 267.72C300.805 267.72 302.641 265.898 302.641 263.651C302.641 261.404 300.805 259.583 298.54 259.583C296.275 259.583 294.438 261.404 294.438 263.651C294.438 265.898 296.275 267.72 298.54 267.72Z" fill="#F6C28B"/>
<path d="M312.894 267.72C315.159 267.72 316.996 265.898 316.996 263.651C316.996 261.404 315.159 259.583 312.894 259.583C310.629 259.583 308.793 261.404 308.793 263.651C308.793 265.898 310.629 267.72 312.894 267.72Z" fill="#F27A86"/>
<path d="M284.184 345.023C286.449 345.023 288.286 343.202 288.286 340.955C288.286 338.708 286.449 336.886 284.184 336.886C281.919 336.886 280.083 338.708 280.083 340.955C280.083 343.202 281.919 345.023 284.184 345.023Z" fill="#57C0B3"/>
<path d="M298.54 345.023C300.805 345.023 302.641 343.202 302.641 340.955C302.641 338.708 300.805 336.886 298.54 336.886C296.275 336.886 294.438 338.708 294.438 340.955C294.438 343.202 296.275 345.023 298.54 345.023Z" fill="#F6C28B"/>
<path d="M312.894 345.023C315.159 345.023 316.996 343.202 316.996 340.955C316.996 338.708 315.159 336.886 312.894 336.886C310.629 336.886 308.793 338.708 308.793 340.955C308.793 343.202 310.629 345.023 312.894 345.023Z" fill="#F27A86"/>
<path d="M284.184 422.327C286.449 422.327 288.286 420.506 288.286 418.259C288.286 416.012 286.449 414.19 284.184 414.19C281.919 414.19 280.083 416.012 280.083 418.259C280.083 420.506 281.919 422.327 284.184 422.327Z" fill="#57C0B3"/>
<path d="M298.54 422.327C300.805 422.327 302.641 420.506 302.641 418.259C302.641 416.012 300.805 414.19 298.54 414.19C296.275 414.19 294.438 416.012 294.438 418.259C294.438 420.506 296.275 422.327 298.54 422.327Z" fill="#F6C28B"/>
<path d="M312.894 422.327C315.159 422.327 316.996 420.506 316.996 418.259C316.996 416.012 315.159 414.19 312.894 414.19C310.629 414.19 308.793 416.012 308.793 418.259C308.793 420.506 310.629 422.327 312.894 422.327Z" fill="#F27A86"/>
<path d="M533 480.644H-74V482H533V480.644Z" fill="#3F3D56"/>
<path d="M91.3386 183.81V309.931C91.3381 312.57 90.2812 315.1 88.4005 316.966C86.5197 318.831 83.969 319.88 81.3092 319.88H31.9027C29.2422 319.881 26.6906 318.833 24.809 316.967C22.9274 315.101 21.8699 312.57 21.8691 309.931V183.81C21.8699 181.17 22.9274 178.64 24.809 176.774C26.6906 174.908 29.2423 173.86 31.9027 173.86H37.896C37.6018 174.578 37.4898 175.357 37.5699 176.128C37.65 176.899 37.9198 177.638 38.3555 178.282C38.7913 178.925 39.3796 179.452 40.0689 179.817C40.7582 180.182 41.5272 180.373 42.3085 180.374H70.4768C71.2581 180.373 72.0272 180.182 72.7164 179.817C73.4057 179.452 73.994 178.925 74.4298 178.282C74.8655 177.638 75.1353 176.899 75.2154 176.128C75.2956 175.357 75.1836 174.578 74.8893 173.86H81.3092C83.969 173.861 86.5197 174.909 88.4005 176.775C90.2812 178.641 91.338 181.171 91.3386 183.81Z" fill="#DCE0E7"/>
<path d="M88.0475 197.945H25.1602V284.742H88.0475V197.945Z" fill="white"/>
<path d="M68.1158 257.629H43.0156V259.052H68.1158V257.629Z" fill="#DCE0E7"/>
<path d="M81.8281 262.854H42.9902V264.277H81.8281V262.854Z" fill="#1269ED"/>
<path d="M73.469 267.776H42.9902V269.199H73.469V267.776Z" fill="#DCE0E7"/>
<path d="M60.9189 272.698H42.9902V274.121H60.9189V272.698Z" fill="#DCE0E7"/>
<path d="M69.8832 277.62H42.9902V279.043H69.8832V277.62Z" fill="#DCE0E7"/>
<path d="M34.5014 257.22H31.6328V260.066H34.5014V257.22Z" fill="#DCE0E7"/>
<path d="M34.5014 262.143H31.6328V264.988H34.5014V262.143Z" fill="#1269ED"/>
<path d="M34.5014 267.064H31.6328V269.91H34.5014V267.064Z" fill="#DCE0E7"/>
<path d="M34.5014 271.987H31.6328V274.832H34.5014V271.987Z" fill="#DCE0E7"/>
<path d="M34.5014 276.909H31.6328V279.754H34.5014V276.909Z" fill="#DCE0E7"/>
<path d="M69.3749 208.794H44.085V233.883H69.3749V208.794Z" fill="#DCE0E7"/>
<path d="M313.574 0.0947266H145.498V106.879H313.574V0.0947266Z" fill="#DCE0E7"/>
<path d="M297.519 29.9688H158.168V82.2065H297.519V29.9688Z" fill="white"/>
<path d="M217.002 39.019H183.558V40.9149H217.002V39.019Z" fill="#DCE0E7"/>
<path d="M235.274 45.9805H183.524V47.8763H235.274V45.9805Z" fill="#1269ED"/>
<path d="M224.135 52.5386H183.524V54.4344H224.135V52.5386Z" fill="#DCE0E7"/>
<path d="M207.413 59.0972H183.524V60.993H207.413V59.0972Z" fill="#DCE0E7"/>
<path d="M219.358 65.6553H183.524V67.5511H219.358V65.6553Z" fill="#DCE0E7"/>
<path d="M172.213 38.4741H168.391V42.2658H172.213V38.4741Z" fill="#DCE0E7"/>
<path d="M172.213 45.0322H168.391V48.8239H172.213V45.0322Z" fill="#1269ED"/>
<path d="M172.213 51.5908H168.391V55.3825H172.213V51.5908Z" fill="#DCE0E7"/>
<path d="M172.213 58.1489H168.391V61.9406H172.213V58.1489Z" fill="#DCE0E7"/>
<path d="M172.213 64.7075H168.391V68.4992H172.213V64.7075Z" fill="#DCE0E7"/>
<path d="M290.681 36.5142H256.463V70.4591H290.681V36.5142Z" fill="#DCE0E7"/>
<path d="M313.502 0H145.426V7.08349H313.502V0Z" fill="#1269ED"/>
<path d="M150.732 5.04348C151.524 5.04348 152.165 4.40688 152.165 3.62159C152.165 2.83631 151.524 2.19971 150.732 2.19971C149.941 2.19971 149.299 2.83631 149.299 3.62159C149.299 4.40688 149.941 5.04348 150.732 5.04348Z" fill="white"/>
<path d="M155.756 5.04348C156.547 5.04348 157.189 4.40688 157.189 3.62159C157.189 2.83631 156.547 2.19971 155.756 2.19971C154.964 2.19971 154.322 2.83631 154.322 3.62159C154.322 4.40688 154.964 5.04348 155.756 5.04348Z" fill="white"/>
<path d="M160.779 5.04348C161.571 5.04348 162.212 4.40688 162.212 3.62159C162.212 2.83631 161.571 2.19971 160.779 2.19971C159.987 2.19971 159.346 2.83631 159.346 3.62159C159.346 4.40688 159.987 5.04348 160.779 5.04348Z" fill="white"/>
<path d="M426.124 199.91H385.11V220.931H426.124V199.91Z" fill="#DCE0E7"/>
<path d="M426.124 275.179H385.11V296.2H426.124V275.179Z" fill="#DCE0E7"/>
<path d="M405.617 281.96C424.493 281.96 439.795 266.78 439.795 248.055C439.795 229.33 424.493 214.15 405.617 214.15C386.741 214.15 371.439 229.33 371.439 248.055C371.439 266.78 386.741 281.96 405.617 281.96Z" fill="#DCE0E7"/>
<path d="M405.618 274.501C420.341 274.501 432.277 262.661 432.277 248.055C432.277 233.449 420.341 221.609 405.618 221.609C390.895 221.609 378.959 233.449 378.959 248.055C378.959 262.661 390.895 274.501 405.618 274.501Z" fill="white"/>
<path d="M417.563 240.809H396.888V241.981H417.563V240.809Z" fill="#DCE0E7"/>
<path d="M428.859 245.112H396.867V246.284H428.859V245.112Z" fill="#1269ED"/>
<path d="M421.973 249.167H396.867V250.339H421.973V249.167Z" fill="#DCE0E7"/>
<path d="M411.635 253.221H396.867V254.393H411.635V253.221Z" fill="#DCE0E7"/>
<path d="M419.02 257.275H396.867V258.447H419.02V257.275Z" fill="#DCE0E7"/>
<path d="M389.874 240.472H387.511V242.816H389.874V240.472Z" fill="#DCE0E7"/>
<path d="M389.874 244.526H387.511V246.87H389.874V244.526Z" fill="#1269ED"/>
<path d="M389.874 248.581H387.511V250.925H389.874V248.581Z" fill="#DCE0E7"/>
<path d="M389.874 252.635H387.511V254.979H389.874V252.635Z" fill="#DCE0E7"/>
<path d="M389.874 256.689H387.511V259.034H389.874V256.689Z" fill="#DCE0E7"/>
<g opacity="0.5">
<path opacity="0.5" d="M246.09 162.141L246.266 161.357L246.019 162.123C239.59 160.392 232.962 159.502 226.302 159.473C178.318 159.191 156 201.451 156 201.451L201.473 225.359C201.473 225.359 207.051 208.123 226.86 208.685C228.222 208.722 229.582 208.84 230.93 209.039L224.903 227.746C224.646 228.111 224.464 228.524 224.37 228.96C224.276 229.397 224.27 229.848 224.354 230.286C224.438 230.725 224.609 231.142 224.858 231.514C225.106 231.885 225.427 232.203 225.801 232.448C226.176 232.694 226.596 232.862 227.036 232.943C227.477 233.023 227.929 233.015 228.367 232.918C228.804 232.822 229.217 232.638 229.582 232.379C229.947 232.12 230.256 231.791 230.491 231.411V231.402C230.804 230.895 230.974 230.314 230.984 229.719C230.984 229.619 230.984 229.518 230.974 229.419L235.33 210.02C248.309 213.998 252.242 225.357 252.242 225.357L298 202.562C298 202.562 280.815 171.538 246.09 162.141Z" fill="url(#paint0_linear)"/>
</g>
<path d="M226.311 159.942C178.938 159.667 156.904 201.384 156.904 201.384L201.799 224.985C201.799 224.985 207.307 207.968 226.863 208.517C228.24 208.554 229.614 208.675 230.976 208.88L245.843 162.577C239.475 160.856 232.909 159.97 226.311 159.942Z" fill="#1269ED"/>
<path d="M245.843 162.576L230.977 208.884C247.2 211.34 251.925 224.984 251.925 224.984L297.095 202.482C297.095 202.482 280.123 171.853 245.843 162.576Z" fill="#E0E0E0"/>
<path d="M230.929 228.997L246.021 161.801L224.929 227.344C224.671 227.705 224.488 228.114 224.392 228.546C224.296 228.978 224.288 229.426 224.369 229.861C224.451 230.297 224.619 230.711 224.865 231.08C225.111 231.449 225.429 231.765 225.801 232.009C226.172 232.252 226.589 232.419 227.026 232.498C227.463 232.577 227.912 232.568 228.346 232.47C228.78 232.373 229.189 232.189 229.55 231.93C229.91 231.671 230.215 231.342 230.445 230.963V230.954C230.754 230.454 230.922 229.881 230.932 229.294C230.941 229.191 230.936 229.094 230.929 228.997Z" fill="#535461"/>
<g opacity="0.7">
<path opacity="0.7" d="M236.384 159.862L235.989 159.788L236.768 156.934C237.995 147.771 233.36 146.841 231.622 146.81C231.422 146.737 231.218 146.675 231.012 146.625V145.543C232.105 145.275 233.096 144.692 233.86 143.868C234.625 143.044 235.131 142.015 235.315 140.908H235.33C235.606 140.908 235.831 140.489 235.831 139.972C235.842 139.698 235.765 139.428 235.612 139.2C235.632 139 235.642 138.799 235.642 138.599C235.643 137.79 235.478 136.99 235.159 136.246C234.839 135.503 234.371 134.832 233.784 134.274C233.703 133.875 233.56 133.49 233.359 133.136C232.932 132.385 232.222 131.607 232.511 130.794L230.638 130.986L230.62 129.756C230.035 129.861 229.789 130.535 229.442 131.016C228.607 132.173 226.932 132.334 225.824 133.235C225.448 133.535 224.6 134.473 224.762 135.084C224.018 136.104 223.617 137.333 223.619 138.594C223.619 138.795 223.629 138.995 223.649 139.195C223.496 139.423 223.42 139.694 223.431 139.967C223.431 140.484 223.655 140.903 223.931 140.903H223.946C224.13 142.011 224.636 143.04 225.401 143.864C226.166 144.688 227.156 145.27 228.25 145.539V146.62C228.043 146.671 227.839 146.732 227.639 146.805C225.901 146.837 221.266 147.761 222.493 156.93L223.272 159.784L223.087 159.818C222.811 159.87 222.548 159.974 222.313 160.127C222.078 160.28 221.876 160.477 221.717 160.707C221.558 160.938 221.447 161.197 221.389 161.471C221.331 161.744 221.328 162.027 221.379 162.301L224.459 178.703C224.49 178.871 224.587 179.02 224.729 179.116C224.87 179.213 225.044 179.25 225.212 179.219L225.754 179.118V179.436C225.453 179.584 225.2 179.813 225.024 180.096C224.847 180.38 224.753 180.707 224.753 181.041V181.243H228.383V181.041C228.382 180.731 228.302 180.426 228.148 180.157C227.995 179.888 227.774 179.663 227.507 179.504V178.79L228.001 178.699C228.17 178.667 228.319 178.571 228.416 178.43C228.513 178.289 228.55 178.116 228.518 177.948L225.633 162.539H233.633L230.751 177.949C230.719 178.117 230.756 178.291 230.853 178.431C230.95 178.572 231.099 178.669 231.268 178.7L231.762 178.792V179.505C231.495 179.664 231.274 179.889 231.121 180.159C230.967 180.428 230.887 180.732 230.886 181.042V181.245H234.516V181.042C234.516 180.708 234.422 180.381 234.245 180.098C234.069 179.814 233.816 179.586 233.515 179.438V179.119L234.057 179.22C234.225 179.251 234.399 179.214 234.54 179.118C234.682 179.021 234.779 178.873 234.81 178.705L237.922 162.097C237.968 161.85 237.965 161.596 237.913 161.349C237.861 161.103 237.76 160.869 237.618 160.662C237.475 160.454 237.292 160.277 237.081 160.14C236.869 160.002 236.632 159.908 236.384 159.862Z" fill="url(#paint1_linear)"/>
</g>
<path d="M227.588 177.03H225.902V179.31H227.588V177.03Z" fill="#FDB797"/>
<path d="M233.368 177.03H231.683V179.31H233.368V177.03Z" fill="#FDB797"/>
<path d="M235.175 158.313H224.097V162.273H235.175V158.313Z" fill="#4D8AF0"/>
<g opacity="0.05">
<path opacity="0.05" d="M235.175 158.313H224.097V162.273H235.175V158.313Z" fill="black"/>
</g>
<path opacity="0.1" d="M224.097 159.033C224.097 159.033 228.23 159.993 229.635 159.993C231.04 159.993 235.173 159.033 235.173 159.033V158.432H224.097V159.033Z" fill="black"/>
<path d="M235.173 158.913C235.173 158.913 231.04 159.873 229.635 159.873C228.23 159.873 224.097 158.913 224.097 158.913V152.314C224.097 150.85 224.68 149.446 225.719 148.411C226.757 147.376 228.166 146.795 229.635 146.795C231.104 146.795 232.513 147.376 233.551 148.411C234.59 149.446 235.173 150.85 235.173 152.314V158.913Z" fill="#389589"/>
<path d="M228.312 144.034H230.96V147.209C230.96 147.512 230.839 147.803 230.624 148.018C230.409 148.232 230.117 148.352 229.813 148.352H229.46C229.156 148.352 228.864 148.232 228.649 148.018C228.434 147.803 228.313 147.512 228.313 147.209V144.034H228.312Z" fill="#FDB797"/>
<path d="M227.905 177.85L225.53 178.292C225.328 178.328 225.119 178.284 224.95 178.167C224.78 178.051 224.664 177.873 224.626 177.671L221.795 162.554C221.733 162.223 221.737 161.883 221.806 161.554C221.876 161.224 222.01 160.912 222.201 160.634C222.392 160.356 222.636 160.119 222.919 159.935C223.202 159.751 223.519 159.625 223.851 159.563L224.463 159.449C224.665 159.412 224.874 159.457 225.044 159.573C225.213 159.69 225.329 159.868 225.367 160.069L228.533 176.943C228.552 177.044 228.551 177.147 228.529 177.247C228.508 177.348 228.467 177.443 228.408 177.527C228.35 177.611 228.275 177.683 228.189 177.739C228.102 177.794 228.006 177.832 227.905 177.85Z" fill="#F6C28B"/>
<path d="M231.359 177.85L233.734 178.292C233.936 178.328 234.145 178.283 234.314 178.167C234.484 178.051 234.6 177.873 234.638 177.671L237.517 162.301C237.63 161.7 237.498 161.079 237.151 160.574C236.803 160.07 236.27 159.723 235.666 159.611L234.801 159.45C234.598 159.414 234.39 159.459 234.22 159.575C234.051 159.691 233.935 159.869 233.896 160.071L230.731 176.944C230.712 177.045 230.714 177.148 230.735 177.248C230.757 177.348 230.798 177.443 230.856 177.528C230.915 177.612 230.989 177.684 231.075 177.739C231.162 177.794 231.258 177.832 231.359 177.85Z" fill="#F6C28B"/>
<path opacity="0.1" d="M228.312 146.035C229.181 146.248 230.09 146.248 230.96 146.035V144.154H228.312V146.035Z" fill="black"/>
<path d="M229.635 144.994C232.827 144.994 235.414 142.416 235.414 139.235C235.414 136.054 232.827 133.476 229.635 133.476C226.443 133.476 223.855 136.054 223.855 139.235C223.855 142.416 226.443 144.994 229.635 144.994Z" fill="#333333"/>
<path d="M229.635 146.074C232.694 146.074 235.173 143.603 235.173 140.555C235.173 137.507 232.694 135.036 229.635 135.036C226.576 135.036 224.097 137.507 224.097 140.555C224.097 143.603 226.576 146.074 229.635 146.074Z" fill="#FDB797"/>
<path d="M225.978 134.078C227.043 133.211 228.655 133.056 229.457 131.943C229.79 131.481 230.027 130.83 230.589 130.729L230.605 131.913L232.414 131.728C232.135 132.51 232.818 133.261 233.23 133.982C233.532 134.514 233.697 135.114 233.711 135.726C233.085 136.1 232.309 135.691 231.612 135.473C230.916 135.255 230.215 135.239 229.502 135.219C229.138 135.194 228.772 135.214 228.414 135.279C228.103 135.363 227.8 135.473 227.509 135.608C227.03 135.808 225.515 136.564 225.07 136.077C224.57 135.526 225.566 134.413 225.978 134.078Z" fill="#333333"/>
<path opacity="0.1" d="M226.279 137.786C226.582 137.952 226.915 138.054 227.259 138.087C228.678 138.28 230.123 138.119 231.463 137.617C231.683 138.171 232.217 138.553 232.788 138.733C233.36 138.913 233.966 138.922 234.564 138.931C234.696 138.946 234.829 138.921 234.946 138.859C235.212 138.68 235.083 138.269 234.927 137.989L234.156 136.595C233.928 136.184 233.693 135.763 233.34 135.452C232.897 135.062 232.309 134.878 231.73 134.763C230.36 134.491 228.946 134.538 227.597 134.899C226.154 135.279 224.302 136.594 226.279 137.786Z" fill="black"/>
<path d="M226.279 137.666C226.582 137.832 226.915 137.934 227.259 137.967C228.678 138.16 230.123 137.999 231.463 137.497C231.683 138.051 232.217 138.432 232.788 138.613C233.36 138.793 233.966 138.802 234.564 138.811C234.696 138.826 234.829 138.801 234.946 138.739C235.212 138.56 235.083 138.149 234.927 137.869L234.156 136.475C233.928 136.064 233.693 135.643 233.34 135.332C232.897 134.941 232.309 134.758 231.73 134.642C230.36 134.371 228.946 134.417 227.597 134.779C226.154 135.156 224.302 136.475 226.279 137.666Z" fill="#333333"/>
<path d="M235.114 141.455C235.381 141.455 235.597 141.052 235.597 140.555C235.597 140.058 235.381 139.655 235.114 139.655C234.848 139.655 234.632 140.058 234.632 140.555C234.632 141.052 234.848 141.455 235.114 141.455Z" fill="#FDB797"/>
<path d="M224.157 141.455C224.424 141.455 224.64 141.052 224.64 140.555C224.64 140.058 224.424 139.655 224.157 139.655C223.891 139.655 223.675 140.058 223.675 140.555C223.675 141.052 223.891 141.455 224.157 141.455Z" fill="#FDB797"/>
<path d="M228.333 147.161C228.333 147.161 221.326 146.074 222.772 156.873L223.614 159.969L226.026 159.873C226.026 159.873 224.461 156.267 225.423 153.873C226.385 151.479 228.333 147.161 228.333 147.161Z" fill="#389589"/>
<path d="M230.938 147.161C230.938 147.161 237.944 146.074 236.498 156.873L235.656 159.969L233.244 159.873C233.244 159.873 234.809 156.267 233.847 153.873C232.885 151.479 230.938 147.161 230.938 147.161Z" fill="#389589"/>
<path d="M224.939 161.672C225.671 161.672 226.264 161.081 226.264 160.352C226.264 159.622 225.671 159.031 224.939 159.031C224.207 159.031 223.614 159.622 223.614 160.352C223.614 161.081 224.207 161.672 224.939 161.672Z" fill="#FDB797"/>
<path d="M234.572 161.672C235.304 161.672 235.897 161.081 235.897 160.352C235.897 159.622 235.304 159.031 234.572 159.031C233.84 159.031 233.247 159.622 233.247 160.352C233.247 161.081 233.84 161.672 234.572 161.672Z" fill="#FDB797"/>
<path d="M226.453 178.351H226.919C227.319 178.351 227.702 178.509 227.985 178.791C228.267 179.072 228.426 179.454 228.426 179.853V180.264H224.939V179.853C224.939 179.655 224.979 179.459 225.055 179.277C225.131 179.094 225.242 178.928 225.383 178.788C225.524 178.649 225.691 178.538 225.874 178.463C226.058 178.388 226.254 178.35 226.453 178.351Z" fill="#333333"/>
<path d="M232.353 178.351H232.819C233.219 178.351 233.602 178.509 233.885 178.791C234.168 179.072 234.327 179.454 234.327 179.853V180.264H230.84V179.853C230.84 179.655 230.879 179.459 230.955 179.277C231.031 179.094 231.143 178.928 231.283 178.788C231.424 178.649 231.591 178.538 231.775 178.463C231.958 178.388 232.155 178.35 232.353 178.351Z" fill="#333333"/>
<path opacity="0.1" d="M225.301 152.913C225.301 152.913 224.819 155.432 225.663 156.518L225.301 152.913Z" fill="black"/>
<path opacity="0.1" d="M233.97 152.913C233.97 152.913 234.453 155.432 233.608 156.518L233.97 152.913Z" fill="black"/>
</g>
<defs>
<linearGradient id="paint0_linear" x1="85356" y1="60771.2" x2="85356" y2="24781.1" gradientUnits="userSpaceOnUse">
<stop stop-color="#808080" stop-opacity="0.25"/>
<stop offset="0.54" stop-color="#808080" stop-opacity="0.12"/>
<stop offset="1" stop-color="#808080" stop-opacity="0.1"/>
</linearGradient>
<linearGradient id="paint1_linear" x1="10480.5" y1="24835.2" x2="10480.5" y2="7186.33" gradientUnits="userSpaceOnUse">
<stop stop-color="#808080" stop-opacity="0.25"/>
<stop offset="0.54" stop-color="#808080" stop-opacity="0.12"/>
<stop offset="1" stop-color="#808080" stop-opacity="0.1"/>
</linearGradient>
<clipPath id="clip0">
<rect width="480" height="482" fill="white"/>
</clipPath>
</defs>
</svg>
