<svg width="64" height="64" viewBox="0 0 64 64" fill="none" xmlns="http://www.w3.org/2000/svg">
<path d="M12.9524 4.85088C12.9524 2.17181 15.1293 0 17.8146 0H32.1285V2.95271H17.8146C16.7638 2.95271 15.912 3.80255 15.912 4.85088V18.911H12.9524V4.85088Z" fill="#70CBF2"/>
<path d="M46.0015 0C48.6868 0 50.8637 2.17181 50.8637 4.85088V18.911H47.9041V4.85088C47.9041 3.80255 47.0523 2.95271 46.0015 2.95271H32.1285V0H46.0015Z" fill="#F27A86"/>
<path d="M31.9081 40.6349C21.4391 40.6349 12.9524 32.168 12.9524 21.7235V18.911H15.912V21.7235C15.912 30.5373 23.0737 37.6822 31.9081 37.6822V40.6349Z" fill="#F6C28B"/>
<path d="M50.8637 21.7235C50.8637 32.168 42.377 40.6349 31.9081 40.6349V37.6822C40.7424 37.6822 47.9041 30.5373 47.9041 21.7235V18.911H50.8637V21.7235Z" fill="#57C0B3"/>
<path fill-rule="evenodd" clip-rule="evenodd" d="M32.1061 11.0579H27.2671C25.5627 11.0579 24.3216 12.5247 24.3216 14.2472V24.0277C24.3216 25.7332 25.5794 27.0043 27.2671 27.0043H37.1555C38.8599 27.0043 40.1009 25.7501 40.1009 24.0277V18.9248H32.1061V11.0579Z" fill="white"/>
<path d="M0 63.492V52.0635H2.56791V61.3185H7.07486V63.492H0Z" fill="white"/>
<path d="M12.5352 63.492V52.0635H19.6625V54.237H15.1031V56.5332H18.9812V58.6892H15.1031V61.3185H19.8372V63.492H12.5352Z" fill="white"/>
<path d="M25.5993 63.492V52.0635H28.2371L31.2068 57.7427L32.3248 60.2668H32.3946C32.3364 59.6592 32.2665 58.9814 32.185 58.2335C32.1152 57.4856 32.0802 56.7728 32.0802 56.095V52.0635H34.5258V63.492H31.8881L28.9184 57.7953L27.8004 55.3062H27.7305C27.7887 55.9373 27.8528 56.615 27.9226 57.3395C28.0042 58.0641 28.0449 58.7652 28.0449 59.443V63.492H25.5993Z" fill="white"/>
<path d="M40.4107 63.492V52.0635H44.5159C45.1215 52.0635 45.6863 52.1219 46.2104 52.2388C46.7461 52.3556 47.2119 52.5543 47.6079 52.8347C48.0038 53.1035 48.3182 53.4658 48.5512 53.9215C48.7841 54.3772 48.9005 54.944 48.9005 55.6218C48.9005 56.4631 48.7142 57.1584 48.3415 57.7076C47.9805 58.2452 47.4914 58.6483 46.8742 58.9171L49.4595 63.492H46.5772L44.3936 59.3729H42.9786V63.492H40.4107ZM42.9786 57.322H44.3062C44.9817 57.322 45.4941 57.1818 45.8435 56.9013C46.2045 56.6092 46.385 56.1827 46.385 55.6218C46.385 55.0608 46.2045 54.6694 45.8435 54.4473C45.4941 54.2253 44.9817 54.1143 44.3062 54.1143H42.9786V57.322Z" fill="white"/>
<path d="M57.9034 57.7076L57.6239 58.7594H60.0521L59.79 57.7076C59.627 57.1351 59.4698 56.5274 59.3184 55.8847C59.167 55.242 59.0156 54.6226 58.8642 54.0267H58.7943C58.6546 54.6343 58.509 55.2595 58.3576 55.9022C58.2179 56.5332 58.0665 57.1351 57.9034 57.7076ZM53.7808 63.492L57.3444 52.0635H60.4364L64 63.492H61.2749L60.5761 60.7751H57.0998L56.4011 63.492H53.7808Z" fill="white"/>
</svg>
