<svg width="237" height="65" viewBox="0 0 237 65" fill="none" xmlns="http://www.w3.org/2000/svg">
<path d="M2 8.6012C2 4.38166 5.42861 0.96106 9.65802 0.96106H32.2024V5.61158H9.65802C8.00303 5.61158 6.6614 6.95008 6.6614 8.6012V30.7459H2V8.6012Z" fill="#70CBF2"/>
<path d="M54.0523 0.96106C58.2817 0.96106 61.7103 4.38167 61.7103 8.6012V30.7459H57.0489V8.6012C57.0489 6.95008 55.7073 5.61158 54.0523 5.61158H32.2024V0.96106H54.0523Z" fill="#F27A86"/>
<path d="M31.8552 64.961C15.3666 64.961 2 51.6256 2 35.1755V30.7458H6.6614V35.1755C6.6614 49.0572 17.941 60.3105 31.8552 60.3105V64.961Z" fill="#F6C28B"/>
<path d="M61.7103 35.1755C61.7103 51.6256 48.3437 64.961 31.8552 64.961V60.3105C45.7693 60.3105 57.0489 49.0572 57.0489 35.1755V30.7458H61.7103V35.1755Z" fill="#57C0B3"/>
<path fill-rule="evenodd" clip-rule="evenodd" d="M32.167 18.3771H24.5456C21.8612 18.3771 19.9065 20.6873 19.9065 23.4002V38.8045C19.9065 41.4908 21.8875 43.4928 24.5456 43.4928H40.1198C42.8043 43.4928 44.7589 41.5174 44.7589 38.8045V30.7675H32.167V18.3771Z" fill="#1E232C"/>
<path d="M88 46.4611V19.4611H93.9688V41.3261H104.445V46.4611H88Z" fill="#1E232C"/>
<path d="M117.137 46.4611V19.4611H133.703V24.596H123.105V30.0209H132.12V35.1144H123.105V41.3261H134.109V46.4611H117.137Z" fill="#1E232C"/>
<path d="M147.502 46.4611V19.4611H153.634L160.536 32.8782L163.135 38.8414H163.297C163.162 37.4058 163 35.8046 162.81 34.0377C162.648 32.2709 162.567 30.5868 162.567 28.9856V19.4611H168.251V46.4611H162.12L155.217 33.0025L152.619 27.1221H152.456C152.591 28.6129 152.74 30.2141 152.903 31.9258C153.092 33.6374 153.187 35.2939 153.187 36.8951V46.4611H147.502Z" fill="#1E232C"/>
<path d="M181.93 46.4611V19.4611H191.472C192.879 19.4611 194.192 19.5991 195.41 19.8752C196.656 20.1512 197.738 20.6206 198.659 21.2831C199.579 21.9181 200.31 22.7739 200.851 23.8506C201.393 24.9273 201.663 26.2663 201.663 27.8675C201.663 29.8552 201.23 31.4979 200.364 32.7954C199.525 34.0654 198.388 35.0178 196.953 35.6528L202.963 46.4611H196.263L191.188 36.7295H187.899V46.4611H181.93ZM187.899 31.8844H190.985C192.555 31.8844 193.746 31.5531 194.558 30.8905C195.397 30.2003 195.816 29.1927 195.816 27.8675C195.816 26.5423 195.397 25.6175 194.558 25.093C193.746 24.5684 192.555 24.3062 190.985 24.3062H187.899V31.8844Z" fill="#1E232C"/>
<path d="M222.589 32.7954L221.94 35.2801H227.584L226.975 32.7954C226.596 31.4427 226.23 30.0071 225.878 28.4887C225.527 26.9703 225.175 25.5071 224.823 24.0991H224.66C224.335 25.5347 223.997 27.0117 223.645 28.5301C223.32 30.0209 222.968 31.4427 222.589 32.7954ZM213.007 46.4611L221.29 19.4611H228.477L236.76 46.4611H230.426L228.802 40.0423H220.722L219.098 46.4611H213.007Z" fill="#1E232C"/>
</svg>
