<svg width="88" height="88" viewBox="0 0 88 88" fill="none" xmlns="http://www.w3.org/2000/svg">
<g clip-path="url(#clip0_224_1580)">
<path fill-rule="evenodd" clip-rule="evenodd" d="M43.9102 0C68.1628 0 87.8222 19.6594 87.8222 43.9125C87.8222 68.164 68.1628 87.824 43.9102 87.824C19.6582 87.824 -0.0012207 68.164 -0.0012207 43.9125C-0.0012207 19.6594 19.6582 0 43.9102 0" fill="#F9C737"/>
<path fill-rule="evenodd" clip-rule="evenodd" d="M65.8084 41.1421C64.8994 41.1421 64.4696 42.7562 64.7433 45.1397C65.0771 48.0416 67.6671 48.0314 69.4196 47.2979L69.4186 48.7305C68.34 49.0246 67.4622 49.0976 66.6981 49.0976C62.2771 49.0976 61.8291 45.4617 61.8291 44.3751C61.8291 42.5303 62.4837 39.9788 65.9876 39.9788C68.3105 39.9788 69.6359 41.4904 69.6584 43.5165L66.8633 43.516C66.8558 42.2502 66.5897 41.1421 65.8084 41.1421" fill="#FFFFFE"/>
<path fill-rule="evenodd" clip-rule="evenodd" d="M78.1445 44.4867H73.0882L73.0904 44.5403C73.2696 48.1124 75.9311 48.0389 77.8075 47.2946L77.8064 48.7289C76.73 49.023 75.9831 49.0949 75.1514 49.0949C70.8539 49.0949 70.2137 45.9033 70.2137 44.271C70.2137 42.3833 71.0369 39.9724 74.3202 39.9751C76.7424 39.9772 78.1445 41.5054 78.1445 43.6271V44.4867ZM75.1917 43.2209V43.04C75.153 42.1536 74.9722 41.1405 74.214 41.1405C73.4805 41.1405 73.2315 41.9899 73.1279 43.1656L73.1231 43.2209H75.1917Z" fill="#FFFFFE"/>
<path fill-rule="evenodd" clip-rule="evenodd" d="M50.8269 48.8277L46.1023 48.8271C44.3605 48.8244 43.1065 48.1172 43.1097 46.1871C43.113 44.6165 44.0214 43.8616 45.0688 43.4951C45.5947 43.3121 46.1543 43.2279 46.6507 43.1881C47.1486 43.1479 47.5806 43.1554 47.8489 43.1543H47.8993V42.8812C47.902 40.862 45.886 41.0778 44.7463 41.4104C44.5312 41.4764 44.3332 41.5462 44.1668 41.6165L44.1684 40.2949C45.1745 40.0582 45.8598 39.9772 46.9281 39.9772C49.4549 39.9772 50.8275 41.1631 50.8275 43.1458L50.8269 48.8277ZM47.909 47.6203L47.8982 44.2517L47.8435 44.257C47.1175 44.3209 46.0577 44.6471 46.0567 46.1072C46.0556 47.4749 46.7226 47.593 47.3541 47.6193L47.909 47.6203Z" fill="#FFFFFE"/>
<path fill-rule="evenodd" clip-rule="evenodd" d="M31.0366 40.2718L31.0334 48.8277H28.1047L28.1069 40.2718H31.0366Z" fill="#4C4542"/>
<path fill-rule="evenodd" clip-rule="evenodd" d="M43.0572 41.2414C42.3677 41.272 41.3085 41.5167 41.3058 43.1318L41.3009 48.8271H38.3728L38.3766 43.0384C38.3787 41.2988 39.9718 39.9778 42.4616 39.9767H43.0561L43.0572 41.2414" fill="#FFFFFE"/>
<path fill-rule="evenodd" clip-rule="evenodd" d="M38.3299 36.6622L38.3289 37.9022C38.0402 37.9022 37.7494 37.9022 37.4741 37.9242C37.1811 37.9473 36.9026 37.9961 36.6606 38.0965C36.1686 38.3015 35.8396 38.7184 35.8396 39.5426V40.2718H37.9044L37.9034 41.529H35.8327L35.8354 48.8277H32.9088V40.2171C32.9088 37.0362 35.0906 36.6622 37.7354 36.6622H38.3299" fill="#FFFFFE"/>
<path fill-rule="evenodd" clip-rule="evenodd" d="M60.5231 48.8277H57.5799L57.5735 43.6743C57.5735 41.6422 56.8035 41.5355 55.7308 41.5306H55.5237L55.5253 48.8277H52.5924L52.5902 40.2321C52.829 40.2477 53.6215 40.2734 56.2674 40.2734C60.5102 40.2734 60.5215 42.2411 60.5215 43.8417L60.5231 48.8277" fill="#FFFFFE"/>
<path fill-rule="evenodd" clip-rule="evenodd" d="M29.5717 38.5038C28.5313 38.5038 27.6862 37.6597 27.6862 36.6177C27.6862 35.5751 28.5313 34.7305 29.5717 34.7305C30.6122 34.7305 31.4557 35.5751 31.4557 36.6177C31.4557 37.6597 30.6122 38.5038 29.5717 38.5038Z" fill="#4C4542"/>
<path fill-rule="evenodd" clip-rule="evenodd" d="M29.5717 54.3813C28.5313 54.3813 27.6862 53.5357 27.6862 52.4936C27.6862 51.4516 28.5313 50.6064 29.5717 50.6064C30.6122 50.6064 31.4557 51.4516 31.4557 52.4936C31.4557 53.5357 30.6122 54.3813 29.5717 54.3813Z" fill="#FFFFFE"/>
<path fill-rule="evenodd" clip-rule="evenodd" d="M9.68103 48.8277V36.6633H12.6253V40.2729H13.5568C15.5969 40.2729 16.6057 41.0697 17.1084 41.9835C17.615 42.9038 17.6161 43.9528 17.6161 44.4684C17.6161 45.8271 17.1868 48.8287 13.8229 48.8287L9.68103 48.8277ZM14.6428 44.4481C14.6428 42.5807 14.2087 41.4314 12.8646 41.4314L12.6253 41.4298V47.6488L12.9081 47.6477C14.2109 47.6477 14.6428 46.4023 14.6428 44.4481V44.4481Z" fill="#4C4542"/>
<path fill-rule="evenodd" clip-rule="evenodd" d="M26.8293 44.6316C26.8293 45.1483 26.8287 46.1968 26.3227 47.117C25.8199 48.0314 24.8112 48.8277 22.7716 48.8277H21.839V52.4373H18.8948V40.2729L23.0367 40.2718C26.4016 40.2718 26.8293 43.2745 26.8293 44.6316V44.6316ZM21.839 41.4287V47.6477L22.0789 47.6466C23.4225 47.6466 23.8555 46.4983 23.8555 44.63C23.8555 42.6757 23.4252 41.4303 22.1213 41.4303L21.839 41.4287Z" fill="#4C4542"/>
</g>
<defs>
<clipPath id="clip0_224_1580">
<rect width="88" height="88" fill="white"/>
</clipPath>
</defs>
</svg>
