<svg xmlns="http://www.w3.org/2000/svg" width="328" height="140" viewBox="0 0 328 140"><path d="M69.632 139C31.813 139 1 108.077 1 70 1 31.978 31.813 1 69.632 1 79.32 1 88.678 2.98 97.49 6.943c2.025.88 2.9 3.246 2.025 5.282-.876 2.036-3.23 2.916-5.254 2.036-7.772-3.467-16.036-5.228-24.629-5.228C36.192 8.978 8.936 36.38 8.936 70s27.256 61.022 60.696 61.022S130.328 103.62 130.328 70c0-4.402-.438-8.749-1.368-12.986a53.914 53.914 0 0 0-1.97-7.043 3.978 3.978 0 0 1 2.463-5.062 3.947 3.947 0 0 1 5.035 2.476 81.28 81.28 0 0 1 2.244 7.924c1.04 4.787 1.532 9.739 1.532 14.691 0 38.022-30.813 69-68.632 69" fill="#0053a0"/><path d="M102.908 47.66L37.834 64.993c-3.941 1.045-7.991-1.32-9.03-5.282-1.04-3.962 1.313-8.034 5.253-9.08l65.075-17.387c3.94-1.045 7.99 1.32 9.03 5.282.985 4.017-1.313 8.034-5.254 9.134" fill="#21b5ea"/><path d="M75.871 66.864l-.054 37.856c0 4.072-3.284 7.428-7.389 7.428s-7.389-3.301-7.389-7.428l.055-37.856c0-4.072 3.284-7.429 7.389-7.429s7.388 3.302 7.388 7.429" fill="#afca0b"/><path d="M66.511 73.962l-32.51-8.914c-3.94-1.1-6.293-5.172-5.199-9.134 1.095-3.962 5.2-6.273 9.14-5.172l32.455 8.913c3.94 1.101 6.294 5.173 5.2 9.134-1.04 3.962-5.145 6.273-9.086 5.173M107.668 43.644l-32.51 64.213c-1.75 3.686-6.129 5.282-9.796 3.521-3.667-1.76-5.254-6.163-3.503-9.85l32.51-64.212c1.751-3.687 6.13-5.283 9.797-3.522 3.667 1.761 5.254 6.163 3.502 9.85" fill="#aaa" fill-opacity=".502"/><path d="M43.033 55.969c1.04 3.962-1.313 8.033-5.254 9.079-3.94 1.045-7.99-1.32-9.03-5.282-1.04-3.962 1.313-8.034 5.253-9.08a7.365 7.365 0 0 1 9.031 5.283M108.162 38.581c1.04 3.962-1.313 8.034-5.254 9.08-3.94 1.045-7.99-1.321-9.03-5.283-1.04-3.962 1.313-8.034 5.254-9.079 3.94-1.045 7.99 1.32 9.03 5.282M75.871 66.864c0 4.071-3.283 7.428-7.388 7.428s-7.389-3.302-7.389-7.428c0-4.072 3.284-7.429 7.389-7.429s7.388 3.302 7.388 7.429M75.652 102.85c1.04 3.961-1.313 8.033-5.254 9.078-3.94 1.046-7.99-1.32-9.03-5.282-1.04-3.962 1.313-8.034 5.254-9.079 3.94-.99 7.99 1.32 9.03 5.282M219.846 46.14c-1.438 0-2.71.235-3.81.704-.829.348-1.592.88-2.29 1.6a8.444 8.444 0 0 0-1.639 2.435c-.538 1.229-.806 2.747-.806 4.557 0 2.826.774 5.048 2.324 6.664 1.551 1.607 3.64 2.412 6.268 2.412 2.595 0 4.669-.808 6.22-2.424 1.552-1.623 2.328-3.87 2.328-6.738 0-2.893-.783-5.15-2.35-6.774-1.56-1.624-3.642-2.435-6.245-2.435zm19.008 0c-2.476 0-4.472.82-5.99 2.462-1.519 1.632-2.278 3.926-2.278 6.882 0 2.795.756 5.002 2.266 6.618 1.51 1.607 3.439 2.41 5.785 2.41 1.896 0 3.46-.47 4.69-1.407 1.237-.945 2.12-2.386 2.65-4.324l-3.46-1.103c-.297 1.301-.787 2.254-1.47 2.86-.683.606-1.499.91-2.447.91-1.286 0-2.33-.477-3.133-1.43-.804-.954-1.205-2.553-1.205-4.8 0-2.115.405-3.646 1.217-4.591.819-.946 1.885-1.42 3.195-1.42.948 0 1.75.267 2.408.8.667.535 1.105 1.262 1.314 2.182l3.534-.85c-.402-1.422-1.006-2.512-1.809-3.27-1.35-1.285-3.105-1.928-5.267-1.928zm-63.35.303l-6.885 17.766h3.785l1.46-4.035h7.062l1.545 4.035h3.879l-7.077-17.766h-3.77zm18.693 0V64.21h3.567v-7.416h.722c.82 0 1.42.066 1.797.203.378.13.734.378 1.072.742.338.354.966 1.224 1.881 2.606l2.578 3.865h4.268l-2.156-3.465c-.852-1.383-1.533-2.344-2.04-2.885-.497-.541-1.13-1.038-1.904-1.49 1.552-.227 2.717-.772 3.497-1.637.78-.872 1.17-1.975 1.17-3.308 0-1.05-.257-1.981-.772-2.797-.515-.817-1.203-1.384-2.063-1.7-.852-.323-2.222-.484-4.109-.484h-7.508zm54.865 0v17.768h3.569v-7.768h6.99v7.768h3.568V46.443h-3.566v6.993h-6.99v-6.993h-3.57zm17.829 0v17.768l13.437-.002v-2.994h-9.871V56.38h8.871v-2.994h-8.871v-3.94h9.535v-3.004h-13.101zm46.67 0v17.768L327 64.209v-2.994h-9.871V56.38h8.869v-2.994h-8.87v-3.94h9.534v-3.004h-13.101zm-158.14.147v17.619l12.44.002v-2.994h-8.87V46.59h-3.57zm128.056 0v17.62h12.437v-2.993h-8.87V46.59h-3.567zm15.09 0v17.62h12.439v-2.993h-8.871V46.59h-3.569zm-78.686 2.617c1.471 0 2.648.5 3.531 1.502.892 1.002 1.338 2.522 1.338 4.559 0 2.058-.456 3.604-1.371 4.638-.909 1.026-2.075 1.54-3.498 1.54-1.422 0-2.596-.518-3.52-1.551-.924-1.044-1.384-2.57-1.384-4.579v-.002c0-2.044.45-3.57 1.35-4.58.9-1.018 2.084-1.527 3.554-1.527zm-22.117.242h2.783c1.447 0 2.316.02 2.605.06.579.098 1.025.332 1.338.704.32.363.48.843.48 1.441 0 .532-.12.978-.36 1.334a1.92 1.92 0 0 1-1 .75c-.427.147-1.495.219-3.206.219h-2.64v-4.508zm-20.418 1.14l2.433 6.59h-4.818l2.385-6.59zm74.101 20.374c-2.541 0-4.613.853-6.218 2.558-1.606 1.697-2.41 4.049-2.41 7.055 0 1.59.345 3.099 1.033 4.524a7.947 7.947 0 0 0 3.037 3.373c1.335.823 2.85 1.234 4.547 1.234a8.95 8.95 0 0 0 4.375-1.111c1.352-.75 2.397-1.85 3.134-3.3.737-1.45 1.106-3.092 1.106-4.929 0-1.812-.354-3.431-1.059-4.857-.696-1.433-1.712-2.55-3.047-3.35-1.336-.799-2.835-1.197-4.498-1.197zm36.38 0c-2.54 0-4.612.853-6.218 2.558-1.606 1.697-2.41 4.049-2.41 7.055 0 1.59.345 3.099 1.033 4.524a7.938 7.938 0 0 0 3.036 3.373c1.336.823 2.852 1.234 4.546 1.234a8.95 8.95 0 0 0 4.377-1.111c1.352-.75 2.396-1.85 3.133-3.3.738-1.45 1.108-3.092 1.108-4.929 0-1.812-.352-3.431-1.057-4.857-.697-1.433-1.714-2.55-3.049-3.35-1.335-.799-2.835-1.197-4.5-1.197zm-91.036.014c-1.59 0-3.05.365-4.377 1.097-1.32.725-2.339 1.793-3.059 3.201-.713 1.402-1.07 3.045-1.07 4.932 0 1.73.315 3.348.945 4.856.64 1.507 1.566 2.66 2.78 3.458 1.221.792 2.803 1.186 4.744 1.186 1.877 0 3.462-.514 4.756-1.543 1.302-1.038 2.204-2.542 2.705-4.512l-2.385-.603-.002-.002c-.327 1.524-.952 2.673-1.879 3.45-.926.772-2.057 1.16-3.392 1.16a5.823 5.823 0 0 1-3.06-.852c-.944-.57-1.64-1.427-2.09-2.57-.443-1.155-.665-2.501-.665-4.042 0-1.194.188-2.352.565-3.472.377-1.129 1.03-2.027 1.957-2.694.934-.666 2.093-1 3.476-1 1.206 0 2.206.3 3 .9.795.602 1.4 1.562 1.819 2.882l2.347-.557c-.482-1.672-1.338-2.97-2.568-3.893-1.228-.922-2.744-1.382-4.547-1.382zm-41.371.306v2.139h5.935v15.976h2.385V73.424h5.961v-2.14H155.42zm16.787.002v18.113h13.447v-2.136h-11.06v-6.166h9.969V78.97h-9.97v-5.55h10.643v-2.136h-13.029zm35.03 0v18.113l2.384.002v-8.539h9.367v8.54h2.385V71.284h-2.385v7.438h-9.367v-7.438h-2.385zm18.091 0v18.113l2.287.002V75.166l9.463 14.234h2.447V71.285h-2.287v14.223l-9.465-14.223h-2.445zm37.783 0v18.113l2.385.002v-7.365h4.621c2.549 0 4.31-.532 5.285-1.596.976-1.07 1.463-2.375 1.463-3.916 0-.898-.185-1.72-.554-2.47-.361-.75-.84-1.331-1.438-1.742-.598-.42-1.34-.706-2.225-.854-.63-.115-1.544-.172-2.74-.172h-6.797zm36.284 0V89.4l11.257-.002v-2.136h-8.875V71.285h-2.382zm14.158 0V89.4L327 89.398v-2.136h-11.063v-6.166h9.97V78.97h-9.97v-5.55h10.643v-2.136h-13.027zm-62.094 1.742c1.189 0 2.258.304 3.209.914.959.602 1.684 1.455 2.176 2.559.5 1.095.75 2.38.75 3.855 0 2.332-.583 4.13-1.746 5.399-1.157 1.269-2.63 1.902-4.424 1.902-1.762 0-3.23-.625-4.403-1.877-1.163-1.26-1.744-2.983-1.744-5.166v-.002c0-2.725.606-4.668 1.819-5.83 1.222-1.17 2.676-1.754 4.363-1.754zm36.38 0c1.19 0 2.26.304 3.21.914.959.602 1.682 1.455 2.174 2.559.5 1.095.75 2.38.75 3.855 0 2.332-.581 4.13-1.744 5.399-1.156 1.269-2.63 1.902-4.424 1.902-1.762 0-3.23-.625-4.4-1.877-1.164-1.26-1.747-2.983-1.747-5.166v-.002c0-2.725.608-4.668 1.82-5.83 1.221-1.17 2.675-1.754 4.362-1.754zm-22.343.397h4.61c1.081 0 1.823.051 2.224.158.621.173 1.12.532 1.498 1.076.385.535.578 1.181.578 1.94 0 1.046-.323 1.857-.97 2.433-.647.576-1.742.865-3.282.865h-4.658v-6.472zm5.707 28.853c-1.23 0-2.234.41-3.012 1.23-.777.818-1.166 1.953-1.166 3.401 0 .766.167 1.491.5 2.178a3.827 3.827 0 0 0 1.47 1.625c.646.397 1.38.596 2.202.596.758 0 1.465-.18 2.12-.537a3.671 3.671 0 0 0 1.517-1.588c.357-.699.535-1.49.535-2.375 0-.873-.17-1.654-.512-2.34a3.75 3.75 0 0 0-1.476-1.613c-.647-.385-1.372-.577-2.178-.577zm34.785 0c-1.23 0-2.234.41-3.011 1.23-.778.818-1.166 1.953-1.166 3.401 0 .766.166 1.491.5 2.178a3.827 3.827 0 0 0 1.468 1.625c.647.397 1.382.596 2.203.596.758 0 1.465-.18 2.12-.537a3.671 3.671 0 0 0 1.517-1.588c.357-.699.535-1.49.535-2.375 0-.873-.17-1.654-.511-2.34a3.75 3.75 0 0 0-1.477-1.613c-.647-.385-1.372-.577-2.178-.577zm-137.681.006c-.77 0-1.477.176-2.12.53a3.568 3.568 0 0 0-1.482 1.54c-.345.675-.518 1.467-.518 2.376 0 .833.152 1.613.458 2.34.309.726.758 1.28 1.345 1.665.591.381 1.357.573 2.297.573.909 0 1.678-.248 2.305-.745.63-.5 1.066-1.225 1.308-2.173l-1.154-.291c-.159.734-.462 1.287-.91 1.66s-.996.56-1.643.56a2.832 2.832 0 0 1-1.482-.412c-.456-.274-.794-.684-1.012-1.236-.214-.556-.322-1.205-.322-1.947 0-.576.09-1.133.273-1.672.183-.544.5-.978.948-1.3.452-.32 1.013-.481 1.683-.481.584 0 1.068.145 1.453.435.385.29.679.752.881 1.387l1.137-.268c-.234-.805-.649-1.43-1.244-1.875-.595-.444-1.328-.666-2.201-.666zm155.152 0c-.587 0-1.121.099-1.602.297-.48.198-.845.49-1.095.875-.25.381-.375.792-.375 1.233 0 .4.102.762.304 1.087.207.322.517.593.934.81.321.172.884.353 1.686.548.801.19 1.318.332 1.552.424.365.139.627.31.785.517.16.203.239.441.239.715 0 .27-.084.52-.25.75-.163.226-.413.404-.75.535-.338.131-.726.196-1.166.196-.496 0-.943-.086-1.34-.256-.397-.175-.69-.4-.881-.678-.187-.282-.306-.642-.357-1.078l-1.09.096c.016.583.175 1.108.476 1.572.306.46.724.805 1.256 1.035.536.23 1.199.346 1.988.346.623 0 1.184-.114 1.68-.34.5-.23.883-.55 1.149-.96.265-.412.398-.85.398-1.314 0-.468-.121-.88-.363-1.238-.242-.361-.617-.658-1.125-.892-.35-.16-.993-.345-1.934-.555-.936-.214-1.516-.423-1.738-.625a.992.992 0 0 1-.34-.774c0-.36.16-.668.477-.921.321-.258.83-.387 1.529-.387.67 0 1.176.14 1.517.422.346.281.548.698.608 1.25l1.107-.084a2.642 2.642 0 0 0-.43-1.375c-.265-.405-.646-.71-1.142-.916-.492-.21-1.06-.315-1.707-.315zm-164.69.149l-3.35 8.724h1.226l.959-2.642h3.648l1.018 2.642h1.316l-3.572-8.724h-1.244zm13.905 0v1.029h2.875v7.695h1.156v-7.695h2.887v-1.03h-6.918zm8.305 0v8.724h1.154v-8.724h-1.154zm2.296 0l3.381 8.724h1.186l3.416-8.724h-1.178l-2.357 6.338c-.179.476-.336.953-.471 1.43a20.14 20.14 0 0 0-.459-1.43l-2.268-6.338h-1.25zm10.518 0l-3.352 8.724h1.227l.959-2.642h3.648l1.018 2.642h1.316l-3.572-8.724h-1.244zm4.191 0v1.029h2.875v7.695h1.155v-7.695h2.886v-1.03h-6.916zm8.131 0v8.724h6.512v-1.03h-5.357v-2.968h4.828v-1.025h-4.828v-2.672h5.154v-1.03h-6.309zm8.137 0v5.04c0 .925.11 1.656.332 2.192.222.532.593.937 1.113 1.219.52.282 1.189.424 2.006.424.841 0 1.521-.161 2.037-.483.52-.325.878-.746 1.076-1.261.199-.516.3-1.213.3-2.09v-5.041h-1.157v5.035c0 1.095-.18 1.836-.541 2.22-.361.385-.965.577-1.814.577-.497 0-.919-.097-1.264-.291a1.622 1.622 0 0 1-.725-.828c-.139-.362-.209-.92-.209-1.678v-5.035h-1.154zm8.809 0v8.724h1.154v-3.873h1.34c.297 0 .511.013.642.041.179.044.353.122.524.233.174.11.371.304.59.582.218.277.496.679.834 1.203l1.154 1.814h1.453l-1.518-2.373a6.013 6.013 0 0 0-.959-1.162c-.158-.143-.391-.287-.697-.433.837-.116 1.457-.386 1.858-.811.4-.425.601-.945.601-1.564 0-.48-.121-.92-.363-1.317a1.923 1.923 0 0 0-.97-.826c-.406-.159-.997-.238-1.774-.238h-3.87zm12.171 0v8.724h3.15c.529 0 .994-.049 1.4-.148.408-.1.755-.243 1.04-.434.29-.194.557-.46.8-.793.241-.337.438-.761.593-1.273.155-.512.232-1.1.232-1.762 0-.778-.115-1.467-.345-2.07a3.524 3.524 0 0 0-1.03-1.494 2.954 2.954 0 0 0-1.279-.625c-.357-.084-.874-.125-1.553-.125h-3.008zm8.407 0v1.457l.273 1.63h.66l.285-1.63v-1.457h-1.218zm2.933 0v8.724h1.155v-8.724h-1.155zm3.172 0v8.724h1.108v-6.855l4.584 6.855h1.183v-8.724h-1.105v6.851l-4.584-6.851h-1.186zm8.81 0v8.724h1.108v-6.855l4.582 6.855h1.186v-8.724h-1.108v6.851l-4.584-6.851h-1.183zm17.41 0l3.382 8.724h1.185l3.416-8.724h-1.18l-2.355 6.338c-.178.476-.336.953-.47 1.43a20.145 20.145 0 0 0-.46-1.43l-2.267-6.338h-1.25zm10.518 0l-3.351 8.724h1.226l.96-2.642h3.648l1.017 2.642h1.317l-3.572-8.724h-1.245zm4.192 0v1.029h2.875v7.695h1.154v-7.695h2.887v-1.03h-6.916zm8.303 0v8.724h1.154v-8.724h-1.154zm12.648 0v8.724h1.107v-6.855l4.584 6.855h1.184v-8.724h-1.107v6.851l-4.582-6.851h-1.186zm-40.416.838c.575 0 1.092.147 1.553.44.464.29.816.702 1.054 1.233.242.528.364 1.147.364 1.858 0 1.123-.283 1.988-.846 2.6-.56.61-1.274.917-2.143.917-.853 0-1.563-.3-2.13-.904-.564-.607-.846-1.437-.846-2.488 0-1.314.293-2.251.88-2.81a2.958 2.958 0 0 1 2.114-.846zm34.785 0c.576 0 1.095.147 1.555.44.464.29.814.702 1.053 1.233.242.528.363 1.147.363 1.858 0 1.123-.282 1.988-.846 2.6-.56.61-1.273.917-2.142.917-.854 0-1.564-.3-2.131-.904-.564-.607-.846-1.437-.846-2.488 0-1.314.294-2.251.88-2.81a2.958 2.958 0 0 1 2.114-.846zm-146.629.078c.135.472.342 1.076.62 1.81l.91 2.416h-2.958l.958-2.56c.202-.552.36-1.107.47-1.666zm35.024 0c.135.472.341 1.076.619 1.81l.91 2.416h-2.957l.957-2.56c.202-.552.36-1.107.47-1.666zm92.69 0c.134.472.34 1.076.618 1.81l.91 2.416h-2.959l.96-2.56c.202-.552.359-1.107.47-1.666zm-62.864.047h2.764c.646 0 1.118.134 1.416.4.301.266.45.605.45 1.017 0 .282-.075.544-.23.786a1.34 1.34 0 0 1-.68.523c-.297.107-.71.162-1.238.162h-2.482v-2.888zm12.174.066h1.832c.686 0 1.184.059 1.494.178.428.166.792.496 1.09.988.301.488.453 1.189.453 2.102 0 .658-.078 1.22-.233 1.685-.15.46-.363.826-.636 1.1-.195.194-.458.346-.787.453-.326.107-.775.16-1.35.16h-1.863v-6.666z" fill="#0053a0"/></svg>