<?xml version="1.0" encoding="UTF-8" standalone="no"?>
<!-- Created with Inkscape (http://www.inkscape.org/) -->

<svg
   version="1.1"
   id="svg2"
   xml:space="preserve"
   width="566.92932"
   height="377.95334"
   viewBox="0 0 566.92932 377.95334"
   sodipodi:docname="logo_na_horiz_QUADRI_2019.ai"
   xmlns:inkscape="http://www.inkscape.org/namespaces/inkscape"
   xmlns:sodipodi="http://sodipodi.sourceforge.net/DTD/sodipodi-0.dtd"
   xmlns="http://www.w3.org/2000/svg"
   xmlns:svg="http://www.w3.org/2000/svg"><defs
     id="defs6"><clipPath
       clipPathUnits="userSpaceOnUse"
       id="clipPath16"><path
         d="M 0,283.465 H 425.197 V 0 H 0 Z"
         id="path14" /></clipPath></defs><sodipodi:namedview
     id="namedview4"
     pagecolor="#ffffff"
     bordercolor="#666666"
     borderopacity="1.0"
     inkscape:pageshadow="2"
     inkscape:pageopacity="0.0"
     inkscape:pagecheckerboard="0" /><g
     id="g8"
     inkscape:groupmode="layer"
     inkscape:label="logo_na_horiz_QUADRI_2019"
     transform="matrix(1.3333333,0,0,-1.3333333,0,377.95333)"><g
       id="g10"><g
         id="g12"
         clip-path="url(#clipPath16)"><g
           id="g18"
           transform="translate(170.3191,148.7334)"><path
             d="m 0,0 v 66.824 c 0,3.791 -3.084,6.875 -6.875,6.875 h -114.827 c -3.783,0 -6.861,-3.078 -6.861,-6.862 V 0.007 c -0.019,-0.599 -0.055,-2.459 0.141,-5.287 0.209,-2.972 0.728,-7.66 2.018,-13.13 1.231,-5.217 2.95,-10.291 5.112,-15.087 0.39,-0.859 0.789,-1.712 1.202,-2.546 1.179,-2.385 2.505,-4.746 3.942,-7.019 2.669,-4.227 5.749,-8.18 9.149,-11.749 0.674,-0.707 1.343,-1.393 2.011,-2.067 2.146,-2.16 4.337,-4.225 6.513,-6.135 1.929,-1.694 3.917,-3.332 5.912,-4.868 1.49,-1.144 2.988,-2.236 4.458,-3.251 11.149,-7.68 19.66,-10.144 22.002,-10.716 l 1.841,-0.369 1.795,0.37 c 1.661,0.403 6.204,1.693 12.464,4.952 4.291,2.228 8.647,4.993 12.947,8.216 5.28,3.956 10.492,8.621 15.488,13.865 5.251,5.506 9.655,11.82 13.096,18.771 2.735,5.533 4.859,11.466 6.313,17.633 1.29,5.471 1.809,10.159 2.018,13.132 C 0.059,-2.382 0.018,-0.529 0,0"
             style="fill:#c31632;fill-opacity:1;fill-rule:nonzero;stroke:none"
             id="path20" /></g><g
           id="g22"
           transform="translate(84.8337,100.8457)"><path
             d="m 0,0 c -1.22,4.229 -2.481,8.601 -2.411,13.25 0.045,3.072 1.006,5.97 1.935,8.771 0.91,2.74 1.85,5.572 1.957,8.6 0.156,4.562 -0.922,7.815 -1.964,10.962 -0.834,2.514 -1.696,5.114 -1.929,8.396 -0.332,4.589 0.94,9.04 2.17,13.345 1.153,4.036 2.243,7.849 2.111,11.751 -0.102,2.917 -1.134,5.719 -2.133,8.428 -0.944,2.562 -1.92,5.21 -2.149,8.009 -0.439,5.267 0.93,9.467 2.253,13.529 0.985,3.021 1.916,5.88 2.134,9.093 h 73.24 c 1.578,0 2.861,-1.283 2.861,-2.861 l 0.002,-63.58 C 78.088,47.408 78.337,40.591 76.115,31.176 74.791,25.558 72.86,20.162 70.376,15.139 67.278,8.875 63.306,3.177 58.568,-1.795 53.86,-6.733 48.967,-11.116 44.025,-14.82 c -3.973,-2.976 -7.979,-5.521 -11.907,-7.564 -5.638,-2.932 -9.458,-4.012 -10.917,-4.353 -1.47,0.345 -5.318,1.434 -10.973,4.386 -2.917,1.521 -5.895,3.33 -8.85,5.372 0.528,1.501 0.813,2.861 0.87,4.147 C 2.454,-8.503 1.262,-4.373 0,0 m -12.346,20.466 c 0.866,2.513 1.762,5.111 1.957,7.733 0.42,5.585 -0.806,9.335 -1.991,12.961 -0.912,2.789 -1.774,5.423 -1.9,8.805 -0.16,4.419 1.058,8.78 2.236,12.997 1.266,4.532 2.461,8.812 2.053,13.097 -0.267,2.772 -1.259,5.422 -2.218,7.985 -1.025,2.74 -1.993,5.328 -2.071,7.929 -0.086,2.989 0.93,6.382 2.006,9.975 1.172,3.914 2.383,7.957 2.47,12.186 h 5.524 c -0.131,-3.159 -1.088,-6.333 -2.097,-9.685 -1.341,-4.448 -2.727,-9.046 -2.241,-13.972 0.263,-2.65 1.255,-5.298 2.213,-7.858 0.996,-2.66 1.936,-5.171 2.066,-7.578 C -4.128,71.219 -5.226,67.47 -6.388,63.5 -7.76,58.81 -9.18,53.96 -8.617,48.464 c 0.283,-2.766 1.161,-5.289 2.011,-7.728 0.909,-2.611 1.767,-5.077 1.88,-7.699 0.165,-3.802 -0.897,-7.13 -1.923,-10.348 -0.986,-3.087 -2.005,-6.282 -1.97,-9.916 0.038,-4.43 1.299,-8.816 2.518,-13.058 1.302,-4.529 2.532,-8.813 2.174,-12.745 -1.805,1.433 -3.607,2.96 -5.364,4.544 l -0.666,0.612 c -0.486,2.93 -1.311,5.808 -2.108,8.592 -1.172,4.093 -2.279,7.958 -2.215,11.562 0.05,2.725 1.007,5.501 1.934,8.186 m -20.383,67.595 10e-4,-0.001 c 0.265,-2.647 1.255,-5.29 2.212,-7.845 0.997,-2.661 1.939,-5.174 2.069,-7.587 0.213,-3.823 -0.886,-7.574 -2.049,-11.545 -1.374,-4.689 -2.794,-9.537 -2.232,-15.03 0.284,-2.765 1.163,-5.286 2.012,-7.724 0.91,-2.614 1.771,-5.083 1.884,-7.712 0.152,-3.519 -0.747,-6.635 -1.697,-9.632 -1.298,3.327 -2.362,6.732 -3.168,10.14 -2.239,9.469 -1.974,16.55 -1.971,16.637 v 63.511 c 0,1.578 1.283,2.861 2.861,2.861 h 4.361 v -0.002 c 0.439,-3.944 -0.76,-7.907 -2.031,-12.104 -1.344,-4.446 -2.735,-9.044 -2.252,-13.967 m 16.538,-12.553 h -0.001 c 0.382,-3.865 -0.794,-8.18 -2.039,-12.748 -1.208,-4.427 -2.456,-9.004 -2.242,-13.311 0.13,-2.697 1.003,-5.313 1.927,-8.084 0.849,-2.547 1.728,-5.179 1.965,-7.86 0.34,-3.889 -0.812,-7.796 -1.927,-11.575 -0.979,-3.319 -1.992,-6.749 -1.966,-10.124 0.025,-3.624 1.08,-7.476 2.17,-11.232 -2.828,3.266 -5.356,6.818 -7.526,10.578 -0.166,0.287 -0.325,0.576 -0.483,0.865 l -0.12,0.217 c 0.252,2.548 1.066,5.003 1.852,7.379 0.907,2.741 1.845,5.574 1.955,8.601 0.158,4.55 -0.92,7.798 -1.962,10.939 -0.836,2.519 -1.7,5.123 -1.93,8.414 -0.332,4.585 0.938,9.034 2.166,13.335 1.154,4.039 2.244,7.855 2.109,11.76 -0.101,2.918 -1.133,5.721 -2.131,8.431 -0.941,2.561 -1.916,5.208 -2.145,8.005 -0.442,5.265 0.929,9.463 2.255,13.523 1.225,3.751 2.384,7.3 2.157,11.513 h 6.306 c 0.117,-3.681 -0.99,-6.797 -2.161,-10.095 -1.273,-3.581 -2.59,-7.283 -2.512,-12.082 0.042,-2.773 1,-5.351 2.015,-8.08 0.963,-2.594 1.96,-5.276 2.268,-8.369 M 82.03,47.803 v 66.671 c 0,1.991 -1.621,3.611 -3.613,3.611 h -114.44 c -1.985,0 -3.599,-1.614 -3.599,-3.598 l 10e-4,-66.638 c -0.003,-0.078 -0.082,-1.929 0.132,-5.012 0.197,-2.836 0.693,-7.319 1.932,-12.569 1.18,-5 2.827,-9.859 4.893,-14.443 0.372,-0.821 0.755,-1.637 1.151,-2.439 1.128,-2.281 2.394,-4.534 3.763,-6.7 2.547,-4.036 5.485,-7.806 8.728,-11.207 0.655,-0.689 1.306,-1.356 1.955,-2.011 2.092,-2.107 4.223,-4.113 6.331,-5.962 1.867,-1.643 3.794,-3.229 5.727,-4.717 1.439,-1.104 2.888,-2.161 4.307,-3.141 10.665,-7.346 18.68,-9.669 20.898,-10.21 l 1.018,-0.202 1.036,0.213 c 1.539,0.373 5.762,1.574 11.691,4.66 4.12,2.141 8.31,4.802 12.455,7.909 5.116,3.833 10.174,8.362 15.034,13.461 5.009,5.253 9.212,11.279 12.491,17.907 2.617,5.295 4.651,10.974 6.043,16.882 1.239,5.25 1.735,9.733 1.932,12.569 0.205,2.939 0.144,4.734 0.134,4.966"
             style="fill:#ffffff;fill-opacity:1;fill-rule:nonzero;stroke:none"
             id="path24" /></g><g
           id="g26"
           transform="translate(145.3552,138.2988)"><path
             d="m 0,0 c -0.96,-0.161 -1.021,-1.488 -1.7,-1.629 -0.484,-0.098 -1.268,0.906 -1.629,1.126 -0.789,0.476 -1.475,0.677 -2.076,1.407 -1.018,1.236 -2.444,3.095 -2.596,4.71 -0.084,0.78 -0.094,1.568 -0.149,2.341 -0.057,0.763 2.073,-0.103 2.371,-0.169 2.155,-0.426 3.771,-0.093 5.522,1.241 2.116,1.605 1.919,3.394 1.453,5.777 -0.702,3.514 -0.077,10.812 5.351,8.231 -0.039,1.343 -1.234,2.134 -2.479,2.219 -1.345,0.091 -2.446,-1.251 -3.104,-2.25 -0.219,-0.325 -0.219,-2.601 -1.079,-2.245 -0.882,0.367 -0.638,2.697 -0.489,3.441 0.541,2.786 3.446,3.903 5.566,5.33 1.969,1.332 3.521,4.338 0.488,5.644 C 5.281,33.426 5.274,32.655 3.853,31.478 2.448,30.319 0.414,30.364 -0.953,29.069 c -0.643,-0.606 -1.255,-1.68 -0.882,-2.593 0.131,-0.333 0.789,-1.255 0.549,-1.651 -0.631,-1.011 -2.469,2.95 -2.523,3.408 -0.575,4.556 5.368,6.005 8.132,7.999 1.578,1.145 2.943,2.142 3.102,4.23 0.112,1.386 -0.824,3.577 -2.415,3.757 -0.04,0.005 0.292,-2.12 0.309,-2.359 0.066,-0.919 -0.09,-1.788 -0.656,-2.544 -0.967,-1.292 -2.69,-1.639 -4.122,-2.17 -1.592,-0.588 -3.301,-0.862 -4.52,-2.128 -0.736,-0.759 -1.082,-1.817 -1.33,-2.824 -0.122,-0.48 -0.234,-4.375 -1.217,-2.01 -0.188,0.449 -0.044,2.694 0.412,3.958 0.73,1.947 2.303,3.329 3.689,4.773 1.76,1.809 3.642,3.356 5.053,5.486 0.938,1.415 1.814,3.139 1.809,4.877 -0.009,2.92 -3.689,5.814 -6.528,5.368 -2.293,-0.361 -4.012,-0.953 -5.43,-2.863 -0.646,-0.869 -1.407,-2.203 -1.393,-3.322 0.01,-1.217 0.552,-2.079 0.829,-3.24 0.409,-1.695 2.099,-4.911 -0.498,-5.864 0.638,-1.029 2.065,-0.339 2.819,0.218 2.829,2.093 2.258,4.744 1.565,7.762 -0.436,1.896 -0.677,3.783 1.371,4.783 1.826,0.887 3.685,0.292 4.677,-1.431 2.05,-3.567 -1.648,-7.509 -3.995,-9.798 -2.527,-2.456 -5.504,-4.773 -6.438,-8.292 -1.018,-3.857 1.261,-7.645 3.544,-10.529 0.489,-0.618 2.343,-2.84 2.797,-3.549 1.145,-1.805 2.543,-4.101 1.714,-6.283 -1.437,-3.747 -6.742,-3.099 -8.787,-0.468 -0.13,0.168 -0.244,0.351 -0.367,0.524 -0.007,0.01 -0.015,0.019 -0.022,0.029 -0.014,0.018 -0.026,0.04 -0.039,0.059 -0.28,0.399 -0.551,0.807 -0.808,1.229 -0.13,0.209 -0.252,0.42 -0.379,0.633 -0.074,0.13 -0.152,0.257 -0.225,0.388 -0.553,0.963 -1.055,1.916 -1.492,2.797 -0.884,1.685 -1.606,3.761 -2.701,5.278 -0.529,-1.206 -1.021,-2.304 -1.997,-3.222 -1.737,-1.638 1.318,-2.455 0.581,-3.665 -0.67,-1.1 -3.399,0.538 -3.875,1.138 -0.461,0.575 -0.903,1.266 -1.036,2.006 -0.045,0.236 0.084,1.519 -0.094,1.617 -0.805,-0.85 -1.802,-1.765 -2.486,-2.713 -1.194,-1.701 0.299,-2.296 1.681,-2.987 2.958,-1.482 5.651,-3.354 5.365,-6.926 -0.112,-1.358 -0.573,-3.404 -0.146,-4.733 0.249,-0.784 0.622,-0.937 1.04,-1.557 0.548,-0.806 -0.89,-0.271 -0.969,-0.271 -1.669,0.077 -1.356,-2.554 -1.372,-3.444 -0.028,-1.91 -1.097,-2.372 -2.511,-3.238 0.027,0.018 0.06,-0.066 0.06,-0.092 1.113,-1.969 3.759,3.168 3.996,3.709 0.298,0.754 0.92,0.518 1.232,-0.065 0.274,-0.525 -0.195,-0.585 0.4,-1.199 0.391,-0.417 0.929,-0.768 1.407,-1.082 2.092,-1.357 4.7,-2.144 6.444,-4.026 1.318,-1.446 1.112,-4.358 -0.171,-5.765 -1.674,-1.833 -3.652,-0.562 -5.711,-0.99 -0.759,-0.157 -0.906,-1.972 -0.502,-2.556 0.617,-0.918 1.691,-0.892 1.443,-2.378 -0.524,-3.105 1.924,0.891 2.745,1.506 0.597,0.469 1.585,1.054 2.35,0.609 0.705,-0.411 -0.976,-2.046 -1.266,-2.402 0.515,-0.308 0.995,-0.633 1.484,-1.001 0.123,0.512 0.222,1.001 0.61,1.351 0.018,0.014 0.03,0.029 0.05,0.042 0.057,0.047 0.099,0.1 0.169,0.14 0.796,0.447 0.677,-0.138 1.109,-0.493 0.263,-0.219 0.965,-0.336 1.302,-0.535 0.864,-0.487 0.004,1.377 0.014,1.456 0.148,1.512 3.2,2.224 2.488,3.877 -0.334,0.788 0.419,1.194 0.611,0.39 0.151,-0.643 1.154,-0.699 1.632,-0.53 -0.545,0.414 -1.086,0.8 -1.46,1.385 -0.412,0.644 -0.269,0.962 0.015,1.227 0.013,0.015 0.03,0.023 0.044,0.037 0.272,0.238 0.644,0.443 0.809,0.819 -0.354,0.548 -1.924,0.691 -0.436,1.283 0.995,0.398 2.163,-0.03 3.071,0.883 -0.879,0.217 -2.16,-0.911 -2.888,0.405 -0.335,0.59 -0.59,1.272 -1.049,1.771 0,0.012 -1.296,1.136 -0.519,1.101 1.03,-0.057 1.224,-1.206 2.179,-1.024 1.849,0.337 2.741,1.841 4.707,0.918 0.658,3.46 -5.269,-0.566 -5.856,2.961 -0.195,1.089 0.889,1.113 1.772,1.25 1.555,0.238 1.467,1.655 1.735,2.86 C 2.85,0.571 2.848,0.59 2.846,0.607 1.892,0.341 0.968,0.168 0,0"
             style="fill:#ffffff;fill-opacity:1;fill-rule:nonzero;stroke:none"
             id="path28" /></g><g
           id="g30"
           transform="translate(110.0412,120.7099)"><path
             d="M 0,0 C 1.074,1.025 0.468,1.03 -0.515,1.848 -1.164,2.407 -1.353,3.056 -0.614,3.593 0.033,4.055 1.42,2.837 2.224,2.931 2.902,3.018 4.012,3.291 4.241,4.055 4.323,4.336 4.743,6.957 5.402,5.935 5.941,5.107 5.407,4.319 6.594,3.647 7.31,3.252 8.75,2.744 9.55,3.078 8.576,3.781 7.069,4.564 8.316,5.768 c 0.423,0.4 0.036,1.348 0.288,1.891 0.371,0.744 1.225,0.833 0.717,1.527 -0.407,0.557 0.293,1.102 0.611,1.474 -0.175,0.694 0.211,1.079 -0.195,1.747 -0.599,1.006 -1.872,2.025 -1.418,3.399 1.119,3.352 4.059,5.327 7.571,5.859 0.189,0.03 1.228,-0.031 1.252,0.257 0.08,0.96 -0.471,0.328 -1.091,0.751 -1.938,1.321 0.95,2.082 -1.377,7.431 -1.585,-0.08 -2.698,-1.433 -3.663,-2.578 C 10.028,26.356 8.981,25.714 7.547,25.27 6.32,24.897 5.101,24.912 4.002,24.162 3.274,23.675 2.537,23.186 1.948,22.545 1.428,21.983 1.21,21.11 0.576,20.666 c -0.796,-0.57 -0.675,-0.389 -0.928,-1.312 -0.166,-0.639 -0.116,-1.278 -0.262,-1.917 -0.295,-1.42 -1.355,-2.38 -2.526,-3.106 1.29,-0.415 2.25,-0.368 3.114,0.838 0.314,0.444 0.546,0.955 0.794,1.446 0.219,0.391 0.681,0.117 0.58,-0.271 C 0.987,14.948 2.551,14.511 3.029,13.252 3.521,11.952 2.701,10.44 1.584,9.752 0.662,9.186 -0.417,9.335 -1.154,8.474 -1.798,7.728 -3.002,6.035 -4.158,7.002 -4.359,7.188 -4.91,7.465 -4.973,7.781 -5.058,8.274 -4.828,9.13 -5.394,9.454 -5.9,9.748 -7.663,7.924 -7.955,7.607 -7.342,7.114 -6.218,6.929 -6.012,6.041 -5.914,5.613 -8.297,6.774 -8.842,6.789 -8.995,6.794 -9.519,4.506 -9.514,4.11 -9.5,3.202 -7.354,3.984 -6.79,3.938 -6.75,3.078 -7.534,3.226 -8.117,2.978 -9.039,2.599 -7.651,1.452 -7.426,1.035 c 0.279,-0.544 0.061,-1.55 1.034,-1.129 0.801,0.34 0.654,1.417 1.344,1.92 0.548,0.409 1.651,0.981 2.353,0.934 0.99,-0.056 1.403,-0.744 0.595,-1.445 -1.024,-0.865 0.058,-0.996 0.349,-1.577 0.84,0.236 1.366,-0.623 1.722,-1.184 0.002,-0.001 0.003,0 0.006,0 C 0.46,-0.952 -0.519,-0.495 0,0"
             style="fill:#ffffff;fill-opacity:1;fill-rule:nonzero;stroke:none"
             id="path32" /></g><g
           id="g34"
           transform="translate(111.6955,150.7524)"><path
             d="M 0,0 C 0.349,0.084 2.311,0.969 2.47,0.328 2.597,-0.122 2.311,-0.688 3.05,-0.732 3.399,-0.756 4.151,-0.56 4.216,-0.117 4.287,0.426 5,-0.396 5.12,-0.445 5.687,-0.684 6.866,-0.412 7.177,0.16 6.065,0.4 5.459,1.259 6.007,2.404 6.482,3.397 6.688,3.085 6.08,4.141 5.715,4.775 5.527,5.471 5.295,6.159 4.031,3.923 2.699,2.617 0.026,2.133 -1.755,1.817 -5.831,3.364 -4.537,5.822 c 0.455,0.865 1.768,1.567 2.764,1.803 0.014,0.004 0.027,0.005 0.041,0.009 0.093,0.021 0.188,0.044 0.274,0.056 C -0.063,7.889 -1.681,6.433 -1.728,6.213 -2.006,4.787 0.316,5.974 0.686,6.316 1.108,6.705 0.956,7.458 0.87,7.952 0.739,8.698 0.695,9.482 0.519,10.217 0.198,10.241 -0.079,10.003 -0.326,9.834 -1.188,9.246 -2.097,8.729 -2.954,8.131 -4.093,7.335 -5.182,6.469 -6.219,5.543 -7.013,4.833 -7.779,4.09 -8.509,3.315 -9.41,2.357 -11.627,0.042 -13.219,1.009 c -0.428,0.255 -1.072,1.833 -1.364,1.833 -1.183,0.023 -0.546,-0.515 -1.038,-1.306 -0.245,-0.396 -0.728,-0.469 -1.095,-0.667 0.157,-0.469 1.163,-1.042 0.491,-1.405 -0.625,-0.32 -1.612,-0.293 -2.301,-0.459 0.246,-0.512 0.541,-1.046 0.246,-1.612 -0.201,-0.394 0.59,-0.691 0.784,-1.033 0.202,-0.407 0.054,-0.794 0.447,-1.027 0.583,-0.328 0.881,-0.878 0.787,-1.566 -0.211,-1.604 2.12,1.093 2.198,1.168 0.653,0.667 3.616,1.369 2.9,-0.426 -0.225,-0.581 -0.734,-1.002 -0.28,-1.658 0.84,0.066 1.081,0.108 1.83,-0.302 1.573,0.939 0.778,1.403 0.3,2.818 -0.167,0.504 1.87,0.481 2.35,1.108 1.079,1.414 1.102,-0.408 1.196,-1.358 0.592,0.047 0.836,0.754 0.946,1.222 0.246,0.979 1.664,-0.751 1.604,0.187 -0.037,0.562 0.06,1.119 0.407,1.583 0.393,0.536 0.836,-0.518 0.765,-0.831 C -2.193,-3.477 -0.101,-3.42 0.509,-3.63 0.529,-3.633 0.551,-3.636 0.571,-3.639 0.763,-3.022 -0.933,-0.223 0,0"
             style="fill:#ffffff;fill-opacity:1;fill-rule:nonzero;stroke:none"
             id="path36" /></g><g
           id="g38"
           transform="translate(107.5827,165.0693)"><path
             d="M 0,0 C 0.867,0.958 1.597,1.66 2.723,2.338 1.227,3.369 -1.307,4.808 -0.375,7.1 0.047,8.148 1.105,6.709 1.896,6.634 2.992,6.533 4.317,6.508 5.344,6.957 5.031,7.357 4.018,7.54 3.566,7.978 2.708,8.809 2.432,9.876 2.781,11.016 c 0.185,0.578 -2.783,2.39 -3.423,3.02 -1.411,1.381 -3.506,3.378 -3.211,5.557 0.082,0.564 0.175,1.493 0.637,1.886 0.234,0.195 0.421,2.465 0.306,2.695 -0.653,-0.323 -1.475,-0.62 -2.06,0.014 -0.718,0.766 -0.578,-0.766 -0.508,-0.974 0.302,-0.878 0.733,-1.652 0.812,-2.596 0.054,-0.833 -0.882,-1.772 -0.882,-0.608 -0.649,0.711 -1.108,1.423 -1.601,2.252 -0.188,0.315 0.124,2.628 -0.506,2.174 -0.384,-0.281 -0.931,0.028 -1.245,-0.297 -0.303,-0.295 -0.045,-0.889 -0.187,-1.269 -0.308,-0.903 -1.588,-0.121 -2.025,0.12 -0.244,-1.117 -1.653,-1.494 -0.672,-2.667 1.021,-1.212 2.645,-0.802 3.668,-2.073 1.091,-1.382 -0.29,-2.873 -1.641,-3.133 -0.326,-0.065 -0.665,-0.707 -0.395,-1.002 0.569,-0.638 0.367,-1.619 0.032,-2.289 0.632,-0.255 1.473,-0.049 2.018,0.298 0.745,0.467 0.337,1.097 1.248,1.104 0.128,0.005 0.667,-1.624 0.742,-1.784 0.498,-1.041 0.377,-1.865 -0.192,-2.856 -0.721,-1.233 0.728,-3.122 0.498,-4.494 -0.323,-1.88 -1.336,-1.667 -2.696,-0.742 -0.361,-0.286 0.898,-1.074 1.081,-1.123 1.349,-0.377 2.124,0.414 2.43,1.523 0.295,1.061 0.035,2.138 0.482,3.214 0.562,1.318 1.644,0.375 1.138,-0.117 C -4.626,5.599 -1.489,3.453 -1.854,1.91 -1.997,1.353 -0.497,0.033 0,0"
             style="fill:#ffffff;fill-opacity:1;fill-rule:nonzero;stroke:none"
             id="path40" /></g><g
           id="g42"
           transform="translate(125.5842,150.4575)"><path
             d="M 0,0 C 0.197,-1.128 0.632,-4.042 1.725,-4.361 2.315,-2.971 1.433,-0.545 0,0"
             style="fill:#ffffff;fill-opacity:1;fill-rule:nonzero;stroke:none"
             id="path44" /></g><g
           id="g46"
           transform="translate(130.4158,116.9131)"><path
             d="M 0,0 C 0.442,0.365 2.807,1.877 1.475,2.709 1.18,2.29 0.293,2.443 -0.126,1.943 -0.548,1.444 -0.457,0.445 0,0"
             style="fill:#ffffff;fill-opacity:1;fill-rule:nonzero;stroke:none"
             id="path48" /></g><g
           id="g50"
           transform="translate(95.719,153.4702)"><path
             d="M 0,0 C -0.569,0.929 -3.017,-0.164 -3.207,-1.037 -2.891,-1.037 0.916,-1.528 0,0"
             style="fill:#ffffff;fill-opacity:1;fill-rule:nonzero;stroke:none"
             id="path52" /></g><g
           id="g54"
           transform="translate(103.6872,189.4794)"><path
             d="M 0,0 C 0.417,0.101 1.011,0.642 0.726,1.11 0.333,1.756 -0.396,1.812 -1.096,1.915 -0.695,1.313 -1.147,-0.269 0,0"
             style="fill:#ffffff;fill-opacity:1;fill-rule:nonzero;stroke:none"
             id="path56" /></g><g
           id="g58"
           transform="translate(94.7825,145.1206)"><path
             d="m 0,0 c -0.15,0.744 -2.328,-0.749 -1.661,-1.98 0.017,-0.004 0.076,-0.071 0.048,-0.094 C -1.107,-1.592 0.178,-0.88 0,0"
             style="fill:#ffffff;fill-opacity:1;fill-rule:nonzero;stroke:none"
             id="path60" /></g><g
           id="g62"
           transform="translate(102.0393,129.1718)"><path
             d="M 0,0 C 2.659,1.372 -0.398,2.029 -1.283,0.663 -0.739,0.672 -0.342,0.387 0,0"
             style="fill:#ffffff;fill-opacity:1;fill-rule:nonzero;stroke:none"
             id="path64" /></g><g
           id="g66"
           transform="translate(101.2478,142.9482)"><path
             d="M 0,0 C -0.44,-0.983 -2.018,-0.712 -2.364,-1.376 -1.556,-3.104 1.428,0.012 0,0"
             style="fill:#ffffff;fill-opacity:1;fill-rule:nonzero;stroke:none"
             id="path68" /></g><g
           id="g70"
           transform="translate(95.635,187.7543)"><path
             d="M 0,0 C 0.252,1.662 -1.847,0.539 -2.231,-0.227 -1.66,-0.189 -0.141,-0.819 0,0"
             style="fill:#ffffff;fill-opacity:1;fill-rule:nonzero;stroke:none"
             id="path72" /></g><g
           id="g74"
           transform="translate(136.9465,117.3066)"><path
             d="M 0,0 C -1.029,0.379 -1.086,-1.606 -0.154,-2.016 0.01,-1.278 0.958,-0.354 0,0"
             style="fill:#ffffff;fill-opacity:1;fill-rule:nonzero;stroke:none"
             id="path76" /></g><g
           id="g78"
           transform="translate(99.8318,190.3906)"><path
             d="M 0,0 C 0.726,1.39 -1.341,1.519 -2.034,1.104 -1.737,0.936 -0.26,-0.489 0,0"
             style="fill:#ffffff;fill-opacity:1;fill-rule:nonzero;stroke:none"
             id="path80" /></g><g
           id="g82"
           transform="translate(130.6545,122.8525)"><path
             d="m 0,0 c -0.814,0.104 -1.47,-1.084 -1.278,-1.816 -0.029,0.09 0.054,0.022 0,0 C -0.29,-1.429 0.297,-1.241 0,0"
             style="fill:#ffffff;fill-opacity:1;fill-rule:nonzero;stroke:none"
             id="path84" /></g><g
           id="g86"
           transform="translate(109.3484,118.9922)"><path
             d="M 0,0 C 0.03,1.736 -1.447,0.032 -1.883,-0.307 -1.517,-0.471 -0.019,-0.844 0,0"
             style="fill:#ffffff;fill-opacity:1;fill-rule:nonzero;stroke:none"
             id="path88" /></g><g
           id="g90"
           transform="translate(98.6077,125.3076)"><path
             d="M 0,0 C 0.4,0.276 2.505,0.845 1.606,1.468 0.637,2.13 0.03,0.712 0,0"
             style="fill:#ffffff;fill-opacity:1;fill-rule:nonzero;stroke:none"
             id="path92" /></g><g
           id="g94"
           transform="translate(101.1262,120.3144)"><path
             d="M 0,0 C 0.12,0.485 0.518,0.724 0.918,0.932 0.27,2.942 -1.119,0.608 0,0"
             style="fill:#ffffff;fill-opacity:1;fill-rule:nonzero;stroke:none"
             id="path96" /></g><g
           id="g98"
           transform="translate(95.8738,178.5878)"><path
             d="M 0,0 C 0.386,-2.479 2.416,0.054 0,0"
             style="fill:#ffffff;fill-opacity:1;fill-rule:nonzero;stroke:none"
             id="path100" /></g><g
           id="g102"
           transform="translate(91.3884,148.0727)"><path
             d="M 0,0 C 0.342,0.18 2.311,0.049 1.327,1.107 0.831,0.938 -0.192,0.779 0,0"
             style="fill:#ffffff;fill-opacity:1;fill-rule:nonzero;stroke:none"
             id="path104" /></g><g
           id="g106"
           transform="translate(140.8889,117.2509)"><path
             d="M 0,0 C -0.981,0.849 -1.313,-0.164 -0.792,-0.96 -0.524,-0.64 -0.27,-0.314 0,0"
             style="fill:#ffffff;fill-opacity:1;fill-rule:nonzero;stroke:none"
             id="path108" /></g><g
           id="g110"
           transform="translate(118.5901,183.0683)"><path
             d="m 0,0 c -0.389,-0.073 -0.394,0 -0.551,-0.096 0.047,0.028 -0.023,-0.166 0,0 C -0.593,-0.387 -0.71,-1.023 -0.183,-0.955 -0.122,-0.637 -0.059,-0.316 0,0"
             style="fill:#ffffff;fill-opacity:1;fill-rule:nonzero;stroke:none"
             id="path112" /></g><g
           id="g114"
           transform="translate(119.6594,179.3364)"><path
             d="M 0,0 C 0.115,-0.131 0.255,-0.133 0.398,-0.007 0.311,0.083 0.211,0.171 0.115,0.26 0.073,0.171 0.035,0.092 0,0"
             style="fill:#ffffff;fill-opacity:1;fill-rule:nonzero;stroke:none"
             id="path116" /></g><g
           id="g118"
           transform="translate(123.5876,182.6445)"><path
             d="m 0,0 c -2.039,0.225 -3.378,-0.948 -5.101,-1.563 -0.969,-0.343 -1.975,-0.778 -3.02,-0.366 -0.477,0.192 -1.765,1.152 -2.2,1.159 0.22,-2.671 2.367,-3.324 4.537,-2.315 0.988,0.463 1.771,1.269 2.804,1.676 C -2.119,-1.067 -0.078,-0.981 0,0"
             style="fill:#ffffff;fill-opacity:1;fill-rule:nonzero;stroke:none"
             id="path120" /></g><g
           id="g122"
           transform="translate(122.2087,187.9863)"><path
             d="M 0,0 C -0.354,-0.326 -1.84,0.143 -1.919,0.937 -1.966,1.405 0.562,0.515 0,0 m 11.358,-8.237 c -0.295,1.055 0.159,2.266 -0.201,3.319 -0.113,0.325 -0.707,0.648 -0.693,0.988 0.009,0.459 0.891,0.761 1.152,1.083 -0.29,0.024 -0.592,0.015 -0.875,0.091 -0.269,0.072 -0.472,0.25 -0.627,0.48 -0.147,0.218 -0.251,0.47 -0.368,0.704 -0.11,0.219 -0.218,0.44 -0.317,0.663 C 9.396,-0.837 8.98,0.242 9.083,0.253 8.605,0.204 7.034,-0.501 7.022,0.372 7.02,0.77 8.9,0.859 9.328,1.149 9.92,1.55 10.068,2.067 9.342,2.416 8.633,2.757 7.795,2.813 7.039,2.606 6.258,2.393 5.893,1.906 5.357,1.345 5.328,1.314 5.295,1.283 5.254,1.27 4.969,1.176 4.911,1.808 4.942,1.972 5.001,2.284 5.24,2.491 5.486,2.665 c 0.26,0.183 0.555,0.307 0.855,0.41 0.294,0.1 0.615,0.132 0.887,0.29 C 6.641,4.214 5.349,4.637 4.356,4.637 3.228,4.693 2.101,4.433 1.028,4.108 0.09,3.825 -0.825,3.475 -1.75,3.158 -2.222,2.997 -2.929,2.437 -3.443,2.507 -3.532,2.521 -3.598,2.018 -3.683,1.581 -3.7,1.477 -3.721,1.379 -3.749,1.288 -3.784,1.152 -3.822,1.04 -3.867,0.988 -3.913,0.934 -3.971,0.881 -4.037,0.829 -4.063,0.807 -4.095,0.787 -4.125,0.767 -5.137,0.05 -7.71,-0.553 -6.32,-2.2 c 0.482,-0.567 0.22,-1.045 0.472,-1.641 0.338,-0.799 1.836,-0.555 2.44,-0.34 0.871,0.307 4.124,1.868 4.784,0.794 0.843,-1.379 1.11,-3.28 0.272,-4.787 -0.805,-1.421 -3.05,-0.871 -4.342,-1.339 0.069,-0.761 0.06,-2.334 1.013,-2.594 1.017,-0.286 2.526,0.96 3.137,1.641 0.148,0.175 1.412,1.973 1.648,1.175 0.271,-0.943 -1.229,-2.638 -1.798,-3.261 -0.688,-0.732 -1.926,-1.139 -2.907,-1.121 -1.209,0.027 -2.147,0.659 -3.292,0.477 -0.03,-0.004 -0.06,-0.017 -0.091,-0.023 -0.137,-0.026 -0.275,-0.057 -0.419,-0.11 -2.116,-0.766 -5.002,-0.55 -4.347,2.43 -1.453,-0.255 -2.076,-1.917 -1.287,-3.127 0.412,-0.628 1.187,-1.082 1.905,-1.222 0.03,-0.006 0.076,-0.007 0.132,-0.008 h 0.197 c 0.049,10e-4 0.102,0 0.155,-10e-4 0.02,-10e-4 0.038,0 0.058,-10e-4 0.435,-0.011 0.944,-0.084 0.879,-0.515 -0.089,-0.622 -1.671,-1.135 -2.226,-1.219 -1.702,-0.258 -2.867,-0.094 -4.347,0.669 -0.124,-1.615 1.711,-4.164 3.615,-3.888 0.529,0.072 1.047,0.217 1.575,0.297 0.33,0.05 0.703,0.127 0.989,-0.09 0.244,-0.186 0.564,-0.871 0.214,-1.093 -0.089,-0.057 -0.204,-0.053 -0.31,-0.048 -1.105,0.053 -2.183,0.138 -3.255,-0.208 -1.175,-0.379 -1.849,-1.15 -2.601,-2.07 -0.693,-0.856 -1.192,-1.371 -2.272,-1.709 -0.615,-0.19 -1.095,0.136 -1.418,0.66 -0.08,0.131 -0.787,1.618 -0.697,1.717 -1.35,-1.485 -0.08,-3.486 1.209,-4.502 0.646,-0.509 1.472,-0.973 2.313,-1.008 1.218,-0.05 2.445,0.619 3.49,1.169 0.701,0.368 1.369,0.796 2.038,1.217 0.462,0.29 1.298,1.031 1.862,1.003 0.243,-0.012 0.484,-0.193 0.51,-0.435 0.021,-0.193 -0.094,-0.381 -0.248,-0.5 -0.365,-0.282 -0.879,-0.325 -1.241,-0.62 -1.239,-1.006 -0.693,-2.224 -0.506,-3.574 0.337,-2.491 -3.661,-3.629 -3.839,-0.566 -2.636,-1.459 -1.645,-3.063 0.824,-3.821 1.805,-0.566 4.586,0.909 5.562,2.414 0.388,0.582 0.586,1.349 0.871,1.985 0.111,0.246 1.083,2.472 1.484,1.758 0.436,-0.779 -0.699,-1.826 -0.459,-2.674 0.36,-1.276 1.083,-3.007 2.321,-3.67 -0.261,0.14 0.134,1.912 0.223,2.171 0.273,0.795 0.829,1.438 1.433,2.005 1.334,1.257 2.175,2.708 2.839,4.403 0.356,0.892 0.766,-0.29 0.546,-0.864 -0.349,-0.833 -0.564,-1.816 -0.634,-2.72 -0.136,-1.919 1.175,-3.902 3.291,-3.64 -0.379,0.604 -0.857,0.974 -0.962,1.714 -0.176,1.303 0.817,1.828 1.481,2.748 0.539,0.746 1.058,1.697 1.009,2.645 -0.028,0.513 -0.244,0.994 -0.284,1.5 -0.032,0.413 0.05,2.713 0.834,2.458 0.02,-0.01 0.033,-0.028 0.044,-0.048 0.271,-0.293 -0.194,-1.864 -0.137,-2.339 0.128,-0.883 0.688,-2.018 1.459,-2.647 0.494,-0.404 1.94,-0.79 2.265,0.034 -0.259,0.139 -0.561,0.172 -0.839,0.27 -1.096,0.385 -1.311,1.722 -1.049,2.722 0.17,0.723 0.563,1.395 0.711,2.114 0.141,0.625 -1.143,1.505 -0.85,1.938 0.241,0.361 1.837,-1.306 2.575,-0.962 -0.48,1.03 -1.14,2.102 -0.838,3.293 0.299,1.178 0.546,2.374 0.78,3.568 0.13,0.733 0.718,2.479 -0.318,2.879 -0.345,0.134 -1.202,0.274 -1.387,0.667 -0.105,0.23 0.014,0.63 0.318,0.49 0.839,-0.398 1.939,-0.787 2.725,-0.019 0.269,0.274 -1.441,1.353 -1.624,1.962"
             style="fill:#ffffff;fill-opacity:1;fill-rule:nonzero;stroke:none"
             id="path124" /></g><g
           id="g126"
           transform="translate(249.5266,192.9453)"><path
             d="M 0,0 H 1.469 C 3.356,0 3.83,1.252 3.911,1.902 3.995,2.589 3.72,3.775 1.932,3.775 H 0.463 Z M -1.567,5.915 H 2.228 C 3.65,5.915 4.504,5.646 5.135,5.08 5.769,4.511 6.398,3.508 6.224,2.087 6.122,1.267 5.664,-0.017 4.67,-0.873 3.849,-1.572 3.127,-1.742 2.489,-1.892 L 5.292,-6.456 H 2.516 l -2.698,4.731 h -0.031 l -0.581,-4.731 h -2.29 z"
             style="fill:#1d1d1b;fill-opacity:1;fill-rule:nonzero;stroke:none"
             id="path128" /></g><g
           id="g130"
           transform="translate(260.5002,201.3012)"><path
             d="M 0,0 4.035,2.224 4.722,0.469 0.662,-1.539 Z M -1.637,-2.441 H 5.016 L 4.753,-4.581 H 0.392 L 0.019,-7.605 h 4.18 L 3.936,-9.746 h -4.179 l -0.359,-2.925 h 4.363 l -0.262,-2.141 h -6.655 z"
             style="fill:#1d1d1b;fill-opacity:1;fill-rule:nonzero;stroke:none"
             id="path132" /></g><g
           id="g134"
           transform="translate(272.6281,192.7919)"><path
             d="M 0,0 H 8.068 L 8.036,-0.267 c -0.434,-3.525 -3.86,-6.284 -7.321,-6.284 -3.542,0 -6.315,2.724 -5.86,6.436 0.45,3.642 3.882,6.433 7.374,6.433 3.107,0 5.106,-2.104 5.521,-3.878 H 5.01 C 4.577,3.261 3.556,4.18 1.915,4.18 c -2.788,0 -4.534,-2.372 -4.772,-4.312 -0.233,-1.89 0.896,-4.281 3.836,-4.281 1.522,0 3.042,0.836 3.937,2.275 h -5.179 z"
             style="fill:#1d1d1b;fill-opacity:1;fill-rule:nonzero;stroke:none"
             id="path136" /></g><g
           id="g138"
           transform="translate(284.2854,198.8603)"><path
             d="M 0,0 H 2.288 L 0.771,-12.371 h -2.289 z"
             style="fill:#1d1d1b;fill-opacity:1;fill-rule:nonzero;stroke:none"
             id="path140" /></g><g
           id="g142"
           transform="translate(294.7492,188.3793)"><path
             d="M 0,0 C 2.357,0 4.425,1.99 4.706,4.281 4.995,6.653 3.378,8.593 1.054,8.593 -1.271,8.593 -3.361,6.653 -3.653,4.281 -3.936,1.99 -2.357,0 0,0 m 1.318,10.731 c 3.51,0 6.125,-2.807 5.675,-6.467 C 6.56,0.72 3.299,-2.138 -0.263,-2.138 c -3.559,0 -6.118,2.858 -5.683,6.402 0.451,3.66 3.752,6.467 7.264,6.467"
             style="fill:#1d1d1b;fill-opacity:1;fill-rule:nonzero;stroke:none"
             id="path144" /></g><g
           id="g146"
           transform="translate(304.7697,198.8994)"><path
             d="M 0,0 H 2.563 L 6.509,-8.849 H 6.546 L 7.632,0 H 9.883 L 8.391,-12.166 H 5.873 L 1.88,-3.322 H 1.846 L 0.76,-12.166 h -2.254 z"
             style="fill:#1d1d1b;fill-opacity:1;fill-rule:nonzero;stroke:none"
             id="path148" /></g><g
           id="g150"
           transform="translate(188.7419,185.3081)"><path
             d="m 0,0 h 6.432 l 9.895,-22.187 H 16.41 L 19.135,0 h 5.65 l -3.748,-30.515 h -6.31 L 4.708,-8.333 H 4.626 L 1.902,-30.515 h -5.651 z"
             style="fill:#1d1d1b;fill-opacity:1;fill-rule:nonzero;stroke:none"
             id="path152" /></g><g
           id="g154"
           transform="translate(234.6477,166.351)"><path
             d="m 0,0 c 0.519,4.233 -2.361,7.374 -5.84,7.374 -2.892,0 -7.13,-2.474 -7.728,-7.331 -0.538,-4.397 2.421,-7.245 5.939,-7.245 4.061,0 7.176,3.518 7.629,7.202 m -19.143,0.043 c 0.866,7.038 7.269,12.442 13.93,12.442 C 1.363,12.485 6.46,7.25 5.585,0.129 4.65,-7.493 -1.806,-12.31 -8.256,-12.31 c -6.913,0 -11.702,5.695 -10.887,12.353"
             style="fill:#1d1d1b;fill-opacity:1;fill-rule:nonzero;stroke:none"
             id="path156" /></g><g
           id="g158"
           transform="translate(265.9045,178.0419)"><path
             d="m 0,0 -2.854,-23.249 h -5.107 l 0.289,2.347 h -0.085 c -1.076,-1.257 -2.812,-3.099 -6.371,-3.099 -4.231,0 -6.363,2.093 -7.34,3.685 -1.415,2.471 -0.952,6.24 -0.716,8.167 L -20.691,0 h 5.571 l -1.455,-11.855 c -0.232,-1.886 -0.865,-7.038 3.995,-7.038 3.518,0 5.098,3.311 5.55,6.996 L -5.568,0 Z"
             style="fill:#1d1d1b;fill-opacity:1;fill-rule:nonzero;stroke:none"
             id="path160" /></g><g
           id="g162"
           transform="translate(268.7922,178.0419)"><path
             d="M 0,0 H 6.028 L 9.747,-15.416 H 9.87 L 17.039,0 h 6.116 L 10.879,-23.249 H 6.524 Z"
             style="fill:#1d1d1b;fill-opacity:1;fill-rule:nonzero;stroke:none"
             id="path164" /></g><g
           id="g166"
           transform="translate(310.3781,168.4067)"><path
             d="M 0,0 C -0.172,3.726 -2.85,5.442 -5.617,5.442 -7.668,5.442 -11.283,4.314 -12.86,0 Z m -13.242,-4.482 c 0.064,-1.508 1.844,-4.775 5.821,-4.775 2.472,0 4.443,1.048 5.729,2.976 h 5.865 c -1.857,-4.189 -6.776,-8.085 -12.222,-8.085 -6.913,0 -11.594,5.53 -10.76,12.31 0.806,6.578 6.616,12.612 13.779,12.612 7.371,0 11.243,-6.369 10.523,-12.233 -0.136,-1.09 -0.422,-2.052 -0.681,-2.805 z"
             style="fill:#1d1d1b;fill-opacity:1;fill-rule:nonzero;stroke:none"
             id="path168" /></g><g
           id="g170"
           transform="translate(322.1467,185.7915)"><path
             d="M 0,0 H 5.57 L 1.766,-30.999 h -5.572 z"
             style="fill:#1d1d1b;fill-opacity:1;fill-rule:nonzero;stroke:none"
             id="path172" /></g><g
           id="g174"
           transform="translate(332.6184,185.7915)"><path
             d="M 0,0 H 5.57 L 1.765,-30.999 h -5.571 z"
             style="fill:#1d1d1b;fill-opacity:1;fill-rule:nonzero;stroke:none"
             id="path176" /></g><g
           id="g178"
           transform="translate(358.549,168.4067)"><path
             d="m 0,0 c -0.169,3.726 -2.853,5.442 -5.615,5.442 -2.051,0 -5.67,-1.128 -7.245,-5.442 z m -13.244,-4.482 c 0.069,-1.508 1.844,-4.775 5.825,-4.775 2.47,0 4.442,1.048 5.729,2.976 h 5.863 c -1.857,-4.189 -6.774,-8.085 -12.22,-8.085 -6.912,0 -11.596,5.53 -10.764,12.31 0.808,6.578 6.619,12.612 13.783,12.612 7.371,0 11.24,-6.369 10.52,-12.233 -0.137,-1.09 -0.422,-2.052 -0.68,-2.805 z"
             style="fill:#1d1d1b;fill-opacity:1;fill-rule:nonzero;stroke:none"
             id="path180" /></g><g
           id="g182"
           transform="translate(327.7649,143.7895)"><path
             d="m 0,0 c -0.225,-1.851 -1.905,-3.346 -3.751,-3.346 -1.847,0 -3.16,1.495 -2.935,3.346 0.228,1.844 1.907,3.338 3.754,3.338 C -1.087,3.338 0.228,1.844 0,0"
             style="fill:#1d1d1b;fill-opacity:1;fill-rule:nonzero;stroke:none"
             id="path184" /></g><g
           id="g186"
           transform="translate(198.0398,127.4297)"><path
             d="M 0,0 H 6.834 L 4.669,9.879 H 4.588 Z m 3.531,18.278 h 4.301 l 8.512,-32.202 H 10.273 L 8.118,-5.616 H -2.54 l -4.199,-8.308 h -6.072 z"
             style="fill:#1d1d1b;fill-opacity:1;fill-rule:nonzero;stroke:none"
             id="path188" /></g><g
           id="g190"
           transform="translate(228.8127,118.0302)"><path
             d="M 0,0 C 3.779,0 6.883,3.655 7.358,7.525 7.822,11.313 5.762,15.143 1.819,15.143 -2,15.143 -5.131,11.62 -5.616,7.655 -6.213,2.784 -3.339,0 0,0 M 13.911,19.626 9.469,-16.062 H 4.121 l 1.761,13.845 c -2.994,-3.089 -6.534,-3.089 -7.177,-3.089 -6.758,0 -10.471,6.439 -9.652,13.093 0.847,6.923 6.742,12.666 12.855,12.666 4.545,0 6.029,-2.655 6.641,-3.875 h 0.08 l 0.374,3.048 z"
             style="fill:#1d1d1b;fill-opacity:1;fill-rule:nonzero;stroke:none"
             id="path192" /></g><g
           id="g194"
           transform="translate(266.886,137.6562)"><path
             d="m 0,0 -2.965,-24.15 h -4.903 l 0.301,2.439 h -0.08 c -1.045,-1.306 -2.732,-3.221 -6.148,-3.221 -4.061,0 -6.086,2.174 -7.009,3.828 -1.335,2.565 -0.852,6.482 -0.608,8.483 L -19.862,0 h 5.35 l -1.513,-12.316 c -0.242,-1.96 -0.898,-7.31 3.768,-7.31 3.377,0 4.926,3.439 5.397,7.266 L -5.345,0 Z"
             style="fill:#1d1d1b;fill-opacity:1;fill-rule:nonzero;stroke:none"
             id="path196" /></g><g
           id="g198"
           transform="translate(282.4123,132.5195)"><path
             d="m 0,0 h -2.612 l 0.628,5.137 h 2.615 l 0.988,8.051 H 6.965 L 5.977,5.137 H 9.192 L 8.561,0 H 5.348 L 3.013,-19.014 h -5.345 z"
             style="fill:#1d1d1b;fill-opacity:1;fill-rule:nonzero;stroke:none"
             id="path200" /></g><g
           id="g202"
           transform="translate(304.5666,133.1728)"><path
             d="m 0,0 c -4.384,0 -7.139,-4.091 -7.582,-7.704 -0.503,-4.089 1.9,-7.439 5.722,-7.439 3.699,0 6.901,3.133 7.45,7.613 C 6.203,-2.521 3.181,0 0,0 M 9.168,-19.667 H 4.26 l 0.368,3.005 c -1.957,-2.177 -5.451,-3.786 -8.268,-3.786 -5.748,0 -10.249,4.958 -9.263,13.008 0.91,7.395 6.555,12.751 12.748,12.751 4.548,0 6.806,-3.527 6.924,-3.875 h 0.083 l 0.372,3.047 h 4.909 z"
             style="fill:#1d1d1b;fill-opacity:1;fill-rule:nonzero;stroke:none"
             id="path204" /></g><g
           id="g206"
           transform="translate(331.2121,137.6562)"><path
             d="M 0,0 H 4.946 L 4.692,-2.089 c 0.996,0.915 3.091,2.916 6.469,2.916 1.931,0 4.755,-0.914 6.306,-3.35 1.722,-2.654 1.227,-6.704 0.996,-8.575 L 16.861,-24.15 h -5.347 l 1.461,11.921 c 0.249,2.002 0.951,7.746 -3.552,7.746 -0.963,0 -2.758,-0.522 -3.92,-2.132 -1.149,-1.478 -1.46,-4 -1.708,-6.049 L 2.385,-24.15 h -5.348 z"
             style="fill:#1d1d1b;fill-opacity:1;fill-rule:nonzero;stroke:none"
             id="path208" /></g><g
           id="g210"
           transform="translate(371.4026,127.6465)"><path
             d="m 0,0 c -0.127,3.873 -2.681,5.659 -5.335,5.659 -1.973,0 -5.454,-1.176 -7.01,-5.659 z m -12.758,-4.656 c 0.05,-1.566 1.724,-4.96 5.546,-4.96 2.373,0 4.276,1.087 5.525,3.089 h 5.632 c -1.819,-4.351 -6.582,-8.395 -11.806,-8.395 -6.637,0 -11.078,5.744 -10.215,12.79 0.84,6.831 6.472,13.1 13.348,13.1 7.082,0 10.733,-6.615 9.984,-12.711 -0.137,-1.129 -0.422,-2.129 -0.68,-2.913 z"
             style="fill:#1d1d1b;fill-opacity:1;fill-rule:nonzero;stroke:none"
             id="path212" /></g><g
           id="g214"
           transform="translate(268.6994,113.5185)"><path
             d="M 0,0 H 5.347 L 8.311,24.15 H 2.964 Z"
             style="fill:#1d1d1b;fill-opacity:1;fill-rule:nonzero;stroke:none"
             id="path216" /></g><g
           id="g218"
           transform="translate(278.7805,144.1201)"><path
             d="m 0,0 c -0.241,-1.957 -2.019,-3.536 -3.969,-3.536 -1.952,0 -3.34,1.579 -3.101,3.536 0.239,1.952 2.018,3.533 3.967,3.533 C -1.15,3.533 0.24,1.952 0,0"
             style="fill:#1d1d1b;fill-opacity:1;fill-rule:nonzero;stroke:none"
             id="path220" /></g><g
           id="g222"
           transform="translate(318.0598,113.5185)"><path
             d="M 0,0 H 5.352 L 8.314,24.15 H 2.967 Z"
             style="fill:#1d1d1b;fill-opacity:1;fill-rule:nonzero;stroke:none"
             id="path224" /></g><g
           id="g226"
           transform="translate(367.5373,166.4731)"><path
             d="m 0,0 c 0.146,1.174 1.231,2.135 2.415,2.135 h 6.778 c 1.183,0 2.033,-0.961 1.888,-2.135 L 11.028,-0.429 C 10.884,-1.604 9.797,-2.565 8.613,-2.565 H 1.836 c -1.184,0 -2.033,0.961 -1.889,2.136 z"
             style="fill:#1d1d1b;fill-opacity:1;fill-rule:nonzero;stroke:none"
             id="path228" /></g><g
           id="g230"
           transform="translate(127.2898,145.2685)"><path
             d="m 0,0 c -0.006,0.015 -0.01,0.025 -0.016,0.036 -0.08,0.149 -0.164,0.222 -0.205,0.24 -0.451,0.328 -1.303,0.099 -1.384,-0.625 -0.068,-0.695 0.476,-1.154 1.131,-1.211 0.354,-0.036 0.462,0.291 0.501,0.635 l 0.001,-0.003 c 0.045,0.262 0.05,0.457 0.039,0.608 C 0.068,-0.312 0.033,-0.071 0,0"
             style="fill:#ffffff;fill-opacity:1;fill-rule:nonzero;stroke:none"
             id="path232" /></g></g></g></g></svg>
