<?xml version="1.0" encoding="UTF-8" standalone="no"?>
<!-- Created with Inkscape (http://www.inkscape.org/) -->

<svg
   version="1.1"
   id="svg2"
   xml:space="preserve"
   width="257.24075"
   height="349.5676"
   viewBox="0 0 257.24075 349.5676"
   sodipodi:docname="ff2d93e9c0e286777608c45355a9473c.ai"
   xmlns:inkscape="http://www.inkscape.org/namespaces/inkscape"
   xmlns:sodipodi="http://sodipodi.sourceforge.net/DTD/sodipodi-0.dtd"
   xmlns="http://www.w3.org/2000/svg"
   xmlns:svg="http://www.w3.org/2000/svg"><defs
     id="defs6"><clipPath
       clipPathUnits="userSpaceOnUse"
       id="clipPath16"><path
         d="M 0,425.197 H 283.465 V 0 H 0 Z"
         id="path14" /></clipPath></defs><sodipodi:namedview
     id="namedview4"
     pagecolor="#ffffff"
     bordercolor="#666666"
     borderopacity="1.0"
     inkscape:pageshadow="2"
     inkscape:pageopacity="0.0"
     inkscape:pagecheckerboard="0" /><g
     id="g8"
     inkscape:groupmode="layer"
     inkscape:label="ff2d93e9c0e286777608c45355a9473c"
     transform="matrix(1.3333333,0,0,-1.3333333,-55.542132,467.60719)"><g
       id="g10"><g
         id="g12"
         clip-path="url(#clipPath16)"><g
           id="g18"
           transform="translate(105.9521,179.1744)"><path
             d="M 0,0 H 1.463 C 3.345,0 3.817,1.247 3.897,1.895 3.98,2.579 3.707,3.762 1.925,3.762 H 0.461 Z M -1.561,5.894 H 2.22 C 3.637,5.894 4.488,5.626 5.116,5.062 5.748,4.495 6.375,3.495 6.201,2.08 6.1,1.263 5.644,-0.017 4.654,-0.869 3.835,-1.565 3.116,-1.735 2.48,-1.886 L 5.272,-6.432 H 2.506 l -2.687,4.714 h -0.031 l -0.579,-4.714 h -2.281 z"
             style="fill:#1d1d1b;fill-opacity:1;fill-rule:nonzero;stroke:none"
             id="path20" /></g><g
           id="g22"
           transform="translate(116.8862,187.4996)"><path
             d="M 0,0 4.02,2.216 4.704,0.468 0.66,-1.533 Z M -1.631,-2.432 H 4.997 L 4.735,-4.563 H 0.39 L 0.019,-7.577 H 4.184 L 3.921,-9.71 H -0.242 L -0.6,-12.625 h 4.347 l -0.262,-2.132 h -6.63 z"
             style="fill:#1d1d1b;fill-opacity:1;fill-rule:nonzero;stroke:none"
             id="path24" /></g><g
           id="g26"
           transform="translate(128.9692,179.022)"><path
             d="M 0,0 H 8.039 L 8.006,-0.267 c -0.432,-3.512 -3.846,-6.26 -7.294,-6.26 -3.529,0 -6.291,2.714 -5.837,6.412 0.447,3.629 3.867,6.41 7.346,6.41 3.096,0 5.087,-2.097 5.501,-3.864 H 4.991 c -0.43,0.818 -1.448,1.733 -3.083,1.733 -2.778,0 -4.518,-2.363 -4.754,-4.296 -0.233,-1.884 0.892,-4.265 3.821,-4.265 1.517,0 3.032,0.834 3.923,2.266 h -5.159 z"
             style="fill:#1d1d1b;fill-opacity:1;fill-rule:nonzero;stroke:none"
             id="path28" /></g><g
           id="g30"
           transform="translate(140.584,185.0679)"><path
             d="M 0,0 H 2.28 L 0.768,-12.325 h -2.28 z"
             style="fill:#1d1d1b;fill-opacity:1;fill-rule:nonzero;stroke:none"
             id="path32" /></g><g
           id="g34"
           transform="translate(151.0088,174.6246)"><path
             d="M 0,0 C 2.35,0 4.409,1.983 4.689,4.266 4.978,6.63 3.366,8.562 1.051,8.562 -1.266,8.562 -3.349,6.63 -3.64,4.266 -3.92,1.983 -2.349,0 0,0 m 1.314,10.692 c 3.497,0 6.103,-2.796 5.654,-6.443 -0.432,-3.531 -3.681,-6.379 -7.23,-6.379 -3.546,0 -6.094,2.848 -5.662,6.379 0.449,3.647 3.738,6.443 7.238,6.443"
             style="fill:#1d1d1b;fill-opacity:1;fill-rule:nonzero;stroke:none"
             id="path36" /></g><g
           id="g38"
           transform="translate(160.9932,185.106)"><path
             d="M 0,0 H 2.554 L 6.485,-8.816 H 6.521 L 7.604,0 H 9.847 L 8.36,-12.121 H 5.852 l -3.98,8.812 H 1.839 l -1.082,-8.812 h -2.245 z"
             style="fill:#1d1d1b;fill-opacity:1;fill-rule:nonzero;stroke:none"
             id="path40" /></g><g
           id="g42"
           transform="translate(45.3906,171.565)"><path
             d="m 0,0 h 6.408 l 9.86,-22.105 H 16.35 L 19.065,0 h 5.629 L 20.96,-30.403 h -6.288 l -9.981,22.1 H 4.61 l -2.714,-22.1 h -5.63 z"
             style="fill:#1d1d1b;fill-opacity:1;fill-rule:nonzero;stroke:none"
             id="path44" /></g><g
           id="g46"
           transform="translate(91.1284,152.6773)"><path
             d="m 0,0 c 0.517,4.218 -2.353,7.348 -5.819,7.348 -2.882,0 -7.104,-2.465 -7.7,-7.304 -0.536,-4.382 2.413,-7.219 5.918,-7.219 4.046,0 7.149,3.505 7.601,7.175 m -19.072,0.044 c 0.862,7.011 7.241,12.395 13.878,12.395 6.552,0 11.63,-5.215 10.758,-12.31 -0.931,-7.594 -7.363,-12.394 -13.79,-12.394 -6.887,0 -11.659,5.675 -10.846,12.309"
             style="fill:#1d1d1b;fill-opacity:1;fill-rule:nonzero;stroke:none"
             id="path48" /></g><g
           id="g50"
           transform="translate(122.27,164.3258)"><path
             d="m 0,0 -2.843,-23.164 h -5.088 l 0.287,2.339 h -0.085 c -1.072,-1.253 -2.801,-3.088 -6.347,-3.088 -4.216,0 -6.34,2.085 -7.313,3.671 -1.409,2.463 -0.948,6.218 -0.713,8.138 L -20.616,0 h 5.552 l -1.45,-11.813 c -0.231,-1.878 -0.862,-7.01 3.98,-7.01 3.506,0 5.079,3.298 5.53,6.969 L -5.547,0 Z"
             style="fill:#1d1d1b;fill-opacity:1;fill-rule:nonzero;stroke:none"
             id="path52" /></g><g
           id="g54"
           transform="translate(125.1475,164.3258)"><path
             d="M 0,0 H 6.006 L 9.711,-15.359 H 9.834 L 16.977,0 H 23.07 L 10.839,-23.164 H 6.501 Z"
             style="fill:#1d1d1b;fill-opacity:1;fill-rule:nonzero;stroke:none"
             id="path56" /></g><g
           id="g58"
           transform="translate(166.5811,154.7262)"><path
             d="m 0,0 c -0.171,3.712 -2.84,5.422 -5.597,5.422 -2.044,0 -5.645,-1.124 -7.216,-5.422 z m -13.194,-4.467 c 0.065,-1.502 1.838,-4.757 5.8,-4.757 2.462,0 4.427,1.044 5.707,2.966 h 5.844 c -1.849,-4.174 -6.75,-8.055 -12.177,-8.055 -6.887,0 -11.55,5.508 -10.72,12.264 0.803,6.554 6.592,12.566 13.728,12.566 7.344,0 11.201,-6.345 10.485,-12.188 -0.135,-1.086 -0.42,-2.045 -0.678,-2.796 z"
             style="fill:#1d1d1b;fill-opacity:1;fill-rule:nonzero;stroke:none"
             id="path60" /></g><g
           id="g62"
           transform="translate(178.3066,172.0465)"><path
             d="M 0,0 H 5.55 L 1.759,-30.885 h -5.551 z"
             style="fill:#1d1d1b;fill-opacity:1;fill-rule:nonzero;stroke:none"
             id="path64" /></g><g
           id="g66"
           transform="translate(188.7393,172.0465)"><path
             d="M 0,0 H 5.551 L 1.759,-30.885 h -5.551 z"
             style="fill:#1d1d1b;fill-opacity:1;fill-rule:nonzero;stroke:none"
             id="path68" /></g><g
           id="g70"
           transform="translate(214.5752,154.7262)"><path
             d="m 0,0 c -0.168,3.712 -2.843,5.422 -5.595,5.422 -2.043,0 -5.649,-1.124 -7.218,-5.422 z m -13.196,-4.467 c 0.069,-1.502 1.838,-4.757 5.804,-4.757 2.461,0 4.426,1.044 5.707,2.966 h 5.842 c -1.849,-4.174 -6.748,-8.055 -12.175,-8.055 -6.886,0 -11.553,5.508 -10.723,12.264 0.804,6.554 6.593,12.566 13.731,12.566 7.344,0 11.199,-6.345 10.483,-12.188 C 5.336,-2.757 5.052,-3.716 4.795,-4.467 Z"
             style="fill:#1d1d1b;fill-opacity:1;fill-rule:nonzero;stroke:none"
             id="path72" /></g><g
           id="g74"
           transform="translate(183.9043,130.1988)"><path
             d="m 0,0 c -0.225,-1.844 -1.898,-3.334 -3.738,-3.334 -1.839,0 -3.148,1.49 -2.924,3.334 0.226,1.837 1.9,3.326 3.741,3.326 C -1.083,3.326 0.227,1.837 0,0"
             style="fill:#1d1d1b;fill-opacity:1;fill-rule:nonzero;stroke:none"
             id="path76" /></g><g
           id="g78"
           transform="translate(54.6548,113.899)"><path
             d="M 0,0 H 6.809 L 4.652,9.843 H 4.571 Z m 3.518,18.211 h 4.285 l 8.481,-32.084 H 10.235 L 8.088,-5.596 H -2.531 l -4.183,-8.277 h -6.05 z"
             style="fill:#1d1d1b;fill-opacity:1;fill-rule:nonzero;stroke:none"
             id="path80" /></g><g
           id="g82"
           transform="translate(85.3145,104.5347)"><path
             d="m 0,0 c 3.766,0 6.858,3.642 7.332,7.497 0.462,3.774 -1.591,7.59 -5.519,7.59 -3.806,0 -6.925,-3.511 -7.409,-7.46 C -6.19,2.773 -3.326,0 0,0 M 13.86,19.553 9.434,-16.005 H 4.106 L 5.86,-2.209 c -2.983,-3.077 -6.51,-3.077 -7.151,-3.077 -6.732,0 -10.431,6.414 -9.616,13.045 0.845,6.896 6.718,12.619 12.808,12.619 4.529,0 6.008,-2.646 6.617,-3.861 h 0.079 l 0.373,3.036 z"
             style="fill:#1d1d1b;fill-opacity:1;fill-rule:nonzero;stroke:none"
             id="path84" /></g><g
           id="g86"
           transform="translate(123.2485,124.0875)"><path
             d="M 0,0 -2.954,-24.062 H -7.84 l 0.3,2.431 h -0.08 c -1.041,-1.301 -2.721,-3.208 -6.124,-3.208 -4.048,0 -6.065,2.165 -6.984,3.814 -1.33,2.555 -0.849,6.457 -0.606,8.451 L -19.79,0 h 5.331 l -1.508,-12.271 c -0.24,-1.953 -0.894,-7.282 3.754,-7.282 3.365,0 4.908,3.427 5.378,7.239 L -5.325,0 Z"
             style="fill:#1d1d1b;fill-opacity:1;fill-rule:nonzero;stroke:none"
             id="path88" /></g><g
           id="g90"
           transform="translate(138.7178,118.9703)"><path
             d="m 0,0 h -2.603 l 0.625,5.117 H 0.628 L 1.613,13.14 H 6.939 L 5.954,5.117 H 9.158 L 8.529,0 H 5.328 L 3.001,-18.944 h -5.324 z"
             style="fill:#1d1d1b;fill-opacity:1;fill-rule:nonzero;stroke:none"
             id="path92" /></g><g
           id="g94"
           transform="translate(160.791,119.6217)"><path
             d="m 0,0 c -4.368,0 -7.112,-4.077 -7.555,-7.677 -0.501,-4.073 1.894,-7.41 5.701,-7.41 3.686,0 6.876,3.12 7.423,7.584 C 6.18,-2.513 3.168,0 0,0 M 9.134,-19.596 H 4.243 l 0.367,2.994 c -1.949,-2.169 -5.43,-3.771 -8.236,-3.771 -5.728,0 -10.212,4.939 -9.23,12.959 0.907,7.369 6.531,12.705 12.701,12.705 4.531,0 6.782,-3.514 6.899,-3.861 h 0.082 l 0.371,3.036 h 4.891 z"
             style="fill:#1d1d1b;fill-opacity:1;fill-rule:nonzero;stroke:none"
             id="path96" /></g><g
           id="g98"
           transform="translate(187.3389,124.0875)"><path
             d="M 0,0 H 4.928 L 4.674,-2.08 c 0.994,0.911 3.081,2.905 6.446,2.905 1.923,0 4.737,-0.911 6.282,-3.339 1.716,-2.643 1.224,-6.678 0.994,-8.543 l -1.597,-13.005 h -5.327 l 1.455,11.879 c 0.248,1.995 0.948,7.717 -3.539,7.717 -0.96,0 -2.747,-0.519 -3.906,-2.124 -1.145,-1.473 -1.455,-3.985 -1.701,-6.027 L 2.375,-24.062 h -5.327 z"
             style="fill:#1d1d1b;fill-opacity:1;fill-rule:nonzero;stroke:none"
             id="path100" /></g><g
           id="g102"
           transform="translate(227.3809,114.1158)"><path
             d="M 0,0 C -0.126,3.858 -2.67,5.637 -5.314,5.637 -7.28,5.637 -10.749,4.466 -12.299,0 Z m -12.71,-4.64 c 0.049,-1.559 1.717,-4.941 5.525,-4.941 2.365,0 4.261,1.083 5.504,3.077 h 5.613 c -1.814,-4.335 -6.558,-8.363 -11.763,-8.363 -6.613,0 -11.039,5.722 -10.178,12.743 0.836,6.805 6.448,13.051 13.299,13.051 7.055,0 10.693,-6.591 9.947,-12.664 C 5.102,-2.862 4.817,-3.858 4.56,-4.64 Z"
             style="fill:#1d1d1b;fill-opacity:1;fill-rule:nonzero;stroke:none"
             id="path104" /></g><g
           id="g106"
           transform="translate(125.0547,100.0387)"><path
             d="M 0,0 H 5.327 L 8.281,24.062 H 2.953 Z"
             style="fill:#1d1d1b;fill-opacity:1;fill-rule:nonzero;stroke:none"
             id="path108" /></g><g
           id="g110"
           transform="translate(135.0991,130.5279)"><path
             d="m 0,0 c -0.241,-1.949 -2.011,-3.522 -3.954,-3.522 -1.945,0 -3.328,1.573 -3.09,3.522 0.238,1.945 2.01,3.521 3.953,3.521 C -1.146,3.521 0.24,1.945 0,0"
             style="fill:#1d1d1b;fill-opacity:1;fill-rule:nonzero;stroke:none"
             id="path112" /></g><g
           id="g114"
           transform="translate(174.2344,100.0387)"><path
             d="M 0,0 H 5.332 L 8.283,24.062 H 2.956 Z"
             style="fill:#1d1d1b;fill-opacity:1;fill-rule:nonzero;stroke:none"
             id="path116" /></g><g
           id="g118"
           transform="translate(223.5312,152.7994)"><path
             d="M 0,0 C 0.144,1.17 1.227,2.127 2.405,2.127 H 9.158 C 10.338,2.127 11.184,1.17 11.04,0 L 10.987,-0.428 C 10.843,-1.598 9.76,-2.556 8.581,-2.556 H 1.828 c -1.179,0 -2.025,0.958 -1.881,2.128 z"
             style="fill:#1d1d1b;fill-opacity:1;fill-rule:nonzero;stroke:none"
             id="path120" /></g><g
           id="g122"
           transform="translate(202.7354,277.0074)"><path
             d="m 0,0 v 66.824 c 0,3.791 -3.084,6.874 -6.875,6.874 h -114.826 c -3.783,0 -6.861,-3.077 -6.861,-6.861 V 0.006 c -0.02,-0.598 -0.056,-2.458 0.141,-5.286 0.209,-2.972 0.728,-7.66 2.017,-13.131 1.231,-5.216 2.95,-10.29 5.113,-15.086 0.39,-0.859 0.789,-1.711 1.201,-2.546 1.18,-2.385 2.505,-4.746 3.943,-7.019 2.668,-4.227 5.748,-8.181 9.149,-11.749 0.673,-0.707 1.342,-1.393 2.01,-2.067 2.146,-2.161 4.337,-4.225 6.514,-6.135 1.928,-1.695 3.916,-3.332 5.911,-4.868 1.49,-1.144 2.989,-2.236 4.458,-3.251 11.149,-7.68 19.661,-10.144 22.003,-10.716 l 1.841,-0.369 1.795,0.37 c 1.661,0.403 6.203,1.693 12.463,4.952 4.291,2.228 8.648,4.993 12.947,8.216 5.281,3.956 10.492,8.621 15.488,13.865 5.251,5.506 9.656,11.82 13.096,18.771 2.736,5.533 4.86,11.466 6.314,17.632 1.289,5.472 1.808,10.16 2.017,13.133 C 0.06,-2.382 0.019,-0.529 0,0"
             style="fill:#c31632;fill-opacity:1;fill-rule:nonzero;stroke:none"
             id="path124" /></g><g
           id="g126"
           transform="translate(117.2505,229.1192)"><path
             d="m 0,0 c -1.22,4.229 -2.481,8.601 -2.412,13.25 0.046,3.073 1.007,5.97 1.936,8.772 0.909,2.739 1.85,5.571 1.957,8.599 0.156,4.562 -0.922,7.816 -1.965,10.962 -0.833,2.514 -1.695,5.115 -1.928,8.396 -0.332,4.589 0.939,9.041 2.17,13.346 1.153,4.036 2.243,7.848 2.111,11.75 -0.102,2.918 -1.135,5.719 -2.133,8.429 -0.944,2.561 -1.92,5.21 -2.149,8.008 -0.439,5.267 0.93,9.467 2.253,13.529 0.985,3.021 1.916,5.881 2.134,9.094 h 73.239 c 1.579,0 2.863,-1.284 2.863,-2.861 l 0.001,-63.58 C 78.088,47.408 78.336,40.591 76.115,31.176 74.791,25.558 72.86,20.162 70.375,15.139 67.278,8.875 63.305,3.177 58.568,-1.794 53.86,-6.733 48.967,-11.116 44.025,-14.82 c -3.973,-2.976 -7.979,-5.52 -11.907,-7.563 -5.638,-2.933 -9.458,-4.013 -10.917,-4.354 -1.47,0.345 -5.318,1.435 -10.973,4.386 -2.918,1.521 -5.895,3.33 -8.85,5.373 0.528,1.5 0.813,2.86 0.87,4.146 C 2.454,-8.503 1.262,-4.373 0,0 m -12.347,20.466 c 0.867,2.513 1.763,5.112 1.958,7.733 0.42,5.586 -0.806,9.336 -1.991,12.962 -0.913,2.789 -1.774,5.423 -1.9,8.805 -0.16,4.418 1.057,8.779 2.236,12.996 1.265,4.532 2.461,8.812 2.053,13.097 -0.267,2.772 -1.259,5.422 -2.218,7.986 -1.025,2.74 -1.994,5.328 -2.071,7.928 -0.086,2.989 0.93,6.382 2.006,9.975 1.172,3.914 2.383,7.958 2.469,12.187 h 5.524 c -0.13,-3.16 -1.087,-6.333 -2.097,-9.686 -1.34,-4.447 -2.726,-9.046 -2.24,-13.972 0.263,-2.65 1.254,-5.298 2.213,-7.858 0.996,-2.659 1.936,-5.17 2.066,-7.578 C -4.128,71.219 -5.226,67.47 -6.388,63.5 -7.76,58.811 -9.18,53.961 -8.617,48.464 c 0.283,-2.766 1.161,-5.288 2.011,-7.728 0.909,-2.611 1.767,-5.076 1.88,-7.699 0.164,-3.802 -0.897,-7.129 -1.923,-10.347 -0.987,-3.088 -2.005,-6.282 -1.97,-9.917 0.038,-4.429 1.299,-8.815 2.517,-13.058 1.302,-4.529 2.533,-8.812 2.175,-12.745 -1.805,1.433 -3.607,2.96 -5.364,4.544 l -0.666,0.613 c -0.487,2.929 -1.311,5.807 -2.108,8.591 -1.172,4.093 -2.279,7.958 -2.215,11.563 0.05,2.724 1.007,5.5 1.933,8.185 m -20.382,67.595 10e-4,-0.001 c 0.265,-2.646 1.255,-5.289 2.212,-7.845 0.997,-2.66 1.939,-5.174 2.069,-7.587 0.213,-3.822 -0.886,-7.573 -2.049,-11.545 -1.374,-4.688 -2.794,-9.536 -2.232,-15.03 0.284,-2.765 1.162,-5.286 2.012,-7.724 0.91,-2.614 1.771,-5.083 1.883,-7.711 0.153,-3.52 -0.746,-6.635 -1.696,-9.633 -1.298,3.327 -2.362,6.732 -3.168,10.14 -2.239,9.469 -1.974,16.551 -1.971,16.637 v 63.511 c 0,1.578 1.283,2.862 2.861,2.862 h 4.361 v -0.002 c 0.439,-3.945 -0.76,-7.908 -2.031,-12.104 -1.344,-4.447 -2.736,-9.045 -2.252,-13.968 m 16.538,-12.553 h -0.001 c 0.382,-3.865 -0.794,-8.179 -2.04,-12.747 -1.207,-4.428 -2.455,-9.005 -2.241,-13.311 0.13,-2.697 1.003,-5.314 1.927,-8.085 0.849,-2.546 1.728,-5.179 1.965,-7.86 0.34,-3.889 -0.812,-7.796 -1.927,-11.574 -0.979,-3.319 -1.992,-6.75 -1.966,-10.125 0.025,-3.624 1.08,-7.476 2.17,-11.231 -2.828,3.265 -5.356,6.817 -7.526,10.578 -0.166,0.287 -0.325,0.575 -0.483,0.864 l -0.12,0.217 c 0.252,2.549 1.065,5.004 1.852,7.38 0.907,2.74 1.845,5.573 1.954,8.6 0.159,4.55 -0.919,7.798 -1.961,10.94 -0.836,2.518 -1.7,5.122 -1.93,8.414 -0.332,4.585 0.938,9.033 2.166,13.334 1.154,4.04 2.244,7.855 2.109,11.761 -0.102,2.917 -1.133,5.72 -2.131,8.431 -0.941,2.56 -1.916,5.208 -2.145,8.004 -0.442,5.265 0.929,9.463 2.255,13.523 1.225,3.752 2.384,7.301 2.157,11.514 h 6.306 c 0.117,-3.682 -0.99,-6.798 -2.162,-10.095 -1.272,-3.581 -2.589,-7.284 -2.511,-12.083 0.042,-2.772 1,-5.35 2.015,-8.08 0.963,-2.593 1.96,-5.275 2.268,-8.369 M 82.03,47.803 v 66.671 c 0,1.991 -1.621,3.611 -3.613,3.611 H -36.024 c -1.984,0 -3.598,-1.613 -3.598,-3.598 l 10e-4,-66.638 c -0.003,-0.077 -0.083,-1.928 0.132,-5.011 0.197,-2.837 0.693,-7.319 1.932,-12.57 1.18,-5 2.826,-9.859 4.893,-14.442 0.372,-0.822 0.754,-1.638 1.151,-2.44 1.128,-2.28 2.394,-4.534 3.763,-6.7 2.547,-4.035 5.484,-7.805 8.728,-11.207 0.655,-0.688 1.306,-1.355 1.955,-2.011 2.092,-2.106 4.223,-4.112 6.331,-5.962 1.867,-1.642 3.794,-3.229 5.727,-4.716 1.439,-1.106 2.888,-2.163 4.307,-3.141 10.665,-7.347 18.68,-9.67 20.898,-10.21 l 1.018,-0.202 1.036,0.213 c 1.539,0.373 5.761,1.574 11.692,4.66 4.119,2.14 8.309,4.802 12.454,7.908 5.116,3.833 10.174,8.362 15.033,13.461 5.01,5.254 9.213,11.279 12.492,17.907 2.618,5.295 4.651,10.975 6.043,16.882 1.239,5.251 1.735,9.733 1.932,12.57 0.205,2.939 0.144,4.734 0.134,4.965"
             style="fill:#ffffff;fill-opacity:1;fill-rule:nonzero;stroke:none"
             id="path128" /></g><g
           id="g130"
           transform="translate(159.707,273.5425)"><path
             d="m 0,0 c -0.006,0.015 -0.011,0.025 -0.017,0.036 -0.08,0.149 -0.164,0.222 -0.204,0.24 -0.452,0.328 -1.303,0.099 -1.384,-0.625 -0.069,-0.695 0.475,-1.154 1.13,-1.211 0.355,-0.036 0.462,0.291 0.502,0.635 L 0.028,-0.928 C 0.072,-0.666 0.077,-0.471 0.066,-0.32 0.067,-0.312 0.033,-0.071 0,0"
             style="fill:#ffffff;fill-opacity:1;fill-rule:nonzero;stroke:none"
             id="path132" /></g><g
           id="g134"
           transform="translate(158.001,278.7315)"><path
             d="M 0,0 C 0.196,-1.128 0.632,-4.042 1.725,-4.361 2.315,-2.971 1.433,-0.545 0,0"
             style="fill:#ffffff;fill-opacity:1;fill-rule:nonzero;stroke:none"
             id="path136" /></g><g
           id="g138"
           transform="translate(136.104,317.7535)"><path
             d="M 0,0 C 0.417,0.101 1.011,0.642 0.726,1.11 0.332,1.756 -0.396,1.812 -1.096,1.915 -0.695,1.313 -1.147,-0.269 0,0"
             style="fill:#ffffff;fill-opacity:1;fill-rule:nonzero;stroke:none"
             id="path140" /></g><g
           id="g142"
           transform="translate(128.0513,316.0284)"><path
             d="M 0,0 C 0.253,1.662 -1.847,0.539 -2.231,-0.227 -1.66,-0.189 -0.141,-0.819 0,0"
             style="fill:#ffffff;fill-opacity:1;fill-rule:nonzero;stroke:none"
             id="path144" /></g><g
           id="g146"
           transform="translate(132.2485,318.6646)"><path
             d="M 0,0 C 0.726,1.39 -1.341,1.519 -2.034,1.104 -1.737,0.936 -0.26,-0.489 0,0"
             style="fill:#ffffff;fill-opacity:1;fill-rule:nonzero;stroke:none"
             id="path148" /></g><g
           id="g150"
           transform="translate(128.2905,306.8619)"><path
             d="M 0,0 C 0.386,-2.479 2.416,0.054 0,0"
             style="fill:#ffffff;fill-opacity:1;fill-rule:nonzero;stroke:none"
             id="path152" /></g><g
           id="g154"
           transform="translate(139.9995,293.3433)"><path
             d="M 0,0 C 0.866,0.957 1.597,1.66 2.723,2.338 1.227,3.368 -1.307,4.808 -0.375,7.1 0.047,8.148 1.105,6.709 1.896,6.634 2.992,6.533 4.317,6.507 5.344,6.957 5.031,7.357 4.017,7.54 3.566,7.978 2.708,8.809 2.432,9.876 2.781,11.016 c 0.185,0.578 -2.783,2.39 -3.423,3.02 -1.411,1.381 -3.506,3.378 -3.212,5.557 0.083,0.564 0.176,1.493 0.638,1.886 0.234,0.195 0.421,2.465 0.306,2.695 -0.653,-0.323 -1.475,-0.62 -2.06,0.014 -0.719,0.766 -0.578,-0.766 -0.508,-0.974 0.302,-0.878 0.732,-1.652 0.812,-2.596 0.054,-0.833 -0.882,-1.772 -0.882,-0.608 -0.649,0.711 -1.108,1.423 -1.601,2.252 -0.188,0.315 0.124,2.628 -0.506,2.174 -0.384,-0.281 -0.931,0.028 -1.245,-0.297 -0.303,-0.295 -0.045,-0.889 -0.188,-1.269 -0.307,-0.904 -1.587,-0.121 -2.024,0.119 -0.244,-1.116 -1.653,-1.493 -0.672,-2.666 1.02,-1.212 2.645,-0.803 3.668,-2.074 1.091,-1.381 -0.29,-2.872 -1.641,-3.132 -0.326,-0.065 -0.665,-0.707 -0.396,-1.002 0.569,-0.639 0.368,-1.619 0.033,-2.289 0.632,-0.255 1.473,-0.049 2.018,0.297 0.745,0.468 0.337,1.098 1.248,1.105 0.128,0.004 0.667,-1.624 0.742,-1.784 0.498,-1.042 0.377,-1.865 -0.192,-2.856 -0.721,-1.233 0.728,-3.122 0.498,-4.494 -0.323,-1.88 -1.337,-1.667 -2.696,-0.742 -0.361,-0.286 0.898,-1.074 1.081,-1.123 1.349,-0.377 2.123,0.414 2.43,1.523 0.295,1.06 0.035,2.138 0.482,3.214 0.562,1.318 1.644,0.375 1.137,-0.117 C -4.626,5.599 -1.489,3.453 -1.854,1.91 -1.997,1.353 -0.497,0.033 0,0"
             style="fill:#ffffff;fill-opacity:1;fill-rule:nonzero;stroke:none"
             id="path156" /></g><g
           id="g158"
           transform="translate(128.1357,281.7442)"><path
             d="M 0,0 C -0.569,0.929 -3.018,-0.164 -3.207,-1.037 -2.891,-1.037 0.916,-1.528 0,0"
             style="fill:#ffffff;fill-opacity:1;fill-rule:nonzero;stroke:none"
             id="path160" /></g><g
           id="g162"
           transform="translate(127.1992,273.3946)"><path
             d="m 0,0 c -0.15,0.744 -2.328,-0.749 -1.661,-1.98 0.017,-0.004 0.076,-0.071 0.048,-0.094 C -1.107,-1.592 0.178,-0.88 0,0"
             style="fill:#ffffff;fill-opacity:1;fill-rule:nonzero;stroke:none"
             id="path164" /></g><g
           id="g166"
           transform="translate(133.6646,271.2222)"><path
             d="M 0,0 C -0.44,-0.983 -2.018,-0.712 -2.364,-1.376 -1.557,-3.104 1.428,0.012 0,0"
             style="fill:#ffffff;fill-opacity:1;fill-rule:nonzero;stroke:none"
             id="path168" /></g><g
           id="g170"
           transform="translate(123.8052,276.3463)"><path
             d="M 0,0 C 0.342,0.18 2.311,0.049 1.327,1.107 0.831,0.938 -0.192,0.78 0,0"
             style="fill:#ffffff;fill-opacity:1;fill-rule:nonzero;stroke:none"
             id="path172" /></g><g
           id="g174"
           transform="translate(144.1123,279.0264)"><path
             d="m 0,0 c 0.35,0.084 2.311,0.969 2.47,0.328 0.127,-0.45 -0.159,-1.016 0.581,-1.06 0.348,-0.024 1.1,0.172 1.166,0.615 C 4.286,0.426 5,-0.396 5.119,-0.445 5.687,-0.684 6.866,-0.412 7.178,0.159 6.065,0.4 5.459,1.259 6.007,2.404 6.482,3.396 6.688,3.085 6.079,4.141 5.715,4.775 5.527,5.471 5.295,6.159 4.031,3.923 2.699,2.617 0.026,2.133 -1.755,1.816 -5.832,3.364 -4.537,5.822 c 0.455,0.865 1.768,1.567 2.764,1.803 0.014,0.004 0.027,0.005 0.041,0.009 0.093,0.021 0.188,0.044 0.274,0.056 C -0.062,7.889 -1.681,6.433 -1.728,6.212 -2.006,4.787 0.316,5.974 0.687,6.316 1.108,6.705 0.955,7.458 0.869,7.952 0.739,8.698 0.694,9.482 0.519,10.217 0.198,10.241 -0.078,10.003 -0.326,9.834 -1.188,9.246 -2.098,8.729 -2.954,8.131 -4.093,7.335 -5.183,6.469 -6.219,5.543 -7.013,4.833 -7.779,4.09 -8.509,3.315 c -0.902,-0.958 -3.118,-3.273 -4.71,-2.306 -0.428,0.255 -1.072,1.833 -1.365,1.833 -1.182,0.023 -0.545,-0.515 -1.037,-1.306 -0.245,-0.396 -0.728,-0.469 -1.095,-0.667 0.156,-0.469 1.163,-1.042 0.491,-1.405 -0.625,-0.32 -1.612,-0.293 -2.301,-0.459 0.246,-0.512 0.541,-1.046 0.246,-1.613 -0.201,-0.393 0.59,-0.69 0.784,-1.032 0.202,-0.407 0.054,-0.794 0.447,-1.027 0.583,-0.328 0.881,-0.878 0.787,-1.566 -0.211,-1.604 2.12,1.092 2.198,1.168 0.653,0.667 3.616,1.369 2.9,-0.427 -0.225,-0.58 -0.735,-1.001 -0.281,-1.657 0.841,0.066 1.082,0.108 1.831,-0.302 1.573,0.939 0.778,1.402 0.3,2.818 -0.167,0.504 1.87,0.481 2.35,1.108 1.079,1.414 1.102,-0.408 1.196,-1.358 0.592,0.047 0.835,0.754 0.946,1.222 0.245,0.978 1.664,-0.751 1.604,0.187 -0.038,0.562 0.06,1.119 0.407,1.583 0.393,0.536 0.835,-0.518 0.765,-0.832 -0.147,-0.754 1.945,-0.697 2.555,-0.908 0.02,-0.002 0.042,-0.005 0.062,-0.008 C 0.763,-3.022 -0.933,-0.223 0,0"
             style="fill:#ffffff;fill-opacity:1;fill-rule:nonzero;stroke:none"
             id="path176" /></g><g
           id="g178"
           transform="translate(134.4561,257.4464)"><path
             d="M 0,0 C 2.659,1.372 -0.398,2.029 -1.283,0.663 -0.74,0.671 -0.342,0.386 0,0"
             style="fill:#ffffff;fill-opacity:1;fill-rule:nonzero;stroke:none"
             id="path180" /></g><g
           id="g182"
           transform="translate(141.7646,247.2662)"><path
             d="M 0,0 C 0.031,1.737 -1.446,0.032 -1.882,-0.307 -1.517,-0.471 -0.019,-0.843 0,0"
             style="fill:#ffffff;fill-opacity:1;fill-rule:nonzero;stroke:none"
             id="path184" /></g><g
           id="g186"
           transform="translate(131.0244,253.5811)"><path
             d="M 0,0 C 0.4,0.277 2.504,0.846 1.605,1.468 0.637,2.131 0.03,0.712 0,0"
             style="fill:#ffffff;fill-opacity:1;fill-rule:nonzero;stroke:none"
             id="path188" /></g><g
           id="g190"
           transform="translate(133.543,248.588)"><path
             d="M 0,0 C 0.12,0.485 0.518,0.724 0.918,0.932 0.269,2.943 -1.119,0.609 0,0"
             style="fill:#ffffff;fill-opacity:1;fill-rule:nonzero;stroke:none"
             id="path192" /></g><g
           id="g194"
           transform="translate(142.458,248.984)"><path
             d="M 0,0 C 1.074,1.025 0.468,1.03 -0.515,1.847 -1.164,2.407 -1.353,3.055 -0.614,3.593 0.032,4.054 1.42,2.837 2.224,2.931 2.902,3.018 4.012,3.292 4.241,4.054 4.323,4.335 4.742,6.957 5.402,5.934 5.94,5.108 5.407,4.319 6.594,3.647 7.31,3.251 8.75,2.744 9.55,3.078 8.576,3.781 7.069,4.564 8.316,5.768 c 0.422,0.4 0.036,1.348 0.288,1.891 0.371,0.744 1.225,0.833 0.717,1.526 -0.408,0.558 0.292,1.103 0.611,1.475 -0.175,0.693 0.211,1.079 -0.195,1.747 -0.598,1.006 -1.872,2.024 -1.418,3.399 1.119,3.352 4.059,5.327 7.571,5.859 0.189,0.03 1.228,-0.031 1.252,0.257 0.08,0.96 -0.471,0.328 -1.091,0.751 -1.939,1.321 0.95,2.081 -1.377,7.431 C 13.09,30.023 11.976,28.671 11.011,27.526 10.028,26.356 8.981,25.714 7.547,25.27 6.319,24.897 5.101,24.912 4.003,24.162 3.274,23.675 2.537,23.186 1.947,22.545 1.428,21.983 1.21,21.11 0.575,20.666 -0.22,20.096 -0.099,20.277 -0.352,19.354 -0.518,18.715 -0.468,18.076 -0.614,17.437 -0.909,16.016 -1.969,15.056 -3.14,14.331 c 1.29,-0.415 2.25,-0.368 3.114,0.838 0.314,0.444 0.546,0.955 0.794,1.446 0.219,0.391 0.681,0.117 0.58,-0.271 C 0.987,14.949 2.551,14.511 3.029,13.251 3.521,11.952 2.701,10.44 1.585,9.752 0.662,9.185 -0.417,9.335 -1.154,8.474 -1.798,7.727 -3.002,6.035 -4.158,7.002 -4.36,7.188 -4.91,7.465 -4.973,7.781 -5.058,8.274 -4.828,9.129 -5.395,9.455 -5.9,9.748 -7.663,7.924 -7.955,7.608 -7.342,7.114 -6.218,6.929 -6.012,6.042 -5.914,5.614 -8.297,6.774 -8.842,6.789 -8.995,6.793 -9.519,4.506 -9.514,4.11 -9.5,3.202 -7.354,3.984 -6.79,3.937 -6.75,3.078 -7.534,3.226 -8.117,2.978 c -0.922,-0.38 0.466,-1.526 0.691,-1.943 0.278,-0.543 0.061,-1.55 1.034,-1.129 0.801,0.34 0.654,1.417 1.344,1.92 0.548,0.41 1.65,0.981 2.353,0.934 0.99,-0.056 1.403,-0.744 0.595,-1.444 -1.024,-0.866 0.058,-0.997 0.349,-1.578 0.84,0.236 1.366,-0.622 1.721,-1.184 0.003,-0.001 0.004,0 0.007,-0.001 C 0.46,-0.952 -0.519,-0.495 0,0"
             style="fill:#ffffff;fill-opacity:1;fill-rule:nonzero;stroke:none"
             id="path196" /></g><g
           id="g198"
           transform="translate(162.832,245.1876)"><path
             d="M 0,0 C 0.442,0.365 2.807,1.876 1.476,2.708 1.18,2.289 0.294,2.443 -0.126,1.943 -0.548,1.444 -0.456,0.444 0,0"
             style="fill:#ffffff;fill-opacity:1;fill-rule:nonzero;stroke:none"
             id="path200" /></g><g
           id="g202"
           transform="translate(169.3633,245.5806)"><path
             d="M 0,0 C -1.029,0.379 -1.086,-1.606 -0.154,-2.016 0.01,-1.278 0.958,-0.354 0,0"
             style="fill:#ffffff;fill-opacity:1;fill-rule:nonzero;stroke:none"
             id="path204" /></g><g
           id="g206"
           transform="translate(163.0713,251.1261)"><path
             d="m 0,0 c -0.814,0.105 -1.47,-1.084 -1.278,-1.816 -0.029,0.091 0.053,0.023 0,0 C -0.29,-1.428 0.297,-1.241 0,0"
             style="fill:#ffffff;fill-opacity:1;fill-rule:nonzero;stroke:none"
             id="path208" /></g><g
           id="g210"
           transform="translate(173.3057,245.5245)"><path
             d="M 0,0 C -0.981,0.85 -1.313,-0.164 -0.792,-0.959 -0.524,-0.639 -0.27,-0.313 0,0"
             style="fill:#ffffff;fill-opacity:1;fill-rule:nonzero;stroke:none"
             id="path212" /></g><g
           id="g214"
           transform="translate(182.7344,296.1031)"><path
             d="M 0,0 C 1.969,1.332 3.521,4.337 0.487,5.644 0.318,3.896 0.312,3.125 -1.109,1.948 -2.514,0.789 -4.548,0.833 -5.915,-0.461 -6.559,-1.067 -7.17,-2.142 -6.798,-3.055 c 0.131,-0.332 0.789,-1.255 0.55,-1.65 -0.632,-1.011 -2.47,2.95 -2.523,3.408 -0.576,4.555 5.367,6.005 8.131,7.999 1.578,1.145 2.944,2.142 3.103,4.23 0.111,1.386 -0.824,3.577 -2.416,3.757 C 0.007,14.693 0.34,12.568 0.357,12.33 0.423,11.411 0.267,10.542 -0.3,9.786 -1.266,8.494 -2.99,8.146 -4.422,7.615 -6.014,7.027 -7.723,6.753 -8.942,5.487 -9.677,4.729 -10.023,3.67 -10.271,2.664 c -0.123,-0.48 -0.235,-4.375 -1.217,-2.011 -0.188,0.45 -0.045,2.695 0.411,3.959 0.73,1.947 2.304,3.328 3.689,4.772 1.76,1.81 3.643,3.357 5.054,5.487 0.938,1.415 1.813,3.139 1.809,4.877 -0.009,2.92 -3.689,5.814 -6.528,5.367 -2.294,-0.361 -4.012,-0.952 -5.43,-2.863 -0.647,-0.869 -1.408,-2.202 -1.394,-3.321 0.01,-1.218 0.553,-2.079 0.829,-3.24 0.409,-1.695 2.1,-4.911 -0.498,-5.864 0.638,-1.029 2.066,-0.34 2.819,0.218 2.831,2.093 2.258,4.744 1.565,7.762 -0.436,1.896 -0.677,3.783 1.372,4.782 1.825,0.888 3.685,0.293 4.677,-1.43 2.051,-3.568 -1.649,-7.51 -3.995,-9.799 -2.527,-2.455 -5.504,-4.773 -6.438,-8.291 -1.018,-3.858 1.261,-7.645 3.543,-10.529 0.49,-0.619 2.344,-2.84 2.798,-3.549 1.144,-1.805 2.542,-4.101 1.714,-6.283 -1.438,-3.748 -6.742,-3.099 -8.788,-0.468 -0.129,0.167 -0.243,0.35 -0.367,0.524 -0.006,0.01 -0.014,0.018 -0.022,0.028 -0.013,0.019 -0.025,0.041 -0.039,0.06 -0.28,0.399 -0.551,0.807 -0.807,1.229 -0.131,0.209 -0.253,0.419 -0.379,0.633 -0.075,0.13 -0.152,0.257 -0.225,0.388 -0.554,0.963 -1.056,1.916 -1.492,2.797 -0.884,1.684 -1.606,3.761 -2.702,5.277 -0.529,-1.205 -1.02,-2.303 -1.997,-3.221 -1.736,-1.638 1.319,-2.455 0.581,-3.665 -0.669,-1.101 -3.399,0.538 -3.875,1.137 -0.46,0.576 -0.903,1.267 -1.036,2.007 -0.045,0.235 0.084,1.519 -0.093,1.617 -0.806,-0.85 -1.803,-1.765 -2.487,-2.713 -1.193,-1.702 0.3,-2.296 1.681,-2.987 2.959,-1.482 5.651,-3.354 5.365,-6.927 -0.112,-1.357 -0.573,-3.403 -0.145,-4.733 0.248,-0.784 0.621,-0.936 1.04,-1.556 0.548,-0.806 -0.89,-0.272 -0.97,-0.272 -1.668,0.077 -1.356,-2.554 -1.371,-3.444 -0.028,-1.91 -1.098,-2.371 -2.512,-3.237 l 0.091,-0.141 h -0.001 c 0,0 0.177,-0.308 0.503,-0.373 0.007,-10e-4 0.014,-0.003 0.019,-0.004 0.148,-0.024 0.314,-0.007 0.519,0.119 l 0.014,0.009 c 1.222,0.648 2.734,3.603 2.912,4.007 0.298,0.754 0.92,0.517 1.231,-0.066 0.274,-0.525 -0.194,-0.585 0.401,-1.198 0.39,-0.417 0.928,-0.768 1.406,-1.082 2.093,-1.358 4.701,-2.144 6.444,-4.026 1.319,-1.447 1.113,-4.359 -0.17,-5.765 -1.675,-1.833 -3.652,-0.562 -5.712,-0.991 -0.758,-0.156 -0.906,-1.97 -0.502,-2.556 0.617,-0.918 1.691,-0.892 1.443,-2.378 -0.524,-3.104 1.925,0.891 2.746,1.507 0.597,0.469 1.585,1.054 2.35,0.609 0.705,-0.412 -0.976,-2.046 -1.266,-2.402 0.515,-0.309 0.995,-0.634 1.483,-1.002 0.123,0.512 0.223,1.002 0.61,1.352 0.018,0.013 0.031,0.029 0.05,0.042 0.058,0.046 0.1,0.099 0.169,0.139 0.796,0.448 0.677,-0.138 1.11,-0.493 0.262,-0.218 0.965,-0.335 1.302,-0.534 0.864,-0.487 0.004,1.377 0.013,1.456 0.149,1.512 3.2,2.224 2.488,3.877 -0.334,0.788 0.42,1.193 0.612,0.39 0.15,-0.643 1.154,-0.699 1.632,-0.531 -0.546,0.414 -1.087,0.801 -1.461,1.386 -0.411,0.644 -0.269,0.962 0.015,1.227 0.014,0.014 0.031,0.024 0.044,0.036 0.273,0.239 0.644,0.443 0.809,0.82 -0.354,0.548 -1.924,0.691 -0.436,1.282 0.995,0.399 2.163,-0.029 3.072,0.883 -0.88,0.218 -2.161,-0.91 -2.889,0.405 -0.334,0.59 -0.59,1.273 -1.048,1.772 0,0.011 -1.297,1.135 -0.519,1.1 1.029,-0.056 1.223,-1.205 2.178,-1.022 1.85,0.337 2.741,1.839 4.708,0.917 0.657,3.46 -5.269,-0.566 -5.857,2.961 -0.194,1.089 0.889,1.112 1.772,1.25 1.556,0.238 1.467,1.654 1.736,2.86 -0.003,0.018 -0.004,0.036 -0.007,0.053 -0.953,-0.266 -1.878,-0.439 -2.845,-0.607 -0.961,-0.161 -1.021,-1.489 -1.7,-1.629 -0.484,-0.098 -1.269,0.906 -1.629,1.126 -0.789,0.475 -1.475,0.676 -2.076,1.407 -1.019,1.235 -2.445,3.094 -2.597,4.709 -0.084,0.78 -0.094,1.569 -0.149,2.341 -0.057,0.764 2.073,-0.103 2.371,-0.168 2.156,-0.426 3.771,-0.094 5.522,1.241 2.116,1.605 1.919,3.394 1.453,5.777 -0.702,3.514 -0.077,10.812 5.352,8.23 -0.04,1.344 -1.234,2.135 -2.48,2.219 -1.345,0.091 -2.445,-1.25 -3.103,-2.249 -0.22,-0.326 -0.22,-2.601 -1.079,-2.245 -0.883,0.367 -0.639,2.696 -0.489,3.441 C -5.025,-2.544 -2.121,-1.428 0,0"
             style="fill:#ffffff;fill-opacity:1;fill-rule:nonzero;stroke:none"
             id="path216" /></g><g
           id="g218"
           transform="translate(152.0762,307.6104)"><path
             d="M 0,0 C 0.114,-0.131 0.255,-0.133 0.398,-0.007 0.312,0.083 0.211,0.171 0.114,0.26 0.072,0.171 0.035,0.092 0,0"
             style="fill:#ffffff;fill-opacity:1;fill-rule:nonzero;stroke:none"
             id="path220" /></g><g
           id="g222"
           transform="translate(151.0068,311.3423)"><path
             d="m 0,0 c -0.389,-0.073 -0.394,0 -0.551,-0.096 0.047,0.028 -0.023,-0.167 0,0 C -0.593,-0.387 -0.71,-1.023 -0.183,-0.955 -0.122,-0.637 -0.059,-0.316 0,0"
             style="fill:#ffffff;fill-opacity:1;fill-rule:nonzero;stroke:none"
             id="path224" /></g><g
           id="g226"
           transform="translate(156.0049,310.9185)"><path
             d="m 0,0 c -2.04,0.225 -3.378,-0.948 -5.102,-1.563 -0.968,-0.343 -1.975,-0.778 -3.019,-0.366 -0.478,0.192 -1.766,1.152 -2.2,1.159 0.219,-2.671 2.366,-3.324 4.536,-2.315 0.988,0.463 1.772,1.269 2.805,1.675 0.861,0.342 2.902,0.429 2.98,1.41"
             style="fill:#ffffff;fill-opacity:1;fill-rule:nonzero;stroke:none"
             id="path228" /></g><g
           id="g230"
           transform="translate(154.626,316.2603)"><path
             d="M 0,0 C -0.354,-0.326 -1.84,0.143 -1.92,0.937 -1.967,1.405 0.562,0.515 0,0 m 11.357,-8.238 c -0.294,1.056 0.16,2.266 -0.201,3.32 -0.112,0.325 -0.707,0.648 -0.693,0.987 0.01,0.459 0.891,0.762 1.152,1.084 -0.29,0.024 -0.592,0.015 -0.874,0.091 -0.27,0.072 -0.472,0.25 -0.627,0.48 -0.147,0.218 -0.252,0.47 -0.369,0.704 -0.11,0.219 -0.217,0.439 -0.317,0.663 C 9.396,-0.837 8.979,0.242 9.082,0.253 8.604,0.204 7.034,-0.501 7.022,0.372 7.02,0.77 8.899,0.859 9.328,1.149 9.92,1.55 10.067,2.067 9.342,2.416 8.633,2.757 7.794,2.812 7.038,2.606 6.258,2.393 5.893,1.906 5.356,1.345 5.327,1.314 5.295,1.283 5.254,1.27 4.969,1.176 4.91,1.808 4.941,1.972 c 0.06,0.311 0.298,0.518 0.544,0.693 0.26,0.183 0.556,0.307 0.856,0.41 0.294,0.1 0.614,0.132 0.887,0.29 C 6.641,4.214 5.348,4.637 4.355,4.637 3.227,4.693 2.101,4.433 1.027,4.108 0.09,3.825 -0.825,3.475 -1.751,3.158 -2.222,2.997 -2.929,2.437 -3.444,2.507 -3.533,2.521 -3.599,2.018 -3.684,1.581 -3.7,1.477 -3.722,1.379 -3.749,1.288 -3.784,1.152 -3.822,1.04 -3.867,0.988 -3.913,0.934 -3.972,0.881 -4.037,0.829 -4.064,0.807 -4.096,0.787 -4.126,0.766 -5.138,0.05 -7.711,-0.553 -6.321,-2.201 c 0.482,-0.566 0.22,-1.044 0.472,-1.64 0.338,-0.799 1.836,-0.555 2.44,-0.34 0.871,0.307 4.125,1.868 4.785,0.794 0.843,-1.379 1.109,-3.28 0.271,-4.787 -0.805,-1.421 -3.049,-0.871 -4.342,-1.339 0.07,-0.761 0.061,-2.334 1.013,-2.594 1.017,-0.286 2.527,0.96 3.137,1.641 0.148,0.175 1.412,1.973 1.649,1.175 0.271,-0.943 -1.229,-2.638 -1.798,-3.261 -0.689,-0.733 -1.927,-1.14 -2.908,-1.121 -1.209,0.027 -2.146,0.659 -3.292,0.477 -0.03,-0.005 -0.06,-0.017 -0.09,-0.023 -0.137,-0.027 -0.276,-0.057 -0.419,-0.11 -2.117,-0.766 -5.002,-0.55 -4.347,2.43 -1.454,-0.255 -2.077,-1.917 -1.288,-3.127 0.412,-0.628 1.187,-1.082 1.905,-1.223 0.03,-0.005 0.076,-0.006 0.132,-0.007 0.059,0 0.124,0 0.197,0 0.049,10e-4 0.102,-10e-4 0.156,-10e-4 0.019,-10e-4 0.037,0 0.057,-10e-4 0.436,-0.011 0.945,-0.084 0.879,-0.515 -0.089,-0.623 -1.671,-1.135 -2.226,-1.219 -1.702,-0.258 -2.867,-0.094 -4.347,0.669 -0.124,-1.615 1.712,-4.164 3.615,-3.888 0.529,0.072 1.047,0.217 1.575,0.297 0.33,0.05 0.703,0.126 0.99,-0.091 0.243,-0.185 0.563,-0.87 0.213,-1.092 -0.089,-0.057 -0.204,-0.053 -0.31,-0.049 -1.104,0.054 -2.183,0.139 -3.255,-0.208 -1.175,-0.378 -1.849,-1.149 -2.601,-2.069 -0.692,-0.856 -1.192,-1.371 -2.271,-1.709 -0.616,-0.19 -1.095,0.136 -1.418,0.66 -0.08,0.13 -0.787,1.618 -0.698,1.717 -1.35,-1.485 -0.08,-3.486 1.21,-4.502 0.646,-0.509 1.471,-0.973 2.313,-1.008 1.218,-0.05 2.445,0.619 3.489,1.169 0.702,0.368 1.369,0.796 2.038,1.217 0.463,0.29 1.298,1.031 1.863,1.003 0.243,-0.012 0.483,-0.193 0.51,-0.435 0.02,-0.193 -0.095,-0.381 -0.249,-0.5 -0.365,-0.282 -0.878,-0.325 -1.241,-0.62 -1.238,-1.006 -0.693,-2.224 -0.506,-3.574 0.337,-2.491 -3.661,-3.629 -3.838,-0.566 -2.637,-1.459 -1.646,-3.063 0.824,-3.821 1.804,-0.566 4.586,0.908 5.561,2.413 0.389,0.583 0.586,1.35 0.871,1.986 0.112,0.246 1.083,2.472 1.484,1.758 0.437,-0.779 -0.698,-1.826 -0.459,-2.674 0.36,-1.276 1.083,-3.007 2.321,-3.67 -0.261,0.14 0.135,1.912 0.224,2.171 0.272,0.795 0.829,1.438 1.432,2.005 1.335,1.257 2.175,2.708 2.84,4.403 0.356,0.892 0.766,-0.29 0.545,-0.864 -0.349,-0.833 -0.563,-1.816 -0.634,-2.72 -0.136,-1.919 1.175,-3.902 3.291,-3.64 -0.379,0.604 -0.856,0.974 -0.962,1.714 -0.175,1.303 0.818,1.828 1.482,2.748 0.538,0.746 1.058,1.697 1.009,2.645 -0.029,0.513 -0.244,0.994 -0.285,1.5 -0.032,0.413 0.05,2.713 0.834,2.457 0.021,-0.009 0.034,-0.027 0.044,-0.047 0.271,-0.293 -0.194,-1.864 -0.136,-2.339 0.128,-0.883 0.687,-2.018 1.459,-2.647 0.494,-0.404 1.939,-0.79 2.265,0.033 -0.259,0.14 -0.561,0.173 -0.84,0.271 -1.095,0.385 -1.31,1.722 -1.049,2.722 0.171,0.723 0.564,1.395 0.712,2.114 0.14,0.625 -1.143,1.505 -0.851,1.938 0.241,0.361 1.838,-1.306 2.575,-0.962 -0.479,1.03 -1.139,2.102 -0.838,3.293 0.3,1.178 0.546,2.374 0.78,3.568 0.131,0.733 0.718,2.479 -0.318,2.879 -0.345,0.134 -1.202,0.274 -1.387,0.667 -0.105,0.23 0.014,0.63 0.319,0.489 0.838,-0.397 1.938,-0.786 2.724,-0.018 0.27,0.274 -1.441,1.353 -1.624,1.961"
             style="fill:#ffffff;fill-opacity:1;fill-rule:nonzero;stroke:none"
             id="path232" /></g></g></g></g></svg>
