<svg width="356" height="228" viewBox="0 0 356 228" fill="none" xmlns="http://www.w3.org/2000/svg">
<g clip-path="url(#clip0_308_5714)">
<path d="M289.734 7.89097L1.26562 49.5625L21.0395 186.446L309.508 144.774L289.734 7.89097Z" fill="#F1F1F1"/>
<path d="M283.182 20.82L11.2109 60.1084L27.7089 174.315L299.68 135.026L283.182 20.82Z" fill="white"/>
<path d="M288.469 0.000345128L0 41.6719L1.77033 53.9269L290.239 12.2554L288.469 0.000345128Z" fill="#57C0B3"/>
<path d="M10.1466 49.8576C11.4141 49.8576 12.4416 48.8301 12.4416 47.5626C12.4416 46.2951 11.4141 45.2676 10.1466 45.2676C8.87907 45.2676 7.85156 46.2951 7.85156 47.5626C7.85156 48.8301 8.87907 49.8576 10.1466 49.8576Z" fill="white"/>
<path d="M18.7676 48.6115C20.0351 48.6115 21.0626 47.584 21.0626 46.3165C21.0626 45.049 20.0351 44.0215 18.7676 44.0215C17.5001 44.0215 16.4727 45.049 16.4727 46.3165C16.4727 47.584 17.5001 48.6115 18.7676 48.6115Z" fill="white"/>
<path d="M27.3926 47.3664C28.6601 47.3664 29.6876 46.3389 29.6876 45.0714C29.6876 43.8039 28.6601 42.7764 27.3926 42.7764C26.1251 42.7764 25.0977 43.8039 25.0977 45.0714C25.0977 46.3389 26.1251 47.3664 27.3926 47.3664Z" fill="white"/>
<path d="M355.998 66.7891H64.5352V205.093H355.998V66.7891Z" fill="#E6E6E6"/>
<path d="M347.666 78.6484H72.8711V194.04H347.666V78.6484Z" fill="white"/>
<path d="M355.873 58.7979H64.4102V71.1801H355.873V58.7979Z" fill="#57C0B3"/>
<path d="M73.6114 68.3742C74.8789 68.3742 75.9064 67.3467 75.9064 66.0792C75.9064 64.8117 74.8789 63.7842 73.6114 63.7842C72.3439 63.7842 71.3164 64.8117 71.3164 66.0792C71.3164 67.3467 72.3439 68.3742 73.6114 68.3742Z" fill="white"/>
<path d="M82.3223 68.3742C83.5898 68.3742 84.6174 67.3467 84.6174 66.0792C84.6174 64.8117 83.5898 63.7842 82.3223 63.7842C81.0549 63.7842 80.0273 64.8117 80.0273 66.0792C80.0273 67.3467 81.0549 68.3742 82.3223 68.3742Z" fill="white"/>
<path d="M91.0372 68.3742C92.3047 68.3742 93.3322 67.3467 93.3322 66.0792C93.3322 64.8117 92.3047 63.7842 91.0372 63.7842C89.7697 63.7842 88.7422 64.8117 88.7422 66.0792C88.7422 67.3467 89.7697 68.3742 91.0372 68.3742Z" fill="white"/>
<path d="M269.916 96.1924H231.215V99.1013H269.916V96.1924Z" fill="#E6E6E6"/>
<path d="M290.978 104.732H231.215V107.641H290.978V104.732Z" fill="#E6E6E6"/>
<path d="M280.546 112.864H231.84V115.773H280.546V112.864Z" fill="#E6E6E6"/>
<path d="M259.649 121.788H231.215V124.697H259.649V121.788Z" fill="#E6E6E6"/>
<path d="M274.129 130.505H231.215V133.414H274.129V130.505Z" fill="#E6E6E6"/>
<path d="M218.313 95.2773H213.574V100.016H218.313V95.2773Z" fill="#E6E6E6"/>
<path d="M218.313 103.816H213.574V108.555H218.313V103.816Z" fill="#E6E6E6"/>
<path d="M218.313 111.949H213.574V116.688H218.313V111.949Z" fill="#E6E6E6"/>
<path d="M218.313 120.873H213.574V125.612H218.313V120.873Z" fill="#E6E6E6"/>
<path d="M218.313 129.59H213.574V134.329H218.313V129.59Z" fill="#E6E6E6"/>
<path d="M269.916 139.275H231.215V142.184H269.916V139.275Z" fill="#E6E6E6"/>
<path d="M290.978 147.814H231.215V150.723H290.978V147.814Z" fill="#E6E6E6"/>
<path d="M280.546 155.947H231.84V158.856H280.546V155.947Z" fill="#E6E6E6"/>
<path d="M259.649 164.871H231.215V167.78H259.649V164.871Z" fill="#E6E6E6"/>
<path d="M274.129 173.588H231.215V176.497H274.129V173.588Z" fill="#E6E6E6"/>
<path d="M218.313 138.36H213.574V143.099H218.313V138.36Z" fill="#E6E6E6"/>
<path d="M218.313 146.9H213.574V151.639H218.313V146.9Z" fill="#E6E6E6"/>
<path d="M218.313 155.032H213.574V159.771H218.313V155.032Z" fill="#E6E6E6"/>
<path d="M218.313 163.956H213.574V168.695H218.313V163.956Z" fill="#E6E6E6"/>
<path d="M218.313 172.673H213.574V177.412H218.313V172.673Z" fill="#E6E6E6"/>
<path d="M147.487 162.093H108.785V165.002H147.487V162.093Z" fill="#E6E6E6"/>
<path d="M152.311 169.651H103.605V172.56H152.311V169.651Z" fill="#E6E6E6"/>
<path d="M153.289 125.399C153.287 129.771 152.152 134.067 149.993 137.869C147.835 141.671 144.727 144.849 140.974 147.091C137.221 149.333 132.95 150.564 128.58 150.662C124.209 150.761 119.887 149.724 116.037 147.653L116.032 147.648C112.099 145.53 108.798 142.406 106.465 138.596C104.132 134.786 102.851 130.425 102.752 125.959C102.654 121.492 103.741 117.08 105.903 113.17C108.065 109.261 111.225 105.994 115.06 103.703C118.896 101.413 123.27 100.18 127.737 100.13C132.205 100.081 136.605 101.217 140.491 103.422C144.376 105.627 147.608 108.822 149.856 112.683C152.104 116.544 153.289 120.931 153.289 125.399V125.399Z" fill="#E6E6E6"/>
<path d="M128.147 124.172C131.941 124.172 135.016 121.096 135.016 117.302C135.016 113.508 131.941 110.433 128.147 110.433C124.353 110.433 121.277 113.508 121.277 117.302C121.277 121.096 124.353 124.172 128.147 124.172Z" fill="white"/>
<path d="M139.877 138.365C132.197 141.061 123.824 141.029 116.165 138.274L116.16 138.27L121.278 128.168H135.017L139.877 138.365Z" fill="white"/>
<path d="M52.0935 188.123C40.1201 188.123 30.3789 177.775 30.3789 165.056C30.3789 152.337 40.1201 141.989 52.0935 141.989C64.0669 141.989 73.8081 152.337 73.8081 165.056C73.8081 177.775 64.0669 188.123 52.0935 188.123ZM52.0935 147.818C43.3338 147.818 36.2073 155.551 36.2073 165.056C36.2073 174.561 43.3338 182.295 52.0935 182.295C60.8532 182.295 67.9797 174.561 67.9797 165.056C67.9797 155.551 60.8532 147.818 52.0935 147.818Z" fill="#57C0B3"/>
<path d="M72.6525 228.322H31.5267C27.9 228.318 24.4231 226.876 21.8587 224.312C19.2942 221.747 17.8517 218.27 17.8477 214.644V174.304C17.8504 171.821 18.838 169.44 20.5937 167.685C22.3493 165.929 24.7297 164.941 27.2126 164.938H76.9665C79.4494 164.941 81.8298 165.929 83.5855 167.685C85.3411 169.44 86.3287 171.821 86.3315 174.304V214.644C86.3274 218.27 84.8849 221.747 82.3205 224.312C79.7561 226.876 76.2791 228.318 72.6525 228.322Z" fill="#1E232C"/>
<path d="M60.1062 187.888C60.1073 186.464 59.7287 185.065 59.0092 183.835C58.2898 182.605 57.2556 181.59 56.0131 180.893C54.7707 180.196 53.3649 179.843 51.9405 179.87C50.5162 179.897 49.1248 180.303 47.9096 181.046C46.6944 181.79 45.6994 182.844 45.027 184.1C44.3546 185.356 44.0291 186.768 44.0841 188.192C44.1391 189.615 44.5725 190.998 45.3398 192.199C46.1071 193.399 47.1805 194.373 48.4494 195.021V207.559H55.7349V195.021C57.0502 194.35 58.1546 193.329 58.926 192.071C59.6974 190.812 60.1059 189.365 60.1062 187.888Z" fill="white"/>
</g>
<defs>
<clipPath id="clip0_308_5714">
<rect width="356" height="228" fill="white"/>
</clipPath>
</defs>
</svg>
