<svg width="216" height="290" viewBox="0 0 216 290" fill="none" xmlns="http://www.w3.org/2000/svg">
<g clip-path="url(#clip0_308_5682)">
<path d="M132.767 0H31.4317C15.671 0 2.89453 12.7868 2.89453 28.5601V260.307C2.89453 276.081 15.671 288.867 31.4317 288.867H132.767C148.527 288.867 161.304 276.081 161.304 260.307V28.5601C161.304 12.7868 148.527 0 132.767 0Z" fill="#1E232C"/>
<path d="M158.631 28.562V260.307C158.623 267.17 155.895 273.75 151.046 278.603C146.197 283.456 139.623 286.186 132.765 286.194H31.4318C24.5743 286.186 18 283.456 13.151 278.603C8.30198 273.75 5.57434 267.17 5.56641 260.307V28.562C5.57434 21.699 8.30198 15.1193 13.151 10.2665C18 5.41357 24.5743 2.68373 31.4318 2.67578H44.6828V7.25681C44.6829 9.33073 45.5061 11.3197 46.9714 12.7861C48.4367 14.2526 50.4241 15.0765 52.4964 15.0766H111.701C113.773 15.0765 115.76 14.2526 117.225 12.7861C118.691 11.3197 119.514 9.33073 119.514 7.25681V2.67578H132.765C139.623 2.68373 146.197 5.41357 151.046 10.2665C155.895 15.1193 158.623 21.699 158.631 28.562V28.562Z" fill="white"/>
<path d="M2.16633 58.6003C1.65102 58.5997 1.15698 58.3945 0.792595 58.0299C0.428214 57.6652 0.223248 57.1708 0.222656 56.655V52.7646C0.222656 52.2487 0.427434 51.7539 0.791943 51.3891C1.15645 51.0243 1.65083 50.8193 2.16633 50.8193C2.68182 50.8193 3.1762 51.0243 3.54071 51.3891C3.90522 51.7539 4.11 52.2487 4.11 52.7646V56.655C4.10941 57.1708 3.90444 57.6652 3.54006 58.0299C3.17568 58.3946 2.68164 58.5997 2.16633 58.6003V58.6003Z" fill="#1E232C"/>
<path d="M2.16633 78.5494C1.65101 78.5488 1.15698 78.3437 0.792595 77.979C0.428214 77.6143 0.223245 77.1199 0.222656 76.6042V65.8949C0.222656 65.379 0.427434 64.8843 0.791943 64.5195C1.15645 64.1546 1.65083 63.9497 2.16633 63.9497C2.68182 63.9497 3.1762 64.1546 3.54071 64.5195C3.90522 64.8843 4.11 65.379 4.11 65.8949V76.6042C4.10941 77.1199 3.90444 77.6143 3.54006 77.979C3.17568 78.3437 2.68164 78.5488 2.16633 78.5494V78.5494Z" fill="#1E232C"/>
<path d="M2.16633 94.587C1.65101 94.5864 1.15698 94.3813 0.792595 94.0166C0.428214 93.6519 0.223245 93.1575 0.222656 92.6418V81.9325C0.222656 81.4166 0.427434 80.9219 0.791943 80.557C1.15645 80.1922 1.65083 79.9873 2.16633 79.9873C2.68182 79.9873 3.1762 80.1922 3.54071 80.557C3.90522 80.9219 4.11 81.4166 4.11 81.9325V92.6418C4.10941 93.1575 3.90444 93.6519 3.54006 94.0166C3.17568 94.3813 2.68164 94.5864 2.16633 94.587V94.587Z" fill="#1E232C"/>
<path d="M161.545 85.8335C161.03 85.8329 160.536 85.6278 160.172 85.2631C159.807 84.8984 159.602 84.404 159.602 83.8883V57.7572C159.602 57.2413 159.806 56.7466 160.171 56.3818C160.535 56.017 161.03 55.812 161.545 55.812C162.061 55.812 162.555 56.017 162.92 56.3818C163.284 56.7466 163.489 57.2413 163.489 57.7572V83.8883C163.488 84.404 163.283 84.8984 162.919 85.2631C162.555 85.6278 162.061 85.8329 161.545 85.8335V85.8335Z" fill="#1E232C"/>
<path d="M86.2743 8.92178H71.2109C70.8887 8.92178 70.5797 8.79368 70.3519 8.56568C70.1241 8.33768 69.9961 8.02845 69.9961 7.70601C69.9961 7.38356 70.1241 7.07433 70.3519 6.84633C70.5797 6.61833 70.8887 6.49023 71.2109 6.49023H86.2743C86.5965 6.49023 86.9055 6.61833 87.1334 6.84633C87.3612 7.07433 87.4891 7.38356 87.4891 7.70601C87.4891 8.02845 87.3612 8.33768 87.1334 8.56568C86.9055 8.79368 86.5965 8.92178 86.2743 8.92178Z" fill="white"/>
<path d="M94.0461 8.67863C94.5828 8.67863 95.0179 8.24318 95.0179 7.70602C95.0179 7.16885 94.5828 6.7334 94.0461 6.7334C93.5093 6.7334 93.0742 7.16885 93.0742 7.70602C93.0742 8.24318 93.5093 8.67863 94.0461 8.67863Z" fill="white"/>
<path d="M38.8931 14.1385H25.7733C25.129 14.1385 24.511 13.8823 24.0554 13.4263C23.5997 12.9703 23.3438 12.3518 23.3438 11.7069C23.3438 11.062 23.5997 10.4436 24.0554 9.98757C24.511 9.53157 25.129 9.27539 25.7733 9.27539H38.8931C39.5375 9.27539 40.1555 9.53157 40.6111 9.98757C41.0667 10.4436 41.3227 11.062 41.3227 11.7069C41.3227 12.3518 41.0667 12.9703 40.6111 13.4263C40.1555 13.8823 39.5375 14.1385 38.8931 14.1385Z" fill="#E6E6E6"/>
<path d="M124.901 13.8953C126.109 13.8953 127.088 12.9156 127.088 11.7069C127.088 10.4983 126.109 9.51855 124.901 9.51855C123.694 9.51855 122.715 10.4983 122.715 11.7069C122.715 12.9156 123.694 13.8953 124.901 13.8953Z" fill="#E6E6E6"/>
<path d="M131.702 13.8953C132.91 13.8953 133.889 12.9156 133.889 11.7069C133.889 10.4983 132.91 9.51855 131.702 9.51855C130.495 9.51855 129.516 10.4983 129.516 11.7069C129.516 12.9156 130.495 13.8953 131.702 13.8953Z" fill="#E6E6E6"/>
<path d="M138.507 13.8953C139.715 13.8953 140.694 12.9156 140.694 11.7069C140.694 10.4983 139.715 9.51855 138.507 9.51855C137.299 9.51855 136.32 10.4983 136.32 11.7069C136.32 12.9156 137.299 13.8953 138.507 13.8953Z" fill="#E6E6E6"/>
<path d="M123.372 48.1235H40.9121C39.3147 48.1257 37.7834 48.7618 36.6539 49.8922C35.5244 51.0226 34.8889 52.5551 34.8867 54.1538V107.798C34.8889 109.397 35.5244 110.93 36.6539 112.06C37.7834 113.19 39.3147 113.826 40.9121 113.829H123.372C124.97 113.827 126.502 113.192 127.631 112.061C128.761 110.93 129.396 109.397 129.398 107.798V54.1538C129.396 52.5549 128.761 51.0219 127.631 49.8913C126.502 48.7607 124.97 48.1249 123.372 48.1235V48.1235Z" fill="#F2F2F2"/>
<path d="M97.5585 71.0249C90.1065 84.2109 81.8832 96.9451 72.9314 109.161H60C68.47 98.8341 76.9463 88.5071 85.4289 78.1801C87.8623 75.2066 90.5033 72.0915 94.1535 70.8833L97.5585 71.0249Z" fill="#1E232C"/>
<path d="M80.3728 68.9105C79.024 70.317 77.7318 71.7802 76.5151 73.3C73.8364 76.5283 71.1954 79.785 68.545 83.0323C66.8944 85.0523 65.2438 87.0724 63.612 89.0925C63.0938 88.7594 62.6019 88.387 62.1406 87.9786C59.5344 85.7147 57.9179 82.5192 57.6374 79.0768C57.357 75.6344 58.435 72.219 60.6404 69.5625C62.8458 66.9059 66.0032 65.2196 69.436 64.8648C72.8688 64.5101 76.3038 65.5151 79.0051 67.6645C79.492 68.0445 79.9492 68.461 80.3728 68.9105V68.9105Z" fill="#F6C28B"/>
<path d="M129.398 67.3765V69.3364L128.523 69.0154L116.215 64.5122C112.206 63.0484 108.207 61.3755 104.067 60.3202C100.465 59.289 96.64 59.3381 93.0657 60.4612C89.8796 61.6409 86.9642 63.4521 84.4941 65.7863C83.4008 66.7978 82.3415 67.8337 81.3162 68.9084C80.9809 69.2634 80.6456 69.6184 80.3152 69.9734C79.3239 71.053 78.3667 72.1569 77.458 73.2998C74.7806 76.5289 72.1372 79.7871 69.489 83.0308C67.8369 85.0539 66.1847 87.072 64.552 89.0902C59.1 95.7672 53.6804 102.457 48.2932 109.16C47.5677 109.152 46.8454 109.061 46.1406 108.888C51.6364 102.055 57.158 95.2404 62.7055 88.4434C62.8319 88.2878 62.9582 88.1322 63.0846 87.9766C63.7357 87.1644 64.4014 86.3474 65.0622 85.5353C67.8271 82.1457 70.5936 78.7594 73.3617 75.3763C75.3734 72.9156 77.3706 70.4451 79.5378 68.1109C79.669 67.9601 79.805 67.8142 79.9459 67.6635C80.1549 67.4398 80.3638 67.2209 80.5776 66.9923C85.2862 62.1244 91.1609 57.8206 98.197 57.7039C102.337 57.6406 106.336 58.9537 110.185 60.3397C114.329 61.8424 118.46 63.3694 122.6 64.8867L129.398 67.3765Z" fill="#1E232C"/>
<path d="M131.336 232.27H32.8609C31.2636 232.268 29.7321 231.632 28.6026 230.502C27.4731 229.371 26.8378 227.839 26.8359 226.24V212.958C26.8378 211.359 27.4731 209.826 28.6026 208.696C29.7321 207.565 31.2636 206.93 32.8609 206.928H131.336C132.934 206.93 134.465 207.565 135.595 208.696C136.724 209.826 137.359 211.359 137.361 212.958V226.24C137.359 227.839 136.724 229.371 135.595 230.502C134.465 231.632 132.934 232.268 131.336 232.27Z" fill="#F2F2F2"/>
<path d="M131.336 164.187H32.8609C31.2636 164.185 29.7321 163.549 28.6026 162.419C27.4731 161.288 26.8378 159.756 26.8359 158.157V144.875C26.8378 143.276 27.4731 141.743 28.6026 140.613C29.7321 139.482 31.2636 138.847 32.8609 138.845H131.336C132.934 138.847 134.465 139.482 135.595 140.613C136.724 141.743 137.359 143.276 137.361 144.875V158.157C137.359 159.756 136.724 161.288 135.595 162.419C134.465 163.549 132.934 164.185 131.336 164.187V164.187Z" fill="#F2F2F2"/>
<path d="M131.336 198.228H32.8609C31.2636 198.226 29.7321 197.59 28.6026 196.46C27.4731 195.329 26.8378 193.797 26.8359 192.198V178.916C26.8378 177.317 27.4731 175.784 28.6026 174.654C29.7321 173.523 31.2636 172.888 32.8609 172.886H131.336C132.934 172.888 134.465 173.523 135.595 174.654C136.724 175.784 137.359 177.317 137.361 178.916V192.198C137.359 193.797 136.724 195.329 135.595 196.46C134.465 197.59 132.934 198.226 131.336 198.228V198.228Z" fill="#F2F2F2"/>
<path d="M94.0629 217.326H65.048C64.7037 217.326 64.3736 217.189 64.1302 216.945C63.8867 216.701 63.75 216.371 63.75 216.027C63.75 215.682 63.8867 215.352 64.1302 215.108C64.3736 214.864 64.7037 214.728 65.048 214.728H94.0629C94.4072 214.728 94.7373 214.864 94.9807 215.108C95.2241 215.352 95.3609 215.682 95.3609 216.027C95.3609 216.371 95.2241 216.701 94.9807 216.945C94.7373 217.189 94.4072 217.326 94.0629 217.326V217.326Z" fill="white"/>
<path d="M121.97 224.47H64.7238C64.3795 224.47 64.0494 224.333 63.8059 224.09C63.5625 223.846 63.4258 223.516 63.4258 223.171C63.4258 222.827 63.5625 222.496 63.8059 222.253C64.0494 222.009 64.3795 221.872 64.7238 221.872H121.97C122.314 221.872 122.644 222.009 122.887 222.253C123.131 222.496 123.268 222.827 123.268 223.171C123.268 223.516 123.131 223.846 122.887 224.09C122.644 224.333 122.314 224.47 121.97 224.47V224.47Z" fill="white"/>
<path d="M49.6322 228.309C54.4385 228.309 58.3347 224.409 58.3347 219.599C58.3347 214.789 54.4385 210.89 49.6322 210.89C44.8259 210.89 40.9297 214.789 40.9297 219.599C40.9297 224.409 44.8259 228.309 49.6322 228.309Z" fill="white"/>
<path d="M210.055 164.187H111.58C109.982 164.185 108.451 163.549 107.321 162.419C106.192 161.288 105.557 159.756 105.555 158.157V144.875C105.557 143.276 106.192 141.743 107.321 140.613C108.451 139.482 109.982 138.847 111.58 138.845H210.055C211.652 138.847 213.184 139.482 214.313 140.613C215.443 141.743 216.078 143.276 216.08 144.875V158.157C216.078 159.756 215.443 161.288 214.313 162.419C213.184 163.549 211.652 164.185 210.055 164.187V164.187Z" fill="#E6E6E6"/>
<path d="M172.782 149.243H143.767C143.422 149.243 143.092 149.106 142.849 148.862C142.605 148.618 142.469 148.288 142.469 147.944C142.469 147.599 142.605 147.269 142.849 147.025C143.092 146.781 143.422 146.645 143.767 146.645H172.782C173.126 146.645 173.456 146.781 173.699 147.025C173.943 147.269 174.08 147.599 174.08 147.944C174.08 148.288 173.943 148.618 173.699 148.862C173.456 149.106 173.126 149.243 172.782 149.243V149.243Z" fill="white"/>
<path d="M200.688 156.387H143.443C143.098 156.387 142.768 156.25 142.525 156.007C142.281 155.763 142.145 155.433 142.145 155.088C142.145 154.744 142.281 154.413 142.525 154.17C142.768 153.926 143.098 153.789 143.443 153.789H200.688C201.033 153.789 201.363 153.926 201.606 154.17C201.85 154.413 201.986 154.744 201.986 155.088C201.986 155.433 201.85 155.763 201.606 156.007C201.363 156.25 201.033 156.387 200.688 156.387V156.387Z" fill="white"/>
<path d="M128.351 160.225C133.157 160.225 137.053 156.325 137.053 151.515C137.053 146.705 133.157 142.806 128.351 142.806C123.545 142.806 119.648 146.705 119.648 151.515C119.648 156.325 123.545 160.225 128.351 160.225Z" fill="white"/>
<path d="M178.473 198.228H79.9976C78.4003 198.226 76.8688 197.59 75.7393 196.46C74.6098 195.329 73.9745 193.797 73.9727 192.198V178.916C73.9745 177.317 74.6098 175.784 75.7393 174.654C76.8688 173.523 78.4003 172.888 79.9976 172.886H178.473C180.07 172.888 181.602 173.523 182.731 174.654C183.861 175.784 184.496 177.317 184.498 178.916V192.198C184.496 193.797 183.861 195.329 182.731 196.46C181.602 197.59 180.07 198.226 178.473 198.228V198.228Z" fill="#E6E6E6"/>
<path d="M141.196 183.284H112.181C111.837 183.284 111.506 183.147 111.263 182.903C111.02 182.66 110.883 182.329 110.883 181.985C110.883 181.64 111.02 181.31 111.263 181.066C111.506 180.822 111.837 180.686 112.181 180.686H141.196C141.54 180.686 141.87 180.822 142.114 181.066C142.357 181.31 142.494 181.64 142.494 181.985C142.494 182.329 142.357 182.66 142.114 182.903C141.87 183.147 141.54 183.284 141.196 183.284V183.284Z" fill="white"/>
<path d="M169.102 190.428H111.857C111.512 190.428 111.182 190.291 110.939 190.048C110.695 189.804 110.559 189.474 110.559 189.129C110.559 188.785 110.695 188.454 110.939 188.211C111.182 187.967 111.512 187.83 111.857 187.83H169.102C169.447 187.83 169.777 187.967 170.02 188.211C170.264 188.454 170.4 188.785 170.4 189.129C170.4 189.474 170.264 189.804 170.02 190.048C169.777 190.291 169.447 190.428 169.102 190.428V190.428Z" fill="white"/>
<path d="M96.765 194.267C101.571 194.267 105.468 190.367 105.468 185.557C105.468 180.747 101.571 176.848 96.765 176.848C91.9588 176.848 88.0625 180.747 88.0625 185.557C88.0625 190.367 91.9588 194.267 96.765 194.267Z" fill="white"/>
</g>
<defs>
<clipPath id="clip0_308_5682">
<rect width="216" height="290" fill="white"/>
</clipPath>
</defs>
</svg>
