<svg width="341" height="276" viewBox="0 0 341 276" fill="none" xmlns="http://www.w3.org/2000/svg">
<g clip-path="url(#clip0_308_5797)">
<path d="M30.7024 0C30.1982 0.000553444 29.7149 0.200972 29.3584 0.557291C29.0019 0.913609 28.8013 1.39672 28.8008 1.90063V66.7272C28.8013 67.2311 29.0019 67.7142 29.3584 68.0705C29.7149 68.4268 30.1982 68.6273 30.7024 68.6278H251.868C252.373 68.6273 252.856 68.4268 253.213 68.0705C253.569 67.7142 253.77 67.2311 253.77 66.7272V1.90063C253.77 1.39672 253.569 0.913609 253.213 0.557291C252.856 0.200972 252.373 0.000553444 251.868 0H30.7024Z" fill="#E6E6E6"/>
<path d="M33.5625 63.8657H249.001V4.7627H33.5625V63.8657Z" fill="white"/>
<path d="M221.81 51.6035C221.397 51.6035 220.987 51.685 220.605 51.8432C220.223 52.0014 219.875 52.2333 219.583 52.5257C219.29 52.8181 219.058 53.1652 218.9 53.5472C218.742 53.9292 218.66 54.3386 218.66 54.7521C218.66 55.1656 218.742 55.575 218.9 55.957C219.058 56.339 219.29 56.6861 219.583 56.9784C219.875 57.2708 220.223 57.5027 220.605 57.661C220.987 57.8192 221.397 57.9006 221.81 57.9006H234.411C234.824 57.9006 235.234 57.8192 235.616 57.661C235.998 57.5027 236.346 57.2708 236.638 56.9784C236.931 56.6861 237.163 56.339 237.321 55.957C237.479 55.575 237.561 55.1656 237.561 54.7521C237.561 54.3386 237.479 53.9292 237.321 53.5472C237.163 53.1652 236.931 52.8181 236.638 52.5257C236.346 52.2333 235.998 52.0014 235.616 51.8432C235.234 51.685 234.824 51.6035 234.411 51.6035H221.81Z" fill="#70CBF2"/>
<path d="M237.559 45.4971H92.1016V46.3258H237.559V45.4971Z" fill="#E6E6E6"/>
<path d="M61.6993 52.6515C71.8325 52.6515 80.0471 44.4413 80.0471 34.3136C80.0471 24.1858 71.8325 15.9756 61.6993 15.9756C51.5661 15.9756 43.3516 24.1858 43.3516 34.3136C43.3516 44.4413 51.5661 52.6515 61.6993 52.6515Z" fill="#E6E6E6"/>
<path d="M92.3346 40.871L91.875 40.1817L106.99 30.1105L117.354 35.0834L132.263 25.5635L132.464 25.6492L161.92 38.2079L185.537 26.6124L208.471 35.9051L237.287 41.7597L237.836 42.38L208.635 36.8662L185.569 27.5192L161.943 39.1181L132.34 26.4967L117.411 36.0292L107.055 31.0612L92.3346 40.871Z" fill="#1E232C"/>
<path d="M94.795 52.0375C94.0882 52.0488 93.4141 52.3375 92.9183 52.8411C92.4224 53.3447 92.1445 54.0229 92.1445 54.7295C92.1445 55.4361 92.4224 56.1143 92.9183 56.6179C93.4141 57.1216 94.0882 57.4102 94.795 57.4215H122.975C123.688 57.4321 124.377 57.159 124.89 56.6623C125.402 56.1657 125.696 55.486 125.708 54.7726C125.719 54.0592 125.447 53.3705 124.951 52.8577C124.454 52.3448 123.775 52.0498 123.061 52.0375C123.032 52.037 123.003 52.037 122.975 52.0375H94.795Z" fill="#E6E6E6"/>
<path d="M69.079 34.0866C68.8727 33.8803 68.5928 33.7645 68.301 33.7644C68.0092 33.7644 67.7293 33.8803 67.5229 34.0865L67.5229 34.0866L62.7992 38.8077V27.1658C62.7968 26.8757 62.6798 26.5984 62.4737 26.3941C62.2676 26.1898 61.9891 26.0752 61.6988 26.0752C61.4086 26.0752 61.13 26.1898 60.924 26.3941C60.7179 26.5984 60.6009 26.8757 60.5984 27.1658V38.8077L55.8748 34.0865C55.6688 33.8805 55.3894 33.7646 55.098 33.7642C54.8066 33.7638 54.527 33.8789 54.3204 34.0843C54.1138 34.2897 53.9972 34.5687 53.9961 34.8599C53.995 35.1511 54.1096 35.4309 54.3146 35.6379L54.3186 35.6418L60.9207 42.2405C61.1271 42.4467 61.407 42.5626 61.6988 42.5626C61.9907 42.5626 62.2705 42.4467 62.4769 42.2405L69.079 35.6418C69.2854 35.4356 69.4013 35.1559 69.4013 34.8642C69.4013 34.5725 69.2854 34.2928 69.079 34.0866Z" fill="white"/>
<path d="M117.71 103.822C117.206 103.823 116.723 104.023 116.366 104.38C116.01 104.736 115.809 105.219 115.809 105.723V170.549C115.809 171.053 116.01 171.536 116.366 171.893C116.723 172.249 117.206 172.45 117.71 172.45H338.877C339.381 172.45 339.865 172.249 340.221 171.893C340.578 171.536 340.778 171.053 340.779 170.549V105.723C340.778 105.219 340.578 104.736 340.221 104.38C339.865 104.023 339.381 103.823 338.877 103.822H117.71Z" fill="#E6E6E6"/>
<path d="M120.574 167.688H336.013V108.585H120.574V167.688Z" fill="white"/>
<path d="M308.822 155.428C307.987 155.428 307.185 155.759 306.595 156.35C306.004 156.94 305.672 157.741 305.672 158.576C305.672 159.411 306.004 160.212 306.595 160.803C307.185 161.393 307.987 161.725 308.822 161.725H321.421C322.257 161.725 323.058 161.393 323.649 160.803C324.239 160.212 324.571 159.411 324.571 158.576C324.571 157.741 324.239 156.94 323.649 156.35C323.058 155.759 322.257 155.428 321.421 155.428H308.822Z" fill="#70CBF2"/>
<path d="M324.57 149.32H179.113V150.149H324.57V149.32Z" fill="#E6E6E6"/>
<path d="M148.707 156.476C158.84 156.476 167.055 148.266 167.055 138.138C167.055 128.01 158.84 119.8 148.707 119.8C138.574 119.8 130.359 128.01 130.359 138.138C130.359 148.266 138.574 156.476 148.707 156.476Z" fill="#70CBF2"/>
<path d="M179.343 144.694L178.883 144.005L193.998 133.934L204.363 138.907L219.271 129.387L219.473 129.473L248.928 142.031L272.546 130.436L295.479 139.728L324.295 114.219L324.845 114.839L295.643 140.687L272.578 131.341L248.952 142.939L219.349 130.318L204.42 139.851L194.067 134.885L179.343 144.694Z" fill="#1E232C"/>
<path d="M181.808 155.861C181.094 155.849 180.404 156.122 179.891 156.618C179.377 157.115 179.082 157.795 179.071 158.509C179.059 159.223 179.332 159.912 179.829 160.425C180.325 160.938 181.006 161.233 181.72 161.245C181.75 161.245 181.779 161.245 181.808 161.245H209.988C210.694 161.233 211.368 160.945 211.864 160.441C212.36 159.938 212.638 159.259 212.638 158.553C212.638 157.846 212.36 157.168 211.864 156.664C211.368 156.161 210.694 155.872 209.988 155.861H181.808Z" fill="#E6E6E6"/>
<path d="M141.33 138.365C141.432 138.467 141.554 138.548 141.687 138.603C141.821 138.658 141.964 138.687 142.108 138.687C142.253 138.687 142.396 138.658 142.529 138.603C142.663 138.548 142.784 138.467 142.886 138.365L142.886 138.365L147.61 133.644V145.285C147.61 145.577 147.726 145.857 147.932 146.063C148.139 146.269 148.419 146.385 148.71 146.385C149.002 146.385 149.282 146.269 149.488 146.063C149.695 145.857 149.811 145.577 149.811 145.285V133.644L154.534 138.365C154.637 138.467 154.758 138.548 154.891 138.603C155.025 138.658 155.168 138.687 155.312 138.687C155.457 138.687 155.6 138.658 155.734 138.603C155.867 138.548 155.988 138.467 156.091 138.365C156.193 138.263 156.274 138.141 156.329 138.008C156.384 137.875 156.413 137.732 156.413 137.587C156.413 137.443 156.384 137.3 156.329 137.166C156.274 137.033 156.193 136.912 156.091 136.809L149.488 130.211C149.282 130.005 149.002 129.889 148.71 129.889C148.419 129.889 148.139 130.005 147.932 130.211L141.33 136.809C141.124 137.016 141.008 137.295 141.008 137.587C141.008 137.879 141.124 138.158 141.33 138.365Z" fill="white"/>
<path d="M1.90165 207.646C1.39747 207.647 0.914107 207.847 0.557599 208.204C0.20109 208.56 0.000553739 209.043 0 209.547V274.374C0.000553739 274.878 0.20109 275.361 0.557599 275.717C0.914107 276.073 1.39747 276.274 1.90165 276.274H223.068C223.572 276.274 224.055 276.073 224.412 275.717C224.768 275.361 224.969 274.878 224.969 274.374V209.547C224.969 209.043 224.768 208.56 224.412 208.204C224.055 207.847 223.572 207.647 223.068 207.646H1.90165Z" fill="#E6E6E6"/>
<path d="M4.76562 271.511H220.204V212.408H4.76562V271.511Z" fill="white"/>
<path d="M193.01 259.25C192.174 259.25 191.373 259.582 190.782 260.172C190.191 260.763 189.859 261.564 189.859 262.399C189.859 263.234 190.191 264.034 190.782 264.625C191.373 265.215 192.174 265.547 193.01 265.547H205.61C206.445 265.547 207.247 265.215 207.837 264.625C208.428 264.034 208.76 263.234 208.76 262.399C208.76 261.564 208.428 260.763 207.837 260.172C207.247 259.582 206.445 259.25 205.61 259.25H193.01Z" fill="#70CBF2"/>
<path d="M208.762 253.144H63.3047V253.972H208.762V253.144Z" fill="#E6E6E6"/>
<path d="M32.8985 260.298C43.0317 260.298 51.2463 252.088 51.2463 241.96C51.2463 231.832 43.0317 223.622 32.8985 223.622C22.7654 223.622 14.5508 231.832 14.5508 241.96C14.5508 252.088 22.7654 260.298 32.8985 260.298Z" fill="#70CBF2"/>
<path d="M63.5338 248.517L63.0742 247.828L78.1891 237.756L88.5537 242.729L103.463 233.206L133.119 245.85L156.736 234.255L179.667 243.55L208.483 231.98L209.033 232.601L179.835 244.511L156.769 235.165L133.144 246.764L103.54 234.142L88.6123 243.676L78.2567 238.708L63.5338 248.517Z" fill="#1E232C"/>
<path d="M65.9981 259.683C65.2913 259.694 64.6172 259.983 64.1214 260.487C63.6256 260.99 63.3477 261.668 63.3477 262.375C63.3477 263.082 63.6256 263.76 64.1214 264.263C64.6172 264.767 65.2913 265.056 65.9981 265.067H94.1777C94.5314 265.073 94.8828 265.009 95.2118 264.879C95.5408 264.749 95.841 264.555 96.0951 264.31C96.3493 264.064 96.5526 263.77 96.6933 263.446C96.8339 263.121 96.9093 262.772 96.9151 262.419C96.9208 262.065 96.8569 261.714 96.7268 261.385C96.5968 261.057 96.4032 260.756 96.1572 260.502C95.9111 260.248 95.6174 260.045 95.2928 259.905C94.9683 259.764 94.6191 259.689 94.2654 259.683C94.2362 259.683 94.207 259.683 94.1777 259.683H65.9981Z" fill="#E6E6E6"/>
<path d="M25.5176 242.188C25.6198 242.29 25.7411 242.371 25.8746 242.426C26.0081 242.482 26.1511 242.51 26.2956 242.51C26.4401 242.51 26.5832 242.482 26.7167 242.426C26.8502 242.371 26.9715 242.29 27.0737 242.188L27.0738 242.188L31.7975 237.467V249.109C31.7988 249.399 31.9148 249.677 32.1203 249.882C32.3257 250.087 32.604 250.203 32.8943 250.204C33.1847 250.204 33.4637 250.091 33.6705 249.887C33.8772 249.683 33.995 249.406 33.9982 249.116V237.467L38.7219 242.188C38.9277 242.395 39.2073 242.511 39.4991 242.512C39.791 242.513 40.0712 242.398 40.278 242.192C40.4849 241.986 40.6016 241.707 40.6023 241.415C40.6031 241.123 40.4879 240.843 40.282 240.637L40.2781 240.633L33.6759 234.034C33.4696 233.828 33.1897 233.712 32.8978 233.712C32.606 233.712 32.3261 233.828 32.1198 234.034L25.5176 240.633C25.4154 240.735 25.3344 240.856 25.2791 240.989C25.2238 241.123 25.1953 241.266 25.1953 241.41C25.1953 241.555 25.2238 241.698 25.2791 241.831C25.3344 241.965 25.4154 242.086 25.5176 242.188Z" fill="white"/>
</g>
<defs>
<clipPath id="clip0_308_5797">
<rect width="341" height="276" fill="white"/>
</clipPath>
</defs>
</svg>
