<svg width="284" height="207" viewBox="0 0 284 207" fill="none" xmlns="http://www.w3.org/2000/svg">
<g clip-path="url(#clip0_308_5903)">
<path d="M0 157.094C3.13563 160.817 6.52718 164.316 10.1498 167.566L273.85 167.927C277.473 164.678 280.864 161.179 284 157.455L0 157.094Z" fill="#48546A"/>
<path d="M178.824 123.563V154.564C178.825 154.959 178.981 155.338 179.26 155.617C179.539 155.896 179.917 156.053 180.311 156.054H226.153C226.547 156.053 226.925 155.896 227.204 155.617C227.483 155.338 227.639 154.959 227.64 154.564V123.563C227.639 123.168 227.482 122.79 227.203 122.511C226.924 122.232 226.547 122.075 226.153 122.074H180.311C179.917 122.075 179.539 122.232 179.261 122.511C178.982 122.79 178.825 123.168 178.824 123.563Z" fill="#48546A"/>
<path d="M179.898 123.948V154.181C179.899 154.393 179.983 154.595 180.132 154.744C180.28 154.893 180.482 154.977 180.693 154.978H225.77C225.981 154.977 226.183 154.893 226.331 154.744C226.48 154.595 226.564 154.393 226.565 154.181V123.948C226.565 123.737 226.481 123.534 226.332 123.385C226.183 123.235 225.981 123.151 225.77 123.15H180.693C180.482 123.151 180.28 123.235 180.131 123.385C179.982 123.534 179.898 123.737 179.898 123.948Z" fill="#57C0B3"/>
<path d="M177.863 160.61C177.947 160.715 178.054 160.8 178.175 160.858C178.297 160.917 178.43 160.947 178.565 160.946H227.651C227.785 160.946 227.917 160.916 228.038 160.858C228.16 160.8 228.266 160.715 228.351 160.611C228.435 160.506 228.496 160.384 228.527 160.254C228.559 160.123 228.561 159.987 228.533 159.855L227.772 156.228C227.74 156.08 227.672 155.942 227.574 155.827C227.475 155.713 227.35 155.624 227.209 155.57C227.107 155.53 226.998 155.51 226.889 155.51H179.324C179.214 155.51 179.105 155.53 179.003 155.57C178.862 155.624 178.737 155.713 178.639 155.827C178.54 155.942 178.472 156.08 178.441 156.228L177.679 159.855C177.652 159.987 177.654 160.123 177.686 160.253C177.718 160.384 177.779 160.505 177.863 160.61Z" fill="#343C4C"/>
<path d="M225.207 157.072H226.367C226.464 157.072 226.543 156.993 226.543 156.896V156.34C226.543 156.242 226.464 156.163 226.367 156.163H225.207C225.11 156.163 225.031 156.242 225.031 156.34V156.896C225.031 156.993 225.11 157.072 225.207 157.072Z" fill="#48546A"/>
<path d="M222.184 157.072H223.343C223.441 157.072 223.52 156.993 223.52 156.896V156.34C223.52 156.242 223.441 156.163 223.343 156.163H222.184C222.087 156.163 222.008 156.242 222.008 156.34V156.896C222.008 156.993 222.087 157.072 222.184 157.072Z" fill="#48546A"/>
<path d="M219.16 157.072H220.32C220.417 157.072 220.496 156.993 220.496 156.896V156.34C220.496 156.242 220.417 156.163 220.32 156.163H219.16C219.063 156.163 218.984 156.242 218.984 156.34V156.896C218.984 156.993 219.063 157.072 219.16 157.072Z" fill="#48546A"/>
<path d="M216.137 157.072H217.296C217.394 157.072 217.473 156.993 217.473 156.896V156.34C217.473 156.242 217.394 156.163 217.296 156.163H216.137C216.04 156.163 215.961 156.242 215.961 156.34V156.896C215.961 156.993 216.04 157.072 216.137 157.072Z" fill="#48546A"/>
<path d="M213.11 157.072H214.269C214.366 157.072 214.445 156.993 214.445 156.896V156.34C214.445 156.242 214.366 156.163 214.269 156.163H213.11C213.012 156.163 212.933 156.242 212.933 156.34V156.896C212.933 156.993 213.012 157.072 213.11 157.072Z" fill="#48546A"/>
<path d="M210.086 157.072H211.246C211.343 157.072 211.422 156.993 211.422 156.896V156.34C211.422 156.242 211.343 156.163 211.246 156.163H210.086C209.989 156.163 209.91 156.242 209.91 156.34V156.896C209.91 156.993 209.989 157.072 210.086 157.072Z" fill="#48546A"/>
<path d="M207.063 157.072H208.222C208.32 157.072 208.398 156.993 208.398 156.896V156.34C208.398 156.242 208.32 156.163 208.222 156.163H207.063C206.966 156.163 206.887 156.242 206.887 156.34V156.896C206.887 156.993 206.966 157.072 207.063 157.072Z" fill="#48546A"/>
<path d="M204.039 157.072H205.199C205.296 157.072 205.375 156.993 205.375 156.896V156.34C205.375 156.242 205.296 156.163 205.199 156.163H204.039C203.942 156.163 203.863 156.242 203.863 156.34V156.896C203.863 156.993 203.942 157.072 204.039 157.072Z" fill="#48546A"/>
<path d="M201.016 157.072H202.175C202.273 157.072 202.352 156.993 202.352 156.896V156.34C202.352 156.242 202.273 156.163 202.175 156.163H201.016C200.919 156.163 200.84 156.242 200.84 156.34V156.896C200.84 156.993 200.919 157.072 201.016 157.072Z" fill="#48546A"/>
<path d="M197.993 157.072H199.152C199.249 157.072 199.328 156.993 199.328 156.896V156.34C199.328 156.242 199.249 156.163 199.152 156.163H197.993C197.895 156.163 197.816 156.242 197.816 156.34V156.896C197.816 156.993 197.895 157.072 197.993 157.072Z" fill="#48546A"/>
<path d="M194.969 157.072H196.128C196.226 157.072 196.305 156.993 196.305 156.896V156.34C196.305 156.242 196.226 156.163 196.128 156.163H194.969C194.872 156.163 194.793 156.242 194.793 156.34V156.896C194.793 156.993 194.872 157.072 194.969 157.072Z" fill="#48546A"/>
<path d="M191.946 157.072H193.105C193.202 157.072 193.281 156.993 193.281 156.896V156.34C193.281 156.242 193.202 156.163 193.105 156.163H191.946C191.848 156.163 191.769 156.242 191.769 156.34V156.896C191.769 156.993 191.848 157.072 191.946 157.072Z" fill="#48546A"/>
<path d="M188.922 157.072H190.082C190.179 157.072 190.258 156.993 190.258 156.896V156.34C190.258 156.242 190.179 156.163 190.082 156.163H188.922C188.825 156.163 188.746 156.242 188.746 156.34V156.896C188.746 156.993 188.825 157.072 188.922 157.072Z" fill="#48546A"/>
<path d="M185.899 157.072H187.058C187.155 157.072 187.234 156.993 187.234 156.896V156.34C187.234 156.242 187.155 156.163 187.058 156.163H185.899C185.801 156.163 185.723 156.242 185.723 156.34V156.896C185.723 156.993 185.801 157.072 185.899 157.072Z" fill="#48546A"/>
<path d="M182.875 157.072H184.035C184.132 157.072 184.211 156.993 184.211 156.896V156.34C184.211 156.242 184.132 156.163 184.035 156.163H182.875C182.778 156.163 182.699 156.242 182.699 156.34V156.896C182.699 156.993 182.778 157.072 182.875 157.072Z" fill="#48546A"/>
<path d="M179.852 157.072H181.011C181.109 157.072 181.188 156.993 181.188 156.896V156.34C181.188 156.242 181.109 156.163 181.011 156.163H179.852C179.755 156.163 179.676 156.242 179.676 156.34V156.896C179.676 156.993 179.755 157.072 179.852 157.072Z" fill="#48546A"/>
<path d="M225.243 158.587H226.402C226.499 158.587 226.578 158.508 226.578 158.41V157.854C226.578 157.757 226.499 157.678 226.402 157.678H225.243C225.145 157.678 225.066 157.757 225.066 157.854V158.41C225.066 158.508 225.145 158.587 225.243 158.587Z" fill="#48546A"/>
<path d="M222.219 158.587H223.378C223.476 158.587 223.555 158.508 223.555 158.41V157.854C223.555 157.757 223.476 157.678 223.378 157.678H222.219C222.122 157.678 222.043 157.757 222.043 157.854V158.41C222.043 158.508 222.122 158.587 222.219 158.587Z" fill="#48546A"/>
<path d="M219.196 158.587H220.355C220.452 158.587 220.531 158.508 220.531 158.41V157.854C220.531 157.757 220.452 157.678 220.355 157.678H219.196C219.098 157.678 219.019 157.757 219.019 157.854V158.41C219.019 158.508 219.098 158.587 219.196 158.587Z" fill="#48546A"/>
<path d="M216.172 158.587H217.332C217.429 158.587 217.508 158.508 217.508 158.41V157.854C217.508 157.757 217.429 157.678 217.332 157.678H216.172C216.075 157.678 215.996 157.757 215.996 157.854V158.41C215.996 158.508 216.075 158.587 216.172 158.587Z" fill="#48546A"/>
<path d="M213.149 158.587H214.308C214.405 158.587 214.484 158.508 214.484 158.41V157.854C214.484 157.757 214.405 157.678 214.308 157.678H213.149C213.051 157.678 212.973 157.757 212.973 157.854V158.41C212.973 158.508 213.051 158.587 213.149 158.587Z" fill="#48546A"/>
<path d="M210.125 158.587H211.285C211.382 158.587 211.461 158.508 211.461 158.41V157.854C211.461 157.757 211.382 157.678 211.285 157.678H210.125C210.028 157.678 209.949 157.757 209.949 157.854V158.41C209.949 158.508 210.028 158.587 210.125 158.587Z" fill="#48546A"/>
<path d="M207.102 158.587H208.261C208.359 158.587 208.438 158.508 208.438 158.41V157.854C208.438 157.757 208.359 157.678 208.261 157.678H207.102C207.005 157.678 206.926 157.757 206.926 157.854V158.41C206.926 158.508 207.005 158.587 207.102 158.587Z" fill="#48546A"/>
<path d="M204.075 158.587H205.234C205.331 158.587 205.41 158.508 205.41 158.41V157.854C205.41 157.757 205.331 157.678 205.234 157.678H204.075C203.977 157.678 203.898 157.757 203.898 157.854V158.41C203.898 158.508 203.977 158.587 204.075 158.587Z" fill="#48546A"/>
<path d="M201.051 158.587H202.211C202.308 158.587 202.387 158.508 202.387 158.41V157.854C202.387 157.757 202.308 157.678 202.211 157.678H201.051C200.954 157.678 200.875 157.757 200.875 157.854V158.41C200.875 158.508 200.954 158.587 201.051 158.587Z" fill="#48546A"/>
<path d="M198.028 158.587H199.187C199.284 158.587 199.363 158.508 199.363 158.41V157.854C199.363 157.757 199.284 157.678 199.187 157.678H198.028C197.93 157.678 197.851 157.757 197.851 157.854V158.41C197.851 158.508 197.93 158.587 198.028 158.587Z" fill="#48546A"/>
<path d="M195.004 158.587H196.164C196.261 158.587 196.34 158.508 196.34 158.41V157.854C196.34 157.757 196.261 157.678 196.164 157.678H195.004C194.907 157.678 194.828 157.757 194.828 157.854V158.41C194.828 158.508 194.907 158.587 195.004 158.587Z" fill="#48546A"/>
<path d="M191.981 158.587H193.14C193.238 158.587 193.316 158.508 193.316 158.41V157.854C193.316 157.757 193.238 157.678 193.14 157.678H191.981C191.883 157.678 191.805 157.757 191.805 157.854V158.41C191.805 158.508 191.883 158.587 191.981 158.587Z" fill="#48546A"/>
<path d="M188.957 158.587H190.117C190.214 158.587 190.293 158.508 190.293 158.41V157.854C190.293 157.757 190.214 157.678 190.117 157.678H188.957C188.86 157.678 188.781 157.757 188.781 157.854V158.41C188.781 158.508 188.86 158.587 188.957 158.587Z" fill="#48546A"/>
<path d="M185.934 158.587H187.093C187.191 158.587 187.27 158.508 187.27 158.41V157.854C187.27 157.757 187.191 157.678 187.093 157.678H185.934C185.837 157.678 185.758 157.757 185.758 157.854V158.41C185.758 158.508 185.837 158.587 185.934 158.587Z" fill="#48546A"/>
<path d="M182.91 158.587H184.07C184.167 158.587 184.246 158.508 184.246 158.41V157.854C184.246 157.757 184.167 157.678 184.07 157.678H182.91C182.813 157.678 182.734 157.757 182.734 157.854V158.41C182.734 158.508 182.813 158.587 182.91 158.587Z" fill="#48546A"/>
<path d="M179.887 158.587H181.046C181.144 158.587 181.223 158.508 181.223 158.41V157.854C181.223 157.757 181.144 157.678 181.046 157.678H179.887C179.79 157.678 179.711 157.757 179.711 157.854V158.41C179.711 158.508 179.79 158.587 179.887 158.587Z" fill="#48546A"/>
<path d="M200.144 160.405H211.886C211.984 160.405 212.062 160.326 212.062 160.229V159.673C212.062 159.575 211.984 159.496 211.886 159.496H200.144C200.047 159.496 199.968 159.575 199.968 159.673V160.229C199.968 160.326 200.047 160.405 200.144 160.405Z" fill="#48546A"/>
<path d="M187.707 129.765H186.681C186.369 129.765 186.117 130.017 186.117 130.329C186.117 130.641 186.369 130.894 186.681 130.894H187.707C188.018 130.894 188.271 130.641 188.271 130.329C188.271 130.017 188.018 129.765 187.707 129.765Z" fill="white"/>
<path d="M199.445 129.765H198.419C198.108 129.765 197.855 130.017 197.855 130.329C197.855 130.641 198.108 130.894 198.419 130.894H199.445C199.757 130.894 200.009 130.641 200.009 130.329C200.009 130.017 199.757 129.765 199.445 129.765Z" fill="white"/>
<path d="M202.77 129.765H201.743C201.432 129.765 201.18 130.017 201.18 130.329C201.18 130.641 201.432 130.894 201.743 130.894H202.77C203.081 130.894 203.333 130.641 203.333 130.329C203.333 130.017 203.081 129.765 202.77 129.765Z" fill="white"/>
<path d="M196.251 129.67H189.872C189.561 129.67 189.309 129.923 189.309 130.235C189.309 130.546 189.561 130.799 189.872 130.799H196.251C196.563 130.799 196.815 130.546 196.815 130.235C196.815 129.923 196.563 129.67 196.251 129.67Z" fill="white"/>
<path d="M211.904 129.67H205.524C205.213 129.67 204.961 129.923 204.961 130.235C204.961 130.546 205.213 130.799 205.524 130.799H211.904C212.215 130.799 212.467 130.546 212.467 130.235C212.467 129.923 212.215 129.67 211.904 129.67Z" fill="white"/>
<path d="M190.836 132.313H189.81C189.498 132.313 189.246 132.566 189.246 132.878C189.246 133.19 189.498 133.443 189.81 133.443H190.836C191.147 133.443 191.399 133.19 191.399 132.878C191.399 132.566 191.147 132.313 190.836 132.313Z" fill="white"/>
<path d="M202.574 132.313H201.548C201.237 132.313 200.984 132.566 200.984 132.878C200.984 133.19 201.237 133.443 201.548 133.443H202.574C202.885 133.443 203.138 133.19 203.138 132.878C203.138 132.566 202.885 132.313 202.574 132.313Z" fill="white"/>
<path d="M205.902 132.313H204.876C204.565 132.313 204.312 132.566 204.312 132.878C204.312 133.19 204.565 133.443 204.876 133.443H205.902C206.214 133.443 206.466 133.19 206.466 132.878C206.466 132.566 206.214 132.313 205.902 132.313Z" fill="white"/>
<path d="M199.38 132.219H193.001C192.69 132.219 192.438 132.472 192.438 132.783C192.438 133.095 192.69 133.348 193.001 133.348H199.38C199.692 133.348 199.944 133.095 199.944 132.783C199.944 132.472 199.692 132.219 199.38 132.219Z" fill="white"/>
<path d="M215.033 132.219H208.653C208.342 132.219 208.09 132.472 208.09 132.783C208.09 133.095 208.342 133.348 208.653 133.348H215.033C215.344 133.348 215.596 133.095 215.596 132.783C215.596 132.472 215.344 132.219 215.033 132.219Z" fill="white"/>
<path d="M193.965 134.862H192.938C192.627 134.862 192.375 135.115 192.375 135.427C192.375 135.739 192.627 135.992 192.938 135.992H193.965C194.276 135.992 194.528 135.739 194.528 135.427C194.528 135.115 194.276 134.862 193.965 134.862Z" fill="white"/>
<path d="M205.703 134.862H204.677C204.366 134.862 204.113 135.115 204.113 135.427C204.113 135.739 204.366 135.992 204.677 135.992H205.703C206.014 135.992 206.267 135.739 206.267 135.427C206.267 135.115 206.014 134.862 205.703 134.862Z" fill="white"/>
<path d="M209.031 134.862H208.005C207.694 134.862 207.441 135.115 207.441 135.427C207.441 135.739 207.694 135.992 208.005 135.992H209.031C209.342 135.992 209.595 135.739 209.595 135.427C209.595 135.115 209.342 134.862 209.031 134.862Z" fill="white"/>
<path d="M202.513 134.768H196.134C195.823 134.768 195.57 135.02 195.57 135.332C195.57 135.644 195.823 135.897 196.134 135.897H202.513C202.824 135.897 203.077 135.644 203.077 135.332C203.077 135.02 202.824 134.768 202.513 134.768Z" fill="white"/>
<path d="M218.166 134.768H211.786C211.475 134.768 211.223 135.02 211.223 135.332C211.223 135.644 211.475 135.897 211.786 135.897H218.166C218.477 135.897 218.729 135.644 218.729 135.332C218.729 135.02 218.477 134.768 218.166 134.768Z" fill="white"/>
<path d="M197.098 137.411H196.071C195.76 137.411 195.508 137.664 195.508 137.976C195.508 138.288 195.76 138.54 196.071 138.54H197.098C197.409 138.54 197.661 138.288 197.661 137.976C197.661 137.664 197.409 137.411 197.098 137.411Z" fill="white"/>
<path d="M208.836 137.411H207.81C207.498 137.411 207.246 137.664 207.246 137.976C207.246 138.288 207.498 138.54 207.81 138.54H208.836C209.147 138.54 209.399 138.288 209.399 137.976C209.399 137.664 209.147 137.411 208.836 137.411Z" fill="white"/>
<path d="M212.16 137.411H211.134C210.823 137.411 210.57 137.664 210.57 137.976C210.57 138.288 210.823 138.54 211.134 138.54H212.16C212.471 138.54 212.724 138.288 212.724 137.976C212.724 137.664 212.471 137.411 212.16 137.411Z" fill="white"/>
<path d="M205.642 137.317H199.263C198.951 137.317 198.699 137.57 198.699 137.882C198.699 138.194 198.951 138.447 199.263 138.447H205.642C205.953 138.447 206.205 138.194 206.205 137.882C206.205 137.57 205.953 137.317 205.642 137.317Z" fill="white"/>
<path d="M199.445 147.547H198.419C198.108 147.547 197.855 147.8 197.855 148.112C197.855 148.423 198.108 148.676 198.419 148.676H199.445C199.757 148.676 200.009 148.423 200.009 148.112C200.009 147.8 199.757 147.547 199.445 147.547Z" fill="white"/>
<path d="M202.77 147.547H201.743C201.432 147.547 201.18 147.8 201.18 148.112C201.18 148.423 201.432 148.676 201.743 148.676H202.77C203.081 148.676 203.333 148.423 203.333 148.112C203.333 147.8 203.081 147.547 202.77 147.547Z" fill="white"/>
<path d="M211.904 147.641H205.524C205.213 147.641 204.961 147.893 204.961 148.205C204.961 148.517 205.213 148.77 205.524 148.77H211.904C212.215 148.77 212.467 148.517 212.467 148.205C212.467 147.893 212.215 147.641 211.904 147.641Z" fill="white"/>
<path d="M187.707 147.547H186.681C186.369 147.547 186.117 147.8 186.117 148.112C186.117 148.423 186.369 148.676 186.681 148.676H187.707C188.018 148.676 188.271 148.423 188.271 148.112C188.271 147.8 188.018 147.547 187.707 147.547Z" fill="white"/>
<path d="M196.251 147.641H189.872C189.561 147.641 189.309 147.893 189.309 148.205C189.309 148.517 189.561 148.77 189.872 148.77H196.251C196.563 148.77 196.815 148.517 196.815 148.205C196.815 147.893 196.563 147.641 196.251 147.641Z" fill="white"/>
<path d="M190.836 144.998H189.81C189.498 144.998 189.246 145.251 189.246 145.563C189.246 145.875 189.498 146.127 189.81 146.127H190.836C191.147 146.127 191.399 145.875 191.399 145.563C191.399 145.251 191.147 144.998 190.836 144.998Z" fill="white"/>
<path d="M202.574 144.998H201.548C201.237 144.998 200.984 145.251 200.984 145.563C200.984 145.875 201.237 146.127 201.548 146.127H202.574C202.885 146.127 203.138 145.875 203.138 145.563C203.138 145.251 202.885 144.998 202.574 144.998Z" fill="white"/>
<path d="M205.902 144.998H204.876C204.565 144.998 204.312 145.251 204.312 145.563C204.312 145.875 204.565 146.127 204.876 146.127H205.902C206.214 146.127 206.466 145.875 206.466 145.563C206.466 145.251 206.214 144.998 205.902 144.998Z" fill="white"/>
<path d="M199.38 145.092H193.001C192.69 145.092 192.438 145.345 192.438 145.656C192.438 145.968 192.69 146.221 193.001 146.221H199.38C199.692 146.221 199.944 145.968 199.944 145.656C199.944 145.345 199.692 145.092 199.38 145.092Z" fill="white"/>
<path d="M193.965 142.449H192.938C192.627 142.449 192.375 142.702 192.375 143.014C192.375 143.326 192.627 143.579 192.938 143.579H193.965C194.276 143.579 194.528 143.326 194.528 143.014C194.528 142.702 194.276 142.449 193.965 142.449Z" fill="white"/>
<path d="M205.703 142.449H204.677C204.366 142.449 204.113 142.702 204.113 143.014C204.113 143.326 204.366 143.579 204.677 143.579H205.703C206.014 143.579 206.267 143.326 206.267 143.014C206.267 142.702 206.014 142.449 205.703 142.449Z" fill="white"/>
<path d="M209.031 142.449H208.005C207.694 142.449 207.441 142.702 207.441 143.014C207.441 143.326 207.694 143.579 208.005 143.579H209.031C209.342 143.579 209.595 143.326 209.595 143.014C209.595 142.702 209.342 142.449 209.031 142.449Z" fill="white"/>
<path d="M202.513 142.543H196.134C195.823 142.543 195.57 142.796 195.57 143.108C195.57 143.42 195.823 143.672 196.134 143.672H202.513C202.824 143.672 203.077 143.42 203.077 143.108C203.077 142.796 202.824 142.543 202.513 142.543Z" fill="white"/>
<path d="M197.098 139.9H196.071C195.76 139.9 195.508 140.153 195.508 140.465C195.508 140.777 195.76 141.03 196.071 141.03H197.098C197.409 141.03 197.661 140.777 197.661 140.465C197.661 140.153 197.409 139.9 197.098 139.9Z" fill="white"/>
<path d="M208.836 139.9H207.81C207.498 139.9 207.246 140.153 207.246 140.465C207.246 140.777 207.498 141.03 207.81 141.03H208.836C209.147 141.03 209.399 140.777 209.399 140.465C209.399 140.153 209.147 139.9 208.836 139.9Z" fill="white"/>
<path d="M212.16 139.9H211.134C210.823 139.9 210.57 140.153 210.57 140.465C210.57 140.777 210.823 141.03 211.134 141.03H212.16C212.471 141.03 212.724 140.777 212.724 140.465C212.724 140.153 212.471 139.9 212.16 139.9Z" fill="white"/>
<path d="M205.642 139.994H199.263C198.951 139.994 198.699 140.247 198.699 140.559C198.699 140.871 198.951 141.124 199.263 141.124H205.642C205.953 141.124 206.205 140.871 206.205 140.559C206.205 140.247 205.953 139.994 205.642 139.994Z" fill="white"/>
<path d="M69.1914 122.075V159.173H95.1254V122.075C95.1259 121.808 95.0409 121.548 94.883 121.333C94.7252 121.118 94.5027 120.96 94.2483 120.881C94.1284 120.842 94.0028 120.822 93.8766 120.823H70.4439C70.2796 120.823 70.1169 120.855 69.965 120.918C69.8132 120.981 69.6751 121.073 69.5588 121.189C69.4425 121.305 69.3502 121.443 69.2871 121.595C69.2241 121.747 69.1916 121.91 69.1914 122.075ZM79.3124 134.822C79.3191 134.091 79.6138 133.392 80.1322 132.877C80.6507 132.362 81.351 132.073 82.0808 132.073C82.8106 132.073 83.5109 132.362 84.0294 132.877C84.5478 133.392 84.8425 134.091 84.8493 134.822V139.127C84.8455 139.86 84.5522 140.562 84.0334 141.079C83.5146 141.597 82.8126 141.887 82.0808 141.887C81.349 141.887 80.647 141.597 80.1282 141.079C79.6094 140.562 79.3161 139.86 79.3124 139.127V134.822Z" fill="#343C4C"/>
<path d="M69.1094 157.987V161.565C69.11 161.75 69.1834 161.928 69.3138 162.059C69.4443 162.19 69.6211 162.265 69.806 162.266H94.5056C94.6907 162.266 94.8679 162.191 94.9984 162.06C95.129 161.928 95.2022 161.75 95.2022 161.565V157.987H69.1094Z" fill="#48546A"/>
<path d="M28.3906 66.1816V133.918C28.3913 134.781 28.7338 135.609 29.3428 136.219C29.9519 136.83 30.7778 137.173 31.6391 137.174H131.802C132.663 137.173 133.489 136.83 134.098 136.219C134.707 135.609 135.05 134.781 135.05 133.918V66.1816C135.048 65.3191 134.705 64.4926 134.096 63.8831C133.488 63.2736 132.662 62.9308 131.802 62.9297H31.6391C30.7785 62.9308 29.9534 63.2736 29.3446 63.8831C28.7357 64.4927 28.3927 65.3191 28.3906 66.1816Z" fill="#48546A"/>
<path d="M30.7422 67.0248V133.083C30.743 133.544 30.9261 133.986 31.2516 134.312C31.577 134.639 32.0181 134.822 32.4783 134.823H130.97C131.43 134.822 131.871 134.639 132.197 134.312C132.522 133.986 132.705 133.544 132.706 133.083V67.0248C132.706 66.563 132.523 66.1201 132.198 65.7932C131.872 65.4664 131.431 65.2823 130.97 65.2812H32.4783C32.0176 65.2823 31.576 65.4664 31.2505 65.7932C30.9251 66.1201 30.7422 66.563 30.7422 67.0248Z" fill="white"/>
<path d="M49.0198 162.024C49.12 162.15 49.2474 162.252 49.3925 162.321C49.5375 162.391 49.6964 162.427 49.8572 162.426H108.453C108.613 162.426 108.772 162.39 108.916 162.32C109.061 162.251 109.188 162.151 109.289 162.026C109.39 161.901 109.462 161.756 109.5 161.599C109.538 161.443 109.54 161.281 109.507 161.124L108.598 156.794C108.56 156.617 108.479 156.453 108.361 156.316C108.244 156.179 108.095 156.073 107.926 156.009C107.804 155.961 107.675 155.936 107.544 155.937H50.7631C50.6322 155.936 50.5024 155.961 50.3805 156.009C50.2122 156.073 50.0626 156.179 49.9453 156.316C49.828 156.453 49.7469 156.617 49.7092 156.794L48.7996 161.124C48.7672 161.281 48.7702 161.443 48.8083 161.599C48.8464 161.755 48.9186 161.9 49.0198 162.024Z" fill="#343C4C"/>
<path d="M127.774 74.381H35.6162C35.5205 74.3789 35.4293 74.3393 35.3623 74.2706C35.2953 74.202 35.2578 74.1098 35.2578 74.0138C35.2578 73.9177 35.2953 73.8255 35.3623 73.7569C35.4293 73.6883 35.5205 73.6486 35.6162 73.6465H127.774C127.87 73.6486 127.961 73.6883 128.028 73.7569C128.095 73.8255 128.133 73.9177 128.133 74.0138C128.133 74.1098 128.095 74.202 128.028 74.2706C127.961 74.3393 127.87 74.3789 127.774 74.381Z" fill="#48546A"/>
<path d="M123.304 67.9141H118.034C117.93 67.9165 117.831 67.9597 117.758 68.0344C117.685 68.1091 117.645 68.2093 117.645 68.3138C117.645 68.4182 117.685 68.5185 117.758 68.5932C117.831 68.6679 117.93 68.711 118.034 68.7135H123.304C123.409 68.712 123.509 68.6692 123.582 68.5944C123.656 68.5196 123.697 68.4188 123.697 68.3138C123.697 68.2087 123.656 68.1079 123.582 68.0331C123.509 67.9583 123.409 67.9155 123.304 67.9141Z" fill="#48546A"/>
<path d="M123.304 69.415H118.035C117.93 69.4173 117.831 69.4605 117.758 69.5352C117.685 69.6099 117.645 69.7102 117.645 69.8147C117.645 69.9193 117.685 70.0196 117.758 70.0943C117.831 70.169 117.93 70.2121 118.035 70.2144H123.304C123.409 70.2132 123.51 70.1705 123.583 70.0957C123.657 70.0209 123.699 69.9199 123.699 69.8147C123.699 69.7096 123.657 69.6086 123.583 69.5338C123.51 69.459 123.409 69.4163 123.304 69.415Z" fill="#48546A"/>
<path d="M123.304 70.916H118.034C117.93 70.9184 117.831 70.9616 117.758 71.0363C117.685 71.111 117.645 71.2113 117.645 71.3157C117.645 71.4202 117.685 71.5204 117.758 71.5951C117.831 71.6698 117.93 71.713 118.034 71.7154H123.304C123.409 71.7139 123.509 71.6712 123.582 71.5964C123.656 71.5216 123.697 71.4208 123.697 71.3157C123.697 71.2107 123.656 71.1099 123.582 71.0351C123.509 70.9603 123.409 70.9175 123.304 70.916Z" fill="#48546A"/>
<path d="M250.349 159.557C250.508 160.021 250.81 160.423 251.211 160.704C251.612 160.986 252.091 161.133 252.581 161.124L262.143 160.877C262.636 160.868 263.113 160.698 263.502 160.395C263.891 160.091 264.172 159.669 264.302 159.193L265.655 144.692C266.135 144.91 266.658 145.018 267.185 145.007C267.642 144.996 268.093 144.894 268.512 144.708C268.931 144.521 269.308 144.254 269.624 143.922C269.94 143.589 270.187 143.198 270.351 142.769C270.516 142.341 270.595 141.884 270.583 141.426C270.572 140.967 270.47 140.515 270.284 140.095C270.099 139.676 269.832 139.297 269.5 138.981C269.168 138.665 268.778 138.417 268.35 138.252C267.923 138.087 267.467 138.008 267.01 138.02C266.799 138.019 266.589 138.041 266.383 138.085C266.159 137.842 265.887 137.649 265.584 137.518C265.281 137.387 264.954 137.321 264.624 137.324L249.915 137.705C249.793 137.709 249.671 137.725 249.552 137.75C249.23 137.81 248.924 137.939 248.655 138.128C248.386 138.317 248.161 138.561 247.994 138.844C247.828 139.127 247.723 139.443 247.689 139.77C247.654 140.097 247.69 140.428 247.793 140.74L250.349 159.557ZM265.932 143.707L266.895 140.252C267.005 139.853 267.007 139.432 266.903 139.031C266.949 139.031 266.991 139.009 267.037 139.009C267.698 138.995 268.336 139.244 268.813 139.702C269.29 140.16 269.567 140.788 269.583 141.45C269.598 142.111 269.351 142.752 268.896 143.231C268.441 143.711 267.814 143.99 267.154 144.007C266.727 144.02 266.305 143.917 265.932 143.707Z" fill="#343C4C"/>
<path d="M249.555 137.751C249.868 139.546 253.391 140.809 257.628 140.589C261.523 140.409 264.708 139.038 265.292 137.414C265.076 137.35 264.851 137.32 264.626 137.325L249.918 137.705C249.795 137.71 249.674 137.725 249.555 137.751Z" fill="#48546A"/>
<path d="M258.405 151.59C258.424 151.585 258.443 151.576 258.459 151.565L260.536 150.203C260.561 150.187 260.582 150.165 260.596 150.138C260.61 150.112 260.618 150.082 260.618 150.052C260.618 150.022 260.61 149.993 260.596 149.966C260.582 149.94 260.561 149.917 260.536 149.901L258.378 148.484C258.358 148.471 258.336 148.462 258.312 148.457C258.289 148.453 258.265 148.453 258.242 148.458C258.218 148.463 258.196 148.472 258.177 148.485C258.157 148.499 258.14 148.516 258.127 148.536C258.114 148.556 258.105 148.578 258.101 148.601C258.096 148.625 258.097 148.649 258.102 148.672C258.106 148.695 258.116 148.717 258.129 148.737C258.143 148.757 258.16 148.774 258.18 148.786L260.108 150.052L258.262 151.263C258.226 151.286 258.2 151.322 258.187 151.363C258.175 151.404 258.178 151.448 258.195 151.487C258.212 151.526 258.243 151.558 258.281 151.577C258.32 151.595 258.363 151.6 258.405 151.59H258.405Z" fill="#57C0B3"/>
<path d="M255.124 151.74C255.159 151.732 255.19 151.713 255.214 151.686C255.238 151.659 255.254 151.625 255.259 151.59C255.263 151.554 255.258 151.518 255.242 151.485C255.226 151.453 255.201 151.426 255.17 151.408L253.255 150.308L255.106 148.931C255.125 148.917 255.141 148.899 255.153 148.879C255.165 148.859 255.173 148.836 255.176 148.813C255.18 148.789 255.179 148.765 255.173 148.742C255.167 148.719 255.157 148.697 255.143 148.678C255.129 148.659 255.111 148.643 255.091 148.631C255.07 148.619 255.048 148.611 255.024 148.607C255.001 148.604 254.977 148.605 254.954 148.611C254.931 148.617 254.909 148.627 254.89 148.641L252.819 150.183C252.795 150.201 252.776 150.225 252.763 150.252C252.75 150.279 252.745 150.309 252.746 150.339C252.748 150.369 252.757 150.398 252.773 150.423C252.789 150.449 252.811 150.47 252.837 150.485L254.99 151.722C255.031 151.745 255.079 151.752 255.124 151.74Z" fill="#57C0B3"/>
<path d="M258.196 152.783C258.213 152.779 258.23 152.772 258.245 152.762C258.265 152.75 258.283 152.734 258.297 152.715C258.311 152.695 258.321 152.674 258.327 152.651C258.332 152.628 258.333 152.604 258.33 152.58C258.326 152.557 258.318 152.534 258.306 152.514L255.362 147.664C255.337 147.623 255.297 147.593 255.25 147.582C255.204 147.571 255.155 147.579 255.114 147.604C255.073 147.629 255.044 147.669 255.032 147.715C255.021 147.762 255.029 147.811 255.054 147.852L257.997 152.702C258.017 152.735 258.047 152.761 258.083 152.775C258.119 152.79 258.158 152.793 258.196 152.783Z" fill="#57C0B3"/>
<path d="M90.7069 100.348H74.7563C74.1056 100.348 73.5781 100.876 73.5781 101.528V103.09C73.5781 103.742 74.1056 104.271 74.7563 104.271H90.7069C91.3575 104.271 91.885 103.742 91.885 103.09V101.528C91.885 100.876 91.3575 100.348 90.7069 100.348Z" fill="#57C0B3"/>
<path d="M100.005 108.194H65.4594C64.8087 108.194 64.2812 108.723 64.2812 109.375V110.937C64.2812 111.589 64.8087 112.117 65.4594 112.117H100.005C100.656 112.117 101.183 111.589 101.183 110.937V109.375C101.183 108.723 100.656 108.194 100.005 108.194Z" fill="#E6E6E6"/>
<path d="M100.005 116.04H65.4594C64.8087 116.04 64.2812 116.569 64.2812 117.221V118.782C64.2812 119.435 64.8087 119.963 65.4594 119.963H100.005C100.656 119.963 101.183 119.435 101.183 118.782V117.221C101.183 116.569 100.656 116.04 100.005 116.04Z" fill="#E6E6E6"/>
<path d="M75.4375 84.75C75.4375 83.7656 76.2031 83 77.1875 83H82.1094V83.9844H77.1875C76.75 83.9844 76.4219 84.3125 76.4219 84.75V89.5625H75.4375V84.75Z" fill="#70CBF2"/>
<path d="M86.8125 83C87.7969 83 88.5625 83.7656 88.5625 84.75V89.5625H87.5781V84.75C87.5781 84.3125 87.25 83.9844 86.8125 83.9844H82.1094V83H86.8125Z" fill="#F27A86"/>
<path d="M82 97C78.3906 97 75.4375 94.1562 75.4375 90.5469V89.5625H76.4219V90.5469C76.4219 93.6094 78.9375 96.0156 82 96.0156V97Z" fill="#F6C28B"/>
<path d="M88.5625 90.5469C88.5625 94.1563 85.6094 97 82 97V96.0156C85.0625 96.0156 87.5781 93.6094 87.5781 90.5469V89.5625H88.5625V90.5469Z" fill="#57C0B3"/>
<path fill-rule="evenodd" clip-rule="evenodd" d="M82.1094 86.8281H80.4688C79.7031 86.8281 79.375 87.1562 79.375 87.9219V91.2031C79.375 91.9688 79.7031 92.2969 80.4688 92.2969H83.75C84.4883 92.2969 84.8438 91.9688 84.8438 91.2031V89.5625H82.1094V86.8281Z" fill="#1E232C"/>
</g>
<defs>
<clipPath id="clip0_308_5903">
<rect width="284" height="207" fill="white"/>
</clipPath>
</defs>
</svg>
