<svg width="466" height="390" viewBox="0 0 466 390" fill="none" xmlns="http://www.w3.org/2000/svg">
<g clip-path="url(#clip0_517_9249)">
<path d="M301.364 0.661377H165.952C144.891 0.661377 127.818 17.8133 127.818 38.9713V349.832C127.818 370.99 144.891 388.142 165.952 388.142H301.364C322.425 388.142 339.498 370.99 339.498 349.832V38.9713C339.498 17.8133 322.425 0.661377 301.364 0.661377Z" fill="#1E232C"/>
<path d="M335.927 38.974V349.833C335.916 359.038 332.271 367.864 325.792 374.374C319.312 380.883 310.527 384.545 301.363 384.556H165.954C156.79 384.545 148.005 380.883 141.525 374.374C135.046 367.864 131.401 359.038 131.39 349.833V38.974C131.401 29.7681 135.046 20.9423 141.525 14.4327C148.005 7.92315 156.79 4.26139 165.954 4.25073H183.661V10.3956C183.661 13.1775 184.761 15.8455 186.719 17.8126C188.677 19.7797 191.333 20.8848 194.102 20.885H273.215C275.984 20.8848 278.64 19.7797 280.598 17.8126C282.556 15.8455 283.656 13.1775 283.656 10.3956V4.25073H301.363C310.527 4.26139 319.312 7.92315 325.792 14.4327C332.271 20.9423 335.916 29.7681 335.927 38.974Z" fill="#FCFCFD"/>
<path d="M126.844 79.2664C126.156 79.2656 125.496 78.9905 125.009 78.5013C124.522 78.0121 124.248 77.3489 124.247 76.6571V71.4385C124.247 70.7465 124.521 70.0828 125.008 69.5935C125.495 69.1041 126.156 68.8292 126.844 68.8292C127.533 68.8292 128.194 69.1041 128.681 69.5935C129.168 70.0828 129.442 70.7465 129.442 71.4385V76.6571C129.441 77.3489 129.167 78.0121 128.68 78.5013C128.193 78.9905 127.533 79.2656 126.844 79.2664V79.2664Z" fill="#1E232C"/>
<path d="M126.844 106.026C126.156 106.025 125.496 105.75 125.009 105.261C124.522 104.771 124.248 104.108 124.247 103.416V89.0513C124.247 88.3593 124.521 87.6956 125.008 87.2063C125.495 86.7169 126.156 86.442 126.844 86.442C127.533 86.442 128.194 86.7169 128.681 87.2063C129.168 87.6956 129.442 88.3593 129.442 89.0513V103.416C129.441 104.108 129.167 104.771 128.68 105.261C128.193 105.75 127.533 106.025 126.844 106.026V106.026Z" fill="#1E232C"/>
<path d="M126.844 127.538C126.156 127.538 125.496 127.263 125.009 126.773C124.522 126.284 124.248 125.621 124.247 124.929V110.564C124.247 109.872 124.521 109.208 125.008 108.719C125.495 108.23 126.156 107.955 126.844 107.955C127.533 107.955 128.194 108.23 128.681 108.719C129.168 109.208 129.442 109.872 129.442 110.564V124.929C129.441 125.621 129.167 126.284 128.68 126.773C128.193 127.263 127.533 127.538 126.844 127.538V127.538Z" fill="#1E232C"/>
<path d="M339.823 115.797C339.134 115.796 338.474 115.521 337.987 115.031C337.5 114.542 337.226 113.879 337.225 113.187V78.1357C337.225 77.4436 337.499 76.7799 337.986 76.2906C338.473 75.8013 339.134 75.5264 339.823 75.5264C340.511 75.5264 341.172 75.8013 341.659 76.2906C342.146 76.7799 342.42 77.4436 342.42 78.1357V113.187C342.419 113.879 342.145 114.542 341.658 115.031C341.171 115.521 340.511 115.796 339.823 115.797V115.797Z" fill="#1E232C"/>
<path d="M189.417 98.8556H166.865C163.743 98.852 160.75 97.6046 158.543 95.387C156.335 93.1694 155.093 90.1626 155.09 87.0265V64.3696C155.093 61.2335 156.335 58.2267 158.543 56.0091C160.75 53.7915 163.743 52.5441 166.865 52.5405H189.417C192.539 52.5441 195.532 53.7915 197.739 56.0091C199.947 58.2267 201.188 61.2334 201.192 64.3696V87.0264C201.188 90.1626 199.947 93.1694 197.739 95.387C195.532 97.6046 192.539 98.852 189.417 98.8556V98.8556ZM166.865 53.8452C164.087 53.8484 161.424 54.9582 159.46 56.9313C157.496 58.9043 156.392 61.5794 156.389 64.3696V87.0264C156.392 89.8167 157.496 92.4918 159.46 94.4648C161.424 96.4378 164.087 97.5477 166.865 97.5509H189.417C192.195 97.5477 194.857 96.4378 196.821 94.4648C198.785 92.4918 199.89 89.8167 199.893 87.0264V64.3696C199.89 61.5794 198.785 58.9043 196.821 56.9313C194.857 54.9582 192.195 53.8484 189.417 53.8452L166.865 53.8452Z" fill="#DCE0E7"/>
<path d="M244.934 99.1819H222.382C219.26 99.1783 216.267 97.9309 214.06 95.7133C211.852 93.4957 210.611 90.4889 210.607 87.3528V64.6959C210.611 61.5597 211.852 58.553 214.06 56.3354C216.267 54.1178 219.26 52.8704 222.382 52.8668H244.934C248.056 52.8704 251.049 54.1178 253.256 56.3354C255.464 58.553 256.705 61.5597 256.709 64.6959V87.3527C256.705 90.4889 255.464 93.4957 253.256 95.7133C251.049 97.9309 248.056 99.1783 244.934 99.1819V99.1819ZM222.382 54.1715C219.604 54.1747 216.942 55.2845 214.978 57.2576C213.014 59.2306 211.909 61.9057 211.906 64.6959V87.3527C211.909 90.143 213.014 92.8181 214.978 94.7911C216.942 96.7641 219.604 97.874 222.382 97.8772H244.934C247.712 97.874 250.375 96.7641 252.338 94.7911C254.302 92.8181 255.407 90.143 255.41 87.3527V64.6959C255.407 61.9057 254.302 59.2306 252.338 57.2575C250.375 55.2845 247.712 54.1747 244.934 54.1715L222.382 54.1715Z" fill="#DCE0E7"/>
<path d="M300.452 99.5079H277.899C274.777 99.5044 271.784 98.257 269.577 96.0393C267.369 93.8217 266.128 90.815 266.124 87.6788V65.022C266.128 61.8858 267.369 58.8791 269.577 56.6615C271.784 54.4438 274.777 53.1964 277.899 53.1929H300.452C303.573 53.1964 306.566 54.4438 308.774 56.6614C310.981 58.8791 312.223 61.8858 312.226 65.022V87.6788C312.223 90.815 310.981 93.8217 308.774 96.0393C306.566 98.257 303.573 99.5044 300.452 99.5079V99.5079ZM277.899 54.4975C275.121 54.5007 272.459 55.6106 270.495 57.5836C268.531 59.5566 267.426 62.2317 267.423 65.022V87.6788C267.426 90.4691 268.531 93.1441 270.495 95.1172C272.459 97.0902 275.121 98.2 277.899 98.2032H300.452C303.229 98.2001 305.892 97.0903 307.856 95.1172C309.82 93.1442 310.924 90.4691 310.928 87.6788V65.022C310.924 62.2317 309.82 59.5566 307.856 57.5835C305.892 55.6105 303.229 54.5007 300.452 54.4975L277.899 54.4975Z" fill="#DCE0E7"/>
<path d="M189.417 163.436H166.865C163.743 163.432 160.75 162.185 158.543 159.967C156.335 157.749 155.093 154.743 155.09 151.607V128.95C155.093 125.814 156.335 122.807 158.543 120.589C160.75 118.372 163.743 117.124 166.865 117.121H189.417C192.539 117.124 195.532 118.372 197.739 120.589C199.947 122.807 201.188 125.814 201.192 128.95V151.607C201.188 154.743 199.947 157.749 197.739 159.967C195.532 162.185 192.539 163.432 189.417 163.436ZM166.865 118.425C164.087 118.428 161.424 119.538 159.46 121.511C157.496 123.484 156.392 126.159 156.389 128.95V151.607C156.392 154.397 157.496 157.072 159.46 159.045C161.424 161.018 164.087 162.128 166.865 162.131H189.417C192.195 162.128 194.857 161.018 196.821 159.045C198.785 157.072 199.89 154.397 199.893 151.607V128.95C199.89 126.159 198.785 123.484 196.821 121.511C194.857 119.538 192.195 118.428 189.417 118.425L166.865 118.425Z" fill="#DCE0E7"/>
<path d="M244.934 163.762H222.382C219.26 163.758 216.267 162.511 214.06 160.293C211.852 158.076 210.611 155.069 210.607 151.933V129.276C210.611 126.14 211.852 123.133 214.06 120.915C216.267 118.698 219.26 117.45 222.382 117.447H244.934C248.056 117.45 251.049 118.698 253.256 120.915C255.464 123.133 256.705 126.14 256.709 129.276V151.933C256.705 155.069 255.464 158.076 253.256 160.293C251.049 162.511 248.056 163.758 244.934 163.762V163.762ZM222.382 118.752C219.604 118.755 216.942 119.865 214.978 121.838C213.014 123.811 211.909 126.486 211.906 129.276V151.933C211.909 154.723 213.014 157.398 214.978 159.371C216.942 161.344 219.604 162.454 222.382 162.457H244.934C247.712 162.454 250.375 161.344 252.338 159.371C254.302 157.398 255.407 154.723 255.41 151.933V129.276C255.407 126.486 254.302 123.811 252.338 121.838C250.375 119.865 247.712 118.755 244.934 118.752L222.382 118.752Z" fill="#DCE0E7"/>
<path d="M300.452 164.088H277.899C274.777 164.084 271.784 162.837 269.577 160.619C267.369 158.402 266.128 155.395 266.124 152.259V129.602C266.128 126.466 267.369 123.459 269.577 121.242C271.784 119.024 274.777 117.776 277.899 117.773H300.452C303.573 117.776 306.566 119.024 308.774 121.242C310.981 123.459 312.223 126.466 312.226 129.602V152.259C312.223 155.395 310.981 158.402 308.774 160.619C306.566 162.837 303.573 164.084 300.452 164.088V164.088ZM277.899 119.078C275.121 119.081 272.459 120.191 270.495 122.164C268.531 124.137 267.426 126.812 267.423 129.602V152.259C267.426 155.049 268.531 157.724 270.495 159.697C272.459 161.67 275.121 162.78 277.899 162.783H300.452C303.229 162.78 305.892 161.67 307.856 159.697C309.82 157.724 310.924 155.049 310.928 152.259V129.602C310.924 126.812 309.82 124.137 307.856 122.164C305.892 120.191 303.229 119.081 300.452 119.078L277.899 119.078Z" fill="#DCE0E7"/>
<path d="M189.417 359.133H166.865C163.915 359.13 161.087 357.951 159.002 355.856C156.916 353.761 155.743 350.92 155.739 347.956V325.3C155.743 322.336 156.916 319.495 159.002 317.4C161.087 315.305 163.915 314.126 166.865 314.123H189.417C192.367 314.126 195.195 315.305 197.28 317.4C199.366 319.495 200.539 322.336 200.543 325.3V347.956C200.539 350.92 199.366 353.761 197.28 355.856C195.195 357.951 192.367 359.13 189.417 359.133Z" fill="#70CBF2"/>
<path d="M244.934 359.459H222.382C219.432 359.456 216.604 358.277 214.519 356.182C212.433 354.087 211.26 351.246 211.256 348.283V325.626C211.26 322.663 212.433 319.822 214.519 317.726C216.604 315.631 219.432 314.452 222.382 314.449H244.934C247.884 314.452 250.712 315.631 252.798 317.726C254.883 319.822 256.057 322.663 256.06 325.626V348.283C256.057 351.246 254.883 354.087 252.798 356.182C250.712 358.277 247.884 359.456 244.934 359.459V359.459Z" fill="#DCE0E7"/>
<path d="M300.452 359.786H277.899C274.949 359.782 272.122 358.604 270.036 356.508C267.95 354.413 266.777 351.572 266.774 348.609V325.952C266.777 322.989 267.95 320.148 270.036 318.052C272.122 315.957 274.949 314.778 277.899 314.775H300.452C303.401 314.778 306.229 315.957 308.315 318.052C310.401 320.148 311.574 322.989 311.577 325.952V348.609C311.574 351.572 310.401 354.413 308.315 356.508C306.229 358.604 303.401 359.782 300.452 359.786V359.786Z" fill="#DCE0E7"/>
<path d="M221.97 295.532C223.763 295.532 225.217 294.071 225.217 292.27C225.217 290.469 223.763 289.008 221.97 289.008C220.177 289.008 218.724 290.469 218.724 292.27C218.724 294.071 220.177 295.532 221.97 295.532Z" fill="#A9B2C4"/>
<path d="M233.658 295.532C235.451 295.532 236.905 294.071 236.905 292.27C236.905 290.469 235.451 289.008 233.658 289.008C231.865 289.008 230.412 290.469 230.412 292.27C230.412 294.071 231.865 295.532 233.658 295.532Z" fill="#DCE0E7"/>
<path d="M245.346 295.532C247.139 295.532 248.593 294.071 248.593 292.27C248.593 290.469 247.139 289.008 245.346 289.008C243.553 289.008 242.099 290.469 242.099 292.27C242.099 294.071 243.553 295.532 245.346 295.532Z" fill="#DCE0E7"/>
<path d="M311.308 366.635H156.182C152.644 366.631 149.253 365.218 146.752 362.705C144.251 360.192 142.844 356.785 142.84 353.232V320.024C142.844 316.471 144.251 313.064 146.752 310.551C149.253 308.038 152.644 306.625 156.182 306.621H311.308C314.846 306.625 318.237 308.038 320.738 310.551C323.239 313.064 324.646 316.471 324.65 320.024V353.232C324.646 356.785 323.239 360.192 320.738 362.705C318.237 365.218 314.846 366.631 311.308 366.635V366.635ZM156.182 307.926C152.989 307.929 149.928 309.205 147.67 311.473C145.412 313.741 144.142 316.817 144.138 320.024V353.232C144.142 356.439 145.412 359.515 147.67 361.783C149.928 364.051 152.989 365.327 156.182 365.33H311.308C314.501 365.327 317.562 364.051 319.82 361.783C322.078 359.515 323.348 356.439 323.352 353.232V320.024C323.348 316.817 322.078 313.741 319.82 311.473C317.562 309.205 314.501 307.929 311.308 307.926H156.182Z" fill="#DCE0E7"/>
<path d="M196.378 128.891C200.681 128.891 204.17 125.386 204.17 121.063C204.17 116.74 200.681 113.235 196.378 113.235C192.074 113.235 188.586 116.74 188.586 121.063C188.586 125.386 192.074 128.891 196.378 128.891Z" fill="#A9B2C4"/>
<path d="M252.869 327.197C257.172 327.197 260.661 323.693 260.661 319.369C260.661 315.046 257.172 311.542 252.869 311.542C248.566 311.542 245.077 315.046 245.077 319.369C245.077 323.693 248.566 327.197 252.869 327.197Z" fill="#A9B2C4"/>
<path d="M189.417 228.016H166.865C163.743 228.012 160.75 226.765 158.543 224.547C156.335 222.33 155.093 219.323 155.09 216.187V193.53C155.093 190.394 156.335 187.387 158.543 185.169C160.75 182.952 163.743 181.704 166.865 181.701H189.417C192.539 181.704 195.532 182.952 197.739 185.169C199.947 187.387 201.188 190.394 201.192 193.53V216.187C201.188 219.323 199.947 222.33 197.739 224.547C195.532 226.765 192.539 228.012 189.417 228.016ZM166.865 183.005C164.087 183.009 161.424 184.119 159.46 186.092C157.496 188.065 156.392 190.74 156.389 193.53V216.187C156.392 218.977 157.496 221.652 159.46 223.625C161.424 225.598 164.087 226.708 166.865 226.711H189.417C192.195 226.708 194.857 225.598 196.821 223.625C198.785 221.652 199.89 218.977 199.893 216.187V193.53C199.89 190.74 198.785 188.065 196.821 186.092C194.857 184.119 192.195 183.009 189.417 183.005L166.865 183.005Z" fill="#DCE0E7"/>
<path d="M244.934 228.342H222.382C219.26 228.338 216.267 227.091 214.06 224.873C211.852 222.656 210.611 219.649 210.607 216.513V193.856C210.611 190.72 211.852 187.713 214.06 185.496C216.267 183.278 219.26 182.031 222.382 182.027H244.934C248.056 182.031 251.049 183.278 253.256 185.496C255.464 187.713 256.705 190.72 256.709 193.856V216.513C256.705 219.649 255.464 222.656 253.256 224.873C251.049 227.091 248.056 228.338 244.934 228.342V228.342ZM222.382 183.332C219.604 183.335 216.942 184.445 214.978 186.418C213.014 188.391 211.909 191.066 211.906 193.856V216.513C211.909 219.303 213.014 221.978 214.977 223.951C216.941 225.924 219.604 227.034 222.382 227.037H244.934C247.712 227.034 250.375 225.924 252.339 223.951C254.302 221.978 255.407 219.303 255.41 216.513V193.856C255.407 191.066 254.302 188.391 252.338 186.418C250.375 184.445 247.712 183.335 244.934 183.332L222.382 183.332Z" fill="#DCE0E7"/>
<path d="M300.452 228.668H277.899C274.777 228.665 271.784 227.417 269.577 225.2C267.369 222.982 266.128 219.975 266.124 216.839V194.182C266.128 191.046 267.369 188.039 269.577 185.822C271.784 183.604 274.777 182.357 277.899 182.353H300.452C303.573 182.357 306.566 183.604 308.774 185.822C310.981 188.039 312.223 191.046 312.226 194.182V216.839C312.223 219.975 310.981 222.982 308.774 225.2C306.566 227.417 303.573 228.665 300.452 228.668ZM277.899 183.658C275.121 183.661 272.459 184.771 270.495 186.744C268.531 188.717 267.426 191.392 267.423 194.182V216.839C267.426 219.629 268.531 222.304 270.495 224.278C272.459 226.251 275.121 227.36 277.899 227.364H300.452C303.229 227.36 305.892 226.251 307.856 224.278C309.82 222.305 310.924 219.629 310.928 216.839V194.182C310.924 191.392 309.82 188.717 307.856 186.744C305.892 184.771 303.229 183.661 300.452 183.658L277.899 183.658Z" fill="#DCE0E7"/>
<path d="M252.869 194.775C257.172 194.775 260.661 191.271 260.661 186.948C260.661 182.624 257.172 179.12 252.869 179.12C248.566 179.12 245.077 182.624 245.077 186.948C245.077 191.271 248.566 194.775 252.869 194.775Z" fill="#A9B2C4"/>
</g>
<defs>
<clipPath id="clip0_517_9249">
<rect width="466" height="389" fill="white" transform="translate(0 0.661377)"/>
</clipPath>
</defs>
</svg>
