<svg width="457" height="435" viewBox="0 0 457 435" fill="none" xmlns="http://www.w3.org/2000/svg">
<path d="M168.92 10.8743L37.1174 48.9152C16.618 54.8317 4.80762 76.2068 10.7381 96.6578L97.8711 397.132C103.802 417.583 125.227 429.365 145.727 423.449L277.53 385.408C298.029 379.491 309.839 358.116 303.909 337.665L216.776 37.1913C210.845 16.7403 189.42 4.95775 168.92 10.8743Z" fill="#1E232C"/>
<path d="M169.926 14.3422L152.69 19.3168L154.413 25.2572C155.192 27.946 154.87 30.8337 153.515 33.2849C152.161 35.7362 149.886 37.5504 147.191 38.3282L70.1838 60.5539C67.4887 61.3317 64.5942 61.0096 62.1371 59.6584C59.68 58.3072 57.8616 56.0375 57.0819 53.3488L55.3593 47.4084L38.1232 52.3831C29.207 54.9674 21.6823 60.9746 17.2001 69.0868C12.7179 77.1989 11.6441 86.7536 14.2143 95.6547L101.347 396.128C103.938 405.023 109.959 412.53 118.09 417.002C126.222 421.474 135.799 422.545 144.721 419.981L276.524 381.94C285.44 379.356 292.965 373.348 297.447 365.236C301.929 357.124 303.003 347.569 300.433 338.668L213.3 38.1947C210.71 29.2995 204.688 21.7926 196.557 17.321C188.425 12.8493 178.848 11.778 169.926 14.3422Z" fill="#FCFCFD"/>
<path d="M21.0847 135.88C20.4142 136.073 19.6945 135.992 19.0835 135.656C18.4724 135.32 18.0199 134.756 17.8253 134.088L16.3625 129.044C16.2665 128.712 16.2368 128.365 16.2751 128.023C16.3134 127.68 16.419 127.348 16.5858 127.046C16.7526 126.744 16.9775 126.478 17.2474 126.263C17.5174 126.048 17.8272 125.888 18.1592 125.792C18.4912 125.696 18.8389 125.666 19.1823 125.705C19.5258 125.743 19.8584 125.848 20.161 126.015C20.4637 126.181 20.7306 126.405 20.9463 126.675C21.1621 126.944 21.3226 127.253 21.4187 127.584L22.8814 132.628C23.0745 133.297 22.9938 134.015 22.657 134.625C22.3202 135.235 21.7547 135.686 21.0847 135.88Z" fill="#1E232C"/>
<path d="M28.5852 161.745C27.9148 161.938 27.1951 161.858 26.584 161.522C25.973 161.185 25.5205 160.621 25.3258 159.953L21.2993 146.068C21.2032 145.737 21.1735 145.39 21.2118 145.047C21.2502 144.704 21.3557 144.373 21.5226 144.071C21.6894 143.769 21.9142 143.502 22.1842 143.287C22.4542 143.072 22.764 142.912 23.096 142.816C23.428 142.72 23.7756 142.691 24.1191 142.729C24.4626 142.767 24.7952 142.872 25.0978 143.039C25.4005 143.205 25.6673 143.43 25.8831 143.699C26.0989 143.968 26.2594 144.277 26.3554 144.608L30.3819 158.494C30.5751 159.163 30.4944 159.881 30.1576 160.49C29.8207 161.1 29.2553 161.551 28.5852 161.745Z" fill="#1E232C"/>
<path d="M34.6151 182.539C33.9446 182.732 33.2249 182.651 32.6139 182.315C32.0028 181.979 31.5503 181.415 31.3556 180.747L27.3291 166.862C27.1352 166.193 27.2155 165.474 27.5524 164.865C27.8894 164.255 28.4553 163.803 29.1258 163.61C29.7963 163.416 30.5164 163.497 31.1277 163.833C31.7389 164.169 32.1913 164.733 32.3853 165.402L36.4118 179.288C36.6049 179.956 36.5242 180.674 36.1874 181.284C35.8506 181.894 35.2851 182.345 34.6151 182.539Z" fill="#1E232C"/>
<path d="M238.626 111.358C237.955 111.551 237.236 111.471 236.625 111.134C236.014 110.798 235.561 110.234 235.366 109.566L225.542 75.6855C225.348 75.0166 225.428 74.2982 225.765 73.6884C226.102 73.0786 226.668 72.6273 227.338 72.4338C228.009 72.2402 228.729 72.3204 229.34 72.6565C229.951 72.9927 230.404 73.5573 230.598 74.2262L240.423 108.107C240.616 108.775 240.535 109.493 240.198 110.103C239.861 110.713 239.296 111.164 238.626 111.358Z" fill="#1E232C"/>
<path d="M71.009 129.812C70.7757 129.88 70.5255 129.859 70.3067 129.753L57.54 123.617C57.4233 123.561 57.3187 123.483 57.2323 123.386C57.146 123.29 57.0796 123.178 57.0368 123.056C56.994 122.933 56.9757 122.804 56.983 122.675C56.9903 122.546 57.023 122.42 57.0793 122.303L63.2295 109.567C63.2857 109.45 63.3645 109.346 63.4611 109.26C63.5578 109.174 63.6705 109.107 63.7928 109.065C63.9152 109.022 64.0447 109.004 64.1741 109.011C64.3035 109.018 64.4302 109.051 64.547 109.107C64.6637 109.163 64.7683 109.242 64.8546 109.338C64.941 109.434 65.0074 109.547 65.0502 109.669C65.093 109.791 65.1112 109.92 65.104 110.049C65.0967 110.178 65.064 110.305 65.0077 110.421L59.2859 122.271L71.1634 127.979C71.3435 128.066 71.4929 128.205 71.592 128.378C71.6911 128.551 71.7353 128.75 71.7185 128.949C71.7018 129.147 71.625 129.336 71.4983 129.49C71.3717 129.645 71.201 129.757 71.009 129.812V129.812Z" fill="#57C0B3"/>
<path d="M78.2656 127.691C78.0708 127.747 77.8632 127.742 77.6713 127.677C77.4794 127.611 77.3124 127.488 77.193 127.324C77.0736 127.161 77.0077 126.964 77.0041 126.762C77.0006 126.56 77.0597 126.361 77.1733 126.194L84.5575 115.297L73.6356 107.93C73.5279 107.858 73.4356 107.765 73.3639 107.657C73.2923 107.549 73.2426 107.428 73.2179 107.301C73.1931 107.174 73.1937 107.043 73.2197 106.916C73.2457 106.79 73.2964 106.669 73.3691 106.562C73.4418 106.455 73.535 106.363 73.6434 106.291C73.7517 106.22 73.8731 106.171 74.0005 106.147C74.128 106.122 74.259 106.123 74.3861 106.149C74.5132 106.175 74.6338 106.226 74.7412 106.299L86.4808 114.218C86.5881 114.29 86.6802 114.383 86.7516 114.491C86.823 114.599 86.8724 114.719 86.8969 114.846C86.9215 114.973 86.9208 115.104 86.8948 115.231C86.8688 115.357 86.818 115.478 86.7454 115.585L78.8081 127.297C78.6793 127.487 78.4873 127.627 78.2656 127.691Z" fill="#57C0B3"/>
<path d="M207.558 104.268L56.9585 147.734C54.6356 148.401 52.142 148.122 50.025 146.958C47.9079 145.794 46.3402 143.839 45.6658 141.523L37.2032 112.341C36.534 110.023 36.8135 107.535 37.9805 105.423C39.1475 103.311 41.1066 101.747 43.428 101.075L194.027 57.6087C196.35 56.941 198.844 57.2199 200.961 58.3842C203.078 59.5484 204.646 61.5029 205.32 63.8188L213.783 93.0016C214.452 95.3191 214.172 97.8067 213.005 99.9188C211.838 102.031 209.879 103.595 207.558 104.268ZM43.7937 102.336C41.8074 102.911 40.131 104.25 39.1325 106.057C38.1339 107.864 37.8947 109.993 38.4672 111.976L46.9299 141.159C47.507 143.14 48.8484 144.813 50.66 145.809C52.4715 146.805 54.6051 147.044 56.5928 146.472L207.192 103.007C209.178 102.431 210.855 101.093 211.853 99.2853C212.852 97.478 213.091 95.3494 212.519 93.3664L204.056 64.1836C203.479 62.2019 202.137 60.5296 200.326 59.5334C198.514 58.5371 196.381 58.2985 194.393 58.8697L43.7937 102.336Z" fill="#1E232C"/>
<path d="M129.182 96.8232L103.901 104.12C103.231 104.313 102.511 104.233 101.899 103.897C101.288 103.561 100.836 102.996 100.642 102.327C100.448 101.658 100.528 100.94 100.865 100.33C101.202 99.7203 101.768 99.269 102.439 99.0755L127.719 91.779C128.39 91.5855 129.11 91.6656 129.721 92.0018C130.332 92.3379 130.785 92.9026 130.979 93.5715C131.173 94.2404 131.092 94.9588 130.755 95.5686C130.418 96.1784 129.852 96.6297 129.182 96.8232Z" fill="#DCE0E7"/>
<path d="M187.558 95.0074L107.292 118.174C106.621 118.367 105.901 118.287 105.29 117.951C104.679 117.615 104.226 117.05 104.032 116.381C103.838 115.712 103.919 114.994 104.256 114.384C104.593 113.774 105.159 113.323 105.829 113.13L186.095 89.9632C186.766 89.7697 187.486 89.8498 188.097 90.1859C188.708 90.5221 189.161 91.0867 189.355 91.7556C189.549 92.4245 189.468 93.1429 189.132 93.7527C188.795 94.3626 188.229 94.8139 187.558 95.0074Z" fill="#DCE0E7"/>
<path d="M128.092 329.343C127.859 329.411 127.609 329.39 127.39 329.284L114.623 323.149C114.507 323.093 114.402 323.014 114.316 322.918C114.229 322.821 114.163 322.709 114.12 322.587C114.077 322.465 114.059 322.335 114.066 322.206C114.074 322.077 114.106 321.951 114.163 321.834L120.313 309.098C120.426 308.863 120.629 308.682 120.876 308.596C121.123 308.51 121.394 308.525 121.63 308.638C121.866 308.751 122.047 308.954 122.133 309.2C122.22 309.447 122.205 309.717 122.091 309.953L116.369 321.802L128.247 327.51C128.427 327.597 128.576 327.736 128.675 327.909C128.774 328.082 128.819 328.281 128.802 328.48C128.785 328.679 128.708 328.867 128.582 329.022C128.455 329.176 128.284 329.288 128.092 329.343Z" fill="#57C0B3"/>
<path d="M135.349 327.222C135.154 327.278 134.947 327.274 134.755 327.208C134.563 327.143 134.396 327.02 134.276 326.856C134.157 326.692 134.091 326.496 134.087 326.294C134.084 326.091 134.143 325.893 134.256 325.725L141.641 314.828L130.719 307.461C130.502 307.315 130.353 307.088 130.304 306.832C130.254 306.576 130.309 306.311 130.455 306.095C130.602 305.879 130.828 305.729 131.085 305.68C131.342 305.63 131.608 305.684 131.824 305.83L143.564 313.749C143.781 313.895 143.931 314.121 143.98 314.378C144.03 314.634 143.976 314.899 143.829 315.116L135.892 326.828C135.763 327.019 135.571 327.158 135.349 327.222Z" fill="#57C0B3"/>
<path d="M276.673 342.607L126.073 386.073C123.75 386.741 121.257 386.462 119.14 385.298C117.023 384.133 115.455 382.179 114.781 379.863L92.9704 304.652C92.3012 302.334 92.5807 299.846 93.7477 297.734C94.9147 295.622 96.8738 294.058 99.1952 293.386L249.795 249.92C252.117 249.252 254.611 249.531 256.728 250.695C258.845 251.859 260.413 253.814 261.087 256.13L282.897 331.341C283.567 333.659 283.287 336.146 282.12 338.258C280.953 340.37 278.994 341.934 276.673 342.607ZM99.5609 294.647C97.5745 295.222 95.8982 296.561 94.8996 298.368C93.901 300.175 93.6618 302.304 94.2344 304.287L116.045 379.498C116.622 381.48 117.963 383.152 119.775 384.148C121.586 385.145 123.72 385.383 125.708 384.812L276.307 341.346C278.293 340.77 279.97 339.432 280.968 337.625C281.967 335.818 282.206 333.689 281.633 331.706L259.823 256.495C259.246 254.513 257.905 252.84 256.093 251.844C254.282 250.848 252.148 250.609 250.16 251.181L99.5609 294.647Z" fill="#1E232C"/>
<path d="M186.265 296.354L160.984 303.651C160.652 303.747 160.304 303.777 159.96 303.74C159.617 303.702 159.284 303.596 158.981 303.43C158.678 303.264 158.41 303.039 158.194 302.77C157.978 302.5 157.817 302.191 157.721 301.86C157.625 301.528 157.596 301.181 157.634 300.838C157.672 300.495 157.778 300.163 157.946 299.861C158.113 299.559 158.338 299.292 158.608 299.077C158.879 298.862 159.189 298.702 159.522 298.607L184.802 291.31C185.473 291.118 186.192 291.199 186.802 291.535C187.413 291.871 187.864 292.435 188.058 293.104C188.252 293.772 188.172 294.49 187.836 295.099C187.5 295.709 186.935 296.16 186.265 296.354Z" fill="#DCE0E7"/>
<path d="M244.641 294.539L164.375 317.705C164.043 317.801 163.695 317.831 163.351 317.793C163.008 317.755 162.675 317.65 162.372 317.484C162.069 317.317 161.802 317.093 161.585 316.824C161.369 316.554 161.209 316.245 161.113 315.913C161.017 315.582 160.987 315.235 161.025 314.892C161.064 314.549 161.17 314.217 161.337 313.915C161.504 313.613 161.729 313.347 161.999 313.131C162.27 312.916 162.58 312.756 162.912 312.661L243.179 289.494C243.849 289.301 244.569 289.381 245.18 289.717C245.792 290.053 246.244 290.618 246.438 291.287C246.632 291.956 246.552 292.674 246.215 293.284C245.878 293.894 245.312 294.345 244.641 294.539Z" fill="#DCE0E7"/>
<path d="M69.0242 185.342L61.6474 187.471C60.6422 187.762 60.063 188.81 60.3539 189.813L60.9687 191.933C61.2595 192.936 62.3102 193.514 63.3155 193.224L70.6922 191.095C71.6974 190.804 72.2766 189.756 71.9858 188.753L71.371 186.633C71.0801 185.63 70.0294 185.052 69.0242 185.342Z" fill="#DCE0E7"/>
<path d="M129.084 168.008L121.708 170.137C120.702 170.427 120.123 171.475 120.414 172.478L121.029 174.599C121.32 175.601 122.37 176.179 123.376 175.889L130.752 173.76C131.758 173.47 132.337 172.422 132.046 171.419L131.431 169.299C131.14 168.296 130.09 167.718 129.084 168.008Z" fill="#57C0B3"/>
<path d="M146.101 163.096L138.724 165.226C137.719 165.516 137.14 166.564 137.431 167.567L138.046 169.687C138.337 170.69 139.387 171.268 140.392 170.978L147.769 168.849C148.774 168.558 149.354 167.51 149.063 166.507L148.448 164.387C148.157 163.384 147.106 162.806 146.101 163.096Z" fill="#DCE0E7"/>
<path d="M112.609 172.243L77.845 182.277C76.8397 182.567 76.2605 183.615 76.5514 184.618L77.1662 186.738C77.457 187.741 78.5078 188.319 79.513 188.029L114.277 177.996C115.282 177.705 115.861 176.657 115.57 175.654L114.955 173.534C114.665 172.531 113.614 171.953 112.609 172.243Z" fill="#DCE0E7"/>
<path d="M192.689 149.131L157.925 159.164C156.92 159.454 156.341 160.503 156.631 161.506L157.246 163.626C157.537 164.629 158.588 165.207 159.593 164.916L194.357 154.883C195.362 154.593 195.941 153.545 195.65 152.542L195.036 150.421C194.745 149.418 193.694 148.841 192.689 149.131Z" fill="#F0F2F5"/>
<path d="M73.0044 198.263L65.6277 200.392C64.6224 200.682 64.0433 201.73 64.3341 202.733L64.9489 204.853C65.2398 205.856 66.2905 206.434 67.2957 206.144L74.6724 204.015C75.6777 203.725 76.2569 202.676 75.966 201.673L75.3512 199.553C75.0604 198.55 74.0097 197.972 73.0044 198.263Z" fill="#DCE0E7"/>
<path d="M133.064 180.928L125.688 183.057C124.682 183.347 124.103 184.395 124.394 185.398L125.009 187.519C125.3 188.521 126.35 189.099 127.356 188.809L134.733 186.68C135.738 186.39 136.317 185.342 136.026 184.339L135.411 182.219C135.12 181.216 134.07 180.638 133.064 180.928Z" fill="#57C0B3"/>
<path d="M150.082 176.017L142.705 178.146C141.7 178.436 141.12 179.484 141.411 180.487L142.026 182.607C142.317 183.61 143.368 184.188 144.373 183.898L151.75 181.769C152.755 181.479 153.334 180.43 153.043 179.427L152.428 177.307C152.138 176.304 151.087 175.726 150.082 176.017Z" fill="#DCE0E7"/>
<path d="M116.589 185.164L81.8252 195.197C80.8199 195.487 80.2407 196.535 80.5315 197.538L81.1464 199.659C81.4372 200.661 82.4879 201.239 83.4932 200.949L118.257 190.916C119.262 190.626 119.841 189.577 119.55 188.574L118.936 186.454C118.645 185.451 117.594 184.873 116.589 185.164Z" fill="#DCE0E7"/>
<path d="M196.671 162.049L161.907 172.083C160.902 172.373 160.323 173.421 160.614 174.424L161.228 176.544C161.519 177.547 162.57 178.125 163.575 177.835L198.339 167.801C199.344 167.511 199.923 166.463 199.633 165.46L199.018 163.34C198.727 162.337 197.676 161.759 196.671 162.049Z" fill="#F0F2F5"/>
<path d="M108.586 202.062L101.209 204.191C100.204 204.481 99.6244 205.529 99.9153 206.532L100.53 208.653C100.821 209.656 101.872 210.233 102.877 209.943L110.254 207.814C111.259 207.524 111.838 206.476 111.547 205.473L110.932 203.353C110.642 202.35 109.591 201.772 108.586 202.062Z" fill="#DCE0E7"/>
<path d="M168.646 184.727L161.269 186.857C160.264 187.147 159.684 188.195 159.975 189.198L160.59 191.318C160.881 192.321 161.932 192.899 162.937 192.609L170.314 190.48C171.319 190.189 171.898 189.141 171.607 188.138L170.992 186.018C170.702 185.015 169.651 184.437 168.646 184.727Z" fill="#57C0B3"/>
<path d="M185.663 179.816L178.286 181.945C177.281 182.235 176.701 183.283 176.992 184.286L177.607 186.407C177.898 187.41 178.949 187.987 179.954 187.697L187.331 185.568C188.336 185.278 188.915 184.23 188.624 183.227L188.009 181.107C187.719 180.104 186.668 179.526 185.663 179.816Z" fill="#DCE0E7"/>
<path d="M152.17 188.963L117.406 198.997C116.401 199.287 115.822 200.335 116.113 201.338L116.728 203.458C117.018 204.461 118.069 205.039 119.074 204.749L153.838 194.715C154.843 194.425 155.423 193.377 155.132 192.374L154.517 190.254C154.226 189.251 153.175 188.673 152.17 188.963Z" fill="#DCE0E7"/>
<path d="M232.252 165.848L197.488 175.882C196.483 176.172 195.904 177.22 196.195 178.223L196.81 180.344C197.1 181.347 198.151 181.924 199.156 181.634L233.92 171.601C234.925 171.31 235.505 170.262 235.214 169.259L234.599 167.139C234.308 166.136 233.257 165.558 232.252 165.848Z" fill="#F0F2F5"/>
<path d="M87.6059 249.352L80.2292 251.481C79.2239 251.771 78.6447 252.819 78.9355 253.822L79.5504 255.942C79.8412 256.945 80.8919 257.523 81.8972 257.233L89.2739 255.104C90.2792 254.814 90.8583 253.766 90.5675 252.763L89.9526 250.642C89.6618 249.639 88.6111 249.062 87.6059 249.352Z" fill="#57C0B3"/>
<path d="M104.623 244.44L97.2461 246.569C96.2409 246.86 95.6617 247.908 95.9525 248.911L96.5674 251.031C96.8582 252.034 97.9089 252.612 98.9142 252.322L106.291 250.192C107.296 249.902 107.875 248.854 107.585 247.851L106.97 245.731C106.679 244.728 105.628 244.15 104.623 244.44Z" fill="#DCE0E7"/>
<path d="M151.489 231.434L116.725 241.467C115.72 241.757 115.14 242.806 115.431 243.808L116.046 245.929C116.337 246.932 117.388 247.509 118.393 247.219L153.157 237.186C154.162 236.896 154.741 235.847 154.45 234.845L153.835 232.724C153.544 231.721 152.494 231.144 151.489 231.434Z" fill="#F0F2F5"/>
<path d="M127.666 223.721L120.289 225.85C119.284 226.14 118.705 227.188 118.996 228.191L119.611 230.311C119.901 231.314 120.952 231.892 121.957 231.602L129.334 229.473C130.339 229.183 130.918 228.135 130.628 227.132L130.013 225.011C129.722 224.008 128.671 223.431 127.666 223.721Z" fill="#57C0B3"/>
<path d="M144.685 218.808L137.308 220.937C136.303 221.227 135.724 222.275 136.015 223.278L136.629 225.399C136.92 226.402 137.971 226.979 138.976 226.689L146.353 224.56C147.358 224.27 147.937 223.222 147.647 222.219L147.032 220.098C146.741 219.096 145.69 218.518 144.685 218.808Z" fill="#57C0B3"/>
<path d="M111.469 228.915L76.7048 238.949C75.6996 239.239 75.1204 240.287 75.4112 241.29L76.0261 243.41C76.3169 244.413 77.3676 244.991 78.3728 244.701L113.137 234.667C114.142 234.377 114.721 233.329 114.43 232.326L113.815 230.206C113.525 229.203 112.474 228.625 111.469 228.915Z" fill="#DCE0E7"/>
<path d="M191.551 205.801L156.787 215.835C155.782 216.125 155.202 217.173 155.493 218.176L156.108 220.296C156.399 221.299 157.45 221.877 158.455 221.587L193.219 211.553C194.224 211.263 194.803 210.215 194.512 209.212L193.897 207.092C193.607 206.089 192.556 205.511 191.551 205.801Z" fill="#F0F2F5"/>
<path d="M112.09 214.147L104.713 216.276C103.708 216.567 103.129 217.615 103.42 218.618L104.035 220.738C104.326 221.741 105.376 222.319 106.381 222.029L113.758 219.899C114.763 219.609 115.343 218.561 115.052 217.558L114.437 215.438C114.146 214.435 113.095 213.857 112.09 214.147Z" fill="#DCE0E7"/>
<path d="M172.15 196.813L164.773 198.942C163.768 199.232 163.189 200.28 163.48 201.283L164.095 203.403C164.386 204.406 165.436 204.984 166.442 204.694L173.818 202.565C174.824 202.275 175.403 201.227 175.112 200.224L174.497 198.103C174.206 197.101 173.156 196.523 172.15 196.813Z" fill="#57C0B3"/>
<path d="M189.167 191.901L181.791 194.031C180.785 194.321 180.206 195.369 180.497 196.372L181.112 198.492C181.403 199.495 182.453 200.073 183.459 199.783L190.835 197.654C191.841 197.363 192.42 196.315 192.129 195.312L191.514 193.192C191.223 192.189 190.172 191.611 189.167 191.901Z" fill="#DCE0E7"/>
<path d="M155.953 202.007L121.189 212.041C120.184 212.331 119.605 213.379 119.896 214.382L120.51 216.502C120.801 217.505 121.852 218.083 122.857 217.793L157.621 207.76C158.626 207.469 159.205 206.421 158.914 205.418L158.3 203.298C158.009 202.295 156.958 201.717 155.953 202.007Z" fill="#DCE0E7"/>
<path d="M236.033 178.895L201.269 188.928C200.264 189.218 199.685 190.267 199.976 191.269L200.59 193.39C200.881 194.393 201.932 194.97 202.937 194.68L237.701 184.647C238.706 184.357 239.285 183.309 238.995 182.306L238.38 180.185C238.089 179.182 237.038 178.605 236.033 178.895Z" fill="#F0F2F5"/>
<path d="M94.0324 225.058C95.6675 225.058 96.9931 223.735 96.9931 222.104C96.9931 220.473 95.6675 219.15 94.0324 219.15C92.3972 219.15 91.0717 220.473 91.0717 222.104C91.0717 223.735 92.3972 225.058 94.0324 225.058Z" fill="#57C0B3"/>
<path d="M90.5582 213.078C92.1934 213.078 93.5189 211.755 93.5189 210.124C93.5189 208.493 92.1934 207.17 90.5582 207.17C88.9231 207.17 87.5975 208.493 87.5975 210.124C87.5975 211.755 88.9231 213.078 90.5582 213.078Z" fill="#57C0B3"/>
<path d="M183.772 350.959C181.637 351.576 179.367 351.546 177.249 350.875C175.131 350.204 173.26 348.922 171.872 347.19C170.485 345.458 169.643 343.355 169.454 341.146C169.264 338.936 169.736 336.721 170.809 334.779C171.882 332.838 173.508 331.257 175.481 330.237C177.454 329.217 179.686 328.804 181.895 329.05C184.104 329.296 186.19 330.189 187.889 331.618C189.589 333.046 190.826 334.946 191.443 337.076C192.272 339.932 191.929 342.999 190.49 345.602C189.051 348.206 186.635 350.133 183.772 350.959Z" fill="#DCE0E7"/>
<path d="M184.601 337.899L181.406 338.821L180.482 335.635C180.442 335.495 180.374 335.365 180.283 335.252C180.192 335.138 180.08 335.044 179.953 334.974C179.695 334.832 179.392 334.798 179.109 334.88C178.827 334.961 178.589 335.151 178.447 335.408C178.305 335.665 178.271 335.968 178.353 336.249L179.277 339.436L176.082 340.358C175.801 340.44 175.563 340.63 175.421 340.887C175.28 341.143 175.246 341.446 175.327 341.727C175.409 342.008 175.599 342.246 175.856 342.388C176.113 342.529 176.416 342.563 176.699 342.482L179.893 341.561L180.817 344.747C180.857 344.887 180.925 345.017 181.016 345.13C181.107 345.244 181.219 345.338 181.347 345.408C181.474 345.478 181.614 345.523 181.759 345.539C181.904 345.555 182.05 345.543 182.19 345.502C182.33 345.462 182.46 345.394 182.574 345.304C182.687 345.213 182.782 345.101 182.852 344.974C182.923 344.847 182.967 344.707 182.983 344.563C182.999 344.418 182.987 344.272 182.946 344.133L182.022 340.946L185.217 340.024C185.499 339.942 185.736 339.752 185.878 339.495C186.02 339.239 186.053 338.936 185.972 338.655C185.89 338.373 185.7 338.136 185.443 337.994C185.186 337.853 184.883 337.819 184.601 337.899Z" fill="#FCFCFD"/>
<path d="M215.352 341.845C213.217 342.461 210.947 342.432 208.829 341.761C206.711 341.09 204.84 339.807 203.452 338.075C202.064 336.344 201.223 334.24 201.034 332.031C200.844 329.822 201.316 327.606 202.389 325.665C203.462 323.723 205.087 322.142 207.061 321.123C209.034 320.103 211.266 319.69 213.475 319.935C215.684 320.181 217.77 321.075 219.469 322.503C221.169 323.932 222.406 325.831 223.023 327.961C223.851 330.817 223.509 333.884 222.07 336.488C220.631 339.092 218.215 341.019 215.352 341.845Z" fill="#DCE0E7"/>
<path d="M216.18 328.785L212.986 329.707L210.856 330.321L207.662 331.243C207.38 331.325 207.141 331.515 207 331.772C206.858 332.029 206.824 332.331 206.905 332.613C206.987 332.895 207.178 333.132 207.435 333.274C207.693 333.416 207.996 333.449 208.278 333.368L211.473 332.446L213.602 331.831L216.796 330.909C216.936 330.869 217.067 330.802 217.181 330.711C217.295 330.621 217.39 330.508 217.46 330.381C217.531 330.254 217.575 330.114 217.592 329.97C217.608 329.825 217.595 329.679 217.555 329.539C217.514 329.4 217.447 329.269 217.356 329.156C217.265 329.042 217.152 328.948 217.024 328.878C216.897 328.808 216.756 328.763 216.612 328.747C216.467 328.732 216.32 328.744 216.18 328.785Z" fill="#FCFCFD"/>
<path d="M246.932 332.73C244.797 333.346 242.527 333.317 240.409 332.646C238.291 331.975 236.419 330.693 235.032 328.961C233.644 327.229 232.803 325.126 232.613 322.916C232.424 320.707 232.896 318.492 233.969 316.55C235.041 314.608 236.667 313.028 238.641 312.008C240.614 310.988 242.846 310.575 245.055 310.821C247.263 311.067 249.35 311.96 251.049 313.389C252.749 314.817 253.985 316.717 254.603 318.846C255.431 321.702 255.088 324.77 253.65 327.373C252.211 329.977 249.795 331.904 246.932 332.73Z" fill="#DCE0E7"/>
<path d="M249.733 319.698L245.381 316.125C245.285 316.046 245.175 315.987 245.056 315.951C244.938 315.915 244.813 315.903 244.689 315.915C244.566 315.927 244.446 315.963 244.337 316.021C244.227 316.079 244.13 316.158 244.051 316.254C243.972 316.349 243.913 316.46 243.877 316.578C243.841 316.696 243.829 316.821 243.841 316.944C243.853 317.067 243.889 317.187 243.947 317.296C244.005 317.405 244.085 317.502 244.181 317.58L246.995 319.891L244.566 320.592L242.436 321.207L239.242 322.129C238.96 322.21 238.721 322.4 238.579 322.657C238.438 322.914 238.404 323.217 238.485 323.498C238.567 323.78 238.758 324.018 239.015 324.159C239.272 324.301 239.576 324.335 239.858 324.253L243.052 323.331L245.182 322.717L247.709 321.988L246.509 325.61C246.431 325.848 246.451 326.106 246.563 326.329C246.676 326.552 246.873 326.721 247.11 326.799C247.348 326.877 247.607 326.858 247.831 326.746C248.054 326.634 248.224 326.439 248.303 326.202L250.071 320.863C250.119 320.656 250.113 320.44 250.054 320.236C249.995 320.032 249.885 319.847 249.733 319.698V319.698Z" fill="#FCFCFD"/>
<path d="M288.08 10.8743L419.883 48.9152C440.382 54.8317 452.192 76.2068 446.262 96.6578L359.129 397.132C353.198 417.583 331.773 429.365 311.273 423.449L179.47 385.408C158.971 379.491 147.161 358.116 153.091 337.665L240.224 37.1913C246.155 16.7403 267.58 4.95775 288.08 10.8743Z" fill="#1E232C"/>
<path d="M287.074 14.3422L304.31 19.3168L302.587 25.2572C301.808 27.946 302.131 30.8337 303.485 33.2849C304.839 35.7362 307.115 37.5504 309.81 38.3282L386.816 60.5539C389.511 61.3317 392.406 61.0096 394.863 59.6584C397.32 58.3072 399.139 56.0375 399.918 53.3488L401.641 47.4084L418.877 52.3831C427.793 54.9674 435.318 60.9746 439.8 69.0868C444.282 77.1989 445.356 86.7536 442.786 95.6547L355.653 396.128C353.063 405.023 347.041 412.53 338.91 417.002C330.778 421.474 321.201 422.545 312.279 419.981L180.476 381.94C171.56 379.356 164.035 373.348 159.553 365.236C155.071 357.124 153.997 347.569 156.567 338.668L243.7 38.1947C246.291 29.2995 252.312 21.7926 260.443 17.321C268.575 12.8493 278.152 11.778 287.074 14.3422Z" fill="#FCFCFD"/>
<path d="M248.271 365.112L178.351 344.984C177.579 344.761 176.927 344.241 176.539 343.539C176.15 342.837 176.057 342.01 176.279 341.239L197.291 268.59C197.515 267.819 198.036 267.169 198.739 266.781C199.443 266.394 200.272 266.3 201.045 266.522L270.966 286.65C271.738 286.873 272.39 287.393 272.779 288.095C273.167 288.797 273.261 289.624 273.039 290.395L252.025 363.045C251.801 363.815 251.28 364.465 250.577 364.853C249.873 365.241 249.044 365.334 248.271 365.112ZM200.706 267.684C200.243 267.551 199.745 267.607 199.323 267.84C198.901 268.072 198.588 268.463 198.454 268.925L177.441 341.574C177.308 342.037 177.364 342.533 177.597 342.954C177.831 343.375 178.222 343.687 178.685 343.821L248.608 363.95C249.071 364.083 249.569 364.027 249.991 363.794C250.413 363.561 250.726 363.171 250.86 362.709L271.872 290.059C272.005 289.597 271.949 289.101 271.716 288.679C271.483 288.258 271.092 287.946 270.628 287.813L200.706 267.684Z" fill="#DCE0E7"/>
<path d="M334.508 389.938L264.586 369.809C263.814 369.586 263.162 369.066 262.773 368.364C262.385 367.662 262.291 366.835 262.513 366.064L283.525 293.414C283.749 292.644 284.27 291.994 284.974 291.606C285.678 291.218 286.507 291.125 287.279 291.347L357.202 311.475C357.974 311.699 358.626 312.218 359.014 312.92C359.403 313.622 359.497 314.45 359.275 315.221L338.262 387.869C338.039 388.64 337.518 389.29 336.814 389.678C336.11 390.066 335.281 390.159 334.508 389.938ZM286.944 292.509C286.48 292.376 285.983 292.432 285.56 292.665C285.138 292.898 284.826 293.288 284.691 293.75L263.678 366.4C263.545 366.862 263.601 367.358 263.835 367.78C264.068 368.201 264.459 368.513 264.922 368.646L334.845 388.776C335.308 388.909 335.806 388.853 336.228 388.62C336.65 388.387 336.963 387.997 337.097 387.535L358.109 314.885C358.242 314.423 358.186 313.927 357.953 313.505C357.72 313.084 357.329 312.772 356.865 312.639L286.944 292.509Z" fill="#DCE0E7"/>
<path d="M211.609 285.792C211.349 285.717 211.076 285.693 210.808 285.723C210.539 285.753 210.278 285.836 210.041 285.966C209.804 286.096 209.595 286.272 209.427 286.483C209.258 286.694 209.132 286.936 209.057 287.195C208.982 287.454 208.959 287.726 208.989 287.994C209.02 288.262 209.103 288.522 209.234 288.758C209.364 288.995 209.541 289.203 209.752 289.371C209.964 289.539 210.207 289.664 210.467 289.739L250.591 301.289C251.116 301.44 251.678 301.376 252.156 301.113C252.633 300.849 252.986 300.408 253.137 299.885C253.289 299.362 253.226 298.8 252.962 298.324C252.699 297.847 252.257 297.494 251.733 297.343L211.609 285.792Z" fill="#DCE0E7"/>
<path d="M208.246 297.418C207.986 297.343 207.714 297.319 207.445 297.349C207.176 297.379 206.915 297.461 206.678 297.592C206.441 297.722 206.233 297.898 206.064 298.109C205.895 298.32 205.769 298.562 205.694 298.821C205.619 299.08 205.596 299.352 205.626 299.62C205.657 299.888 205.74 300.148 205.871 300.384C206.002 300.621 206.178 300.829 206.39 300.997C206.601 301.165 206.844 301.29 207.104 301.365L247.229 312.918C247.753 313.067 248.315 313.003 248.792 312.74C249.269 312.476 249.621 312.035 249.772 311.512C249.923 310.99 249.861 310.429 249.598 309.953C249.335 309.476 248.894 309.123 248.371 308.971L208.246 297.418Z" fill="#DCE0E7"/>
<path d="M323.942 370.667C324.466 370.817 325.029 370.754 325.507 370.49C325.984 370.227 326.337 369.785 326.488 369.262C326.64 368.739 326.577 368.178 326.313 367.701C326.05 367.225 325.608 366.872 325.084 366.72L284.959 355.17C284.435 355.019 283.872 355.083 283.395 355.346C282.918 355.61 282.564 356.051 282.413 356.574C282.262 357.097 282.325 357.659 282.588 358.135C282.852 358.612 283.294 358.965 283.818 359.116L323.942 370.667Z" fill="#DCE0E7"/>
<path d="M327.305 359.04C327.565 359.116 327.837 359.139 328.106 359.109C328.375 359.079 328.635 358.997 328.872 358.867C329.109 358.736 329.318 358.561 329.487 358.35C329.656 358.139 329.781 357.897 329.856 357.637C329.931 357.378 329.954 357.106 329.924 356.838C329.894 356.57 329.811 356.31 329.68 356.074C329.549 355.838 329.373 355.63 329.161 355.461C328.949 355.293 328.707 355.168 328.447 355.094L288.322 343.543C288.062 343.468 287.79 343.444 287.521 343.474C287.252 343.504 286.992 343.587 286.755 343.717C286.518 343.847 286.309 344.023 286.14 344.234C285.971 344.445 285.846 344.687 285.771 344.946C285.696 345.206 285.673 345.477 285.703 345.745C285.733 346.014 285.816 346.273 285.947 346.51C286.078 346.746 286.254 346.954 286.466 347.122C286.678 347.29 286.921 347.415 287.181 347.49L327.305 359.04Z" fill="#DCE0E7"/>
<path d="M361.8 298.124L204.538 252.62C203.766 252.396 203.115 251.875 202.728 251.172C202.34 250.47 202.248 249.642 202.471 248.872L223.414 176.834C223.639 176.064 224.161 175.414 224.865 175.027C225.57 174.641 226.399 174.549 227.171 174.771L384.433 220.274C385.205 220.499 385.856 221.019 386.244 221.722C386.632 222.425 386.724 223.252 386.501 224.022L365.556 296.062C365.331 296.832 364.81 297.481 364.105 297.868C363.401 298.255 362.572 298.347 361.8 298.124ZM226.833 175.933C226.37 175.799 225.872 175.855 225.449 176.087C225.027 176.319 224.714 176.708 224.579 177.17L203.636 249.209C203.502 249.671 203.557 250.167 203.79 250.589C204.022 251.01 204.413 251.323 204.876 251.457L362.139 296.962C362.602 297.096 363.1 297.04 363.522 296.808C363.945 296.576 364.258 296.187 364.393 295.725L385.337 223.685C385.471 223.223 385.416 222.726 385.183 222.305C384.95 221.883 384.56 221.571 384.097 221.436L226.833 175.933Z" fill="#1E232C"/>
<path d="M243.528 219.335C250.344 219.057 255.643 213.318 255.364 206.518C255.085 199.718 249.333 194.431 242.517 194.71C235.701 194.989 230.401 200.727 230.681 207.527C230.96 214.327 236.712 219.614 243.528 219.335Z" fill="#F6C28B"/>
<path d="M272.712 207.061C272.188 206.909 271.624 206.971 271.146 207.234C270.668 207.496 270.313 207.938 270.161 208.461C270.009 208.984 270.072 209.546 270.335 210.023C270.598 210.501 271.041 210.854 271.565 211.006L364.774 237.976C365.034 238.051 365.306 238.075 365.575 238.045C365.843 238.015 366.104 237.933 366.34 237.803C366.577 237.673 366.786 237.498 366.955 237.287C367.124 237.077 367.25 236.835 367.325 236.576C367.4 236.317 367.424 236.045 367.394 235.777C367.364 235.509 367.282 235.25 367.152 235.013C367.021 234.777 366.845 234.569 366.634 234.4C366.423 234.232 366.181 234.106 365.921 234.031L272.712 207.061Z" fill="#DCE0E7"/>
<path d="M269.273 218.895C269.014 218.82 268.742 218.797 268.473 218.826C268.204 218.856 267.944 218.938 267.707 219.068C267.47 219.198 267.261 219.374 267.093 219.584C266.924 219.795 266.798 220.037 266.723 220.296C266.647 220.555 266.624 220.826 266.654 221.094C266.683 221.362 266.766 221.622 266.896 221.858C267.026 222.094 267.202 222.303 267.413 222.471C267.624 222.64 267.867 222.765 268.126 222.84L308.234 234.446C308.494 234.521 308.766 234.545 309.035 234.515C309.304 234.485 309.564 234.403 309.801 234.273C310.037 234.143 310.246 233.968 310.415 233.757C310.584 233.547 310.71 233.305 310.785 233.046C310.861 232.787 310.884 232.515 310.854 232.247C310.824 231.979 310.742 231.72 310.612 231.483C310.481 231.247 310.306 231.039 310.095 230.87C309.884 230.702 309.641 230.576 309.382 230.501L269.273 218.895Z" fill="#DCE0E7"/>
<path d="M227.275 227.255C225.771 226.82 224.29 227.351 223.974 228.441C223.658 229.532 224.625 230.768 226.129 231.203L354.729 268.415C356.233 268.85 357.714 268.319 358.03 267.229C358.346 266.138 357.38 264.902 355.876 264.467L227.275 227.255Z" fill="#DCE0E7"/>
<path d="M223.835 239.091C222.331 238.656 220.85 239.186 220.534 240.277C220.218 241.367 221.184 242.603 222.688 243.038L351.289 280.25C352.793 280.685 354.274 280.154 354.59 279.064C354.906 277.974 353.939 276.737 352.435 276.302L223.835 239.091Z" fill="#DCE0E7"/>
<path d="M389.466 200.231L319.428 180.514C318.654 180.296 317.999 179.78 317.606 179.08C317.214 178.38 317.115 177.554 317.333 176.781L328.362 137.782C328.581 137.01 329.098 136.357 329.8 135.965C330.501 135.573 331.33 135.475 332.104 135.692L402.144 155.408C402.918 155.627 403.572 156.143 403.965 156.842C404.358 157.542 404.456 158.369 404.239 159.141L393.21 198.141C392.991 198.913 392.474 199.567 391.772 199.959C391.07 200.351 390.24 200.449 389.466 200.231ZM331.774 136.859C331.31 136.729 330.813 136.788 330.392 137.023C329.971 137.258 329.661 137.65 329.529 138.113L318.501 177.113C318.37 177.576 318.429 178.072 318.665 178.492C318.901 178.912 319.294 179.221 319.758 179.352L389.798 199.066C390.263 199.196 390.76 199.137 391.181 198.902C391.601 198.667 391.912 198.275 392.043 197.812L403.072 158.812C403.203 158.349 403.144 157.853 402.908 157.433C402.672 157.013 402.279 156.704 401.815 156.573L331.774 136.859Z" fill="#DCE0E7"/>
<path d="M303.022 175.907L237.317 157.414L260.336 135.046C260.748 134.645 261.259 134.36 261.818 134.218C262.376 134.077 262.962 134.084 263.516 134.24C264.07 134.396 264.574 134.695 264.976 135.107C265.377 135.519 265.663 136.028 265.805 136.585L269.183 149.859L285.902 133.61C286.419 133.108 287.059 132.751 287.758 132.574C288.456 132.397 289.19 132.407 289.884 132.602C290.577 132.797 291.208 133.172 291.711 133.687C292.214 134.202 292.572 134.84 292.749 135.538L303.022 175.907ZM239.668 156.818L301.329 174.173L291.574 135.838C291.448 135.347 291.196 134.897 290.841 134.534C290.487 134.171 290.043 133.908 289.554 133.77C289.065 133.633 288.548 133.626 288.056 133.75C287.564 133.875 287.113 134.127 286.749 134.48L268.524 152.189L264.629 136.884C264.54 136.533 264.36 136.212 264.107 135.952C263.853 135.693 263.536 135.504 263.187 135.406C262.838 135.308 262.468 135.303 262.117 135.392C261.765 135.481 261.443 135.661 261.183 135.914L239.668 156.818Z" fill="#DCE0E7"/>
<path d="M303.085 175.917L233.045 156.203C232.272 155.985 231.617 155.469 231.224 154.769C230.831 154.069 230.733 153.242 230.95 152.47L241.979 113.471C242.198 112.699 242.715 112.046 243.416 111.654C244.118 111.262 244.946 111.164 245.72 111.381L315.761 131.095C316.535 131.314 317.19 131.83 317.583 132.53C317.975 133.229 318.074 134.056 317.856 134.828L306.827 173.827C306.608 174.599 306.091 175.252 305.389 175.644C304.688 176.036 303.859 176.134 303.085 175.917ZM245.391 112.545C244.927 112.415 244.43 112.474 244.009 112.709C243.588 112.944 243.278 113.336 243.147 113.799L232.118 152.799C231.988 153.262 232.047 153.758 232.282 154.178C232.518 154.597 232.911 154.907 233.375 155.038L303.416 174.752C303.881 174.882 304.378 174.823 304.799 174.588C305.219 174.353 305.53 173.961 305.661 173.498L316.69 134.499C316.821 134.035 316.762 133.539 316.526 133.119C316.29 132.7 315.897 132.39 315.433 132.259L245.391 112.545Z" fill="#DCE0E7"/>
<path d="M381.78 170.908C382.041 170.982 382.313 171.004 382.582 170.972C382.85 170.941 383.11 170.857 383.347 170.725C383.583 170.593 383.791 170.417 383.958 170.205C384.126 169.993 384.25 169.75 384.323 169.49C384.397 169.23 384.418 168.959 384.386 168.691C384.355 168.423 384.27 168.163 384.138 167.928C384.005 167.692 383.828 167.485 383.615 167.318C383.402 167.151 383.159 167.028 382.898 166.955L342.706 155.642C342.446 155.568 342.174 155.547 341.905 155.578C341.636 155.61 341.376 155.693 341.14 155.825C340.904 155.957 340.696 156.134 340.528 156.346C340.361 156.558 340.237 156.8 340.163 157.06C340.09 157.32 340.068 157.592 340.1 157.86C340.132 158.128 340.217 158.387 340.349 158.623C340.481 158.858 340.659 159.065 340.871 159.232C341.084 159.399 341.328 159.522 341.588 159.595L381.78 170.908Z" fill="#DCE0E7"/>
<path d="M378.939 180.245C379.199 180.319 379.471 180.341 379.74 180.309C380.009 180.278 380.269 180.194 380.505 180.062C380.741 179.93 380.949 179.754 381.117 179.542C381.284 179.33 381.408 179.087 381.482 178.827C381.555 178.567 381.577 178.296 381.545 178.028C381.513 177.76 381.428 177.5 381.296 177.265C381.164 177.029 380.986 176.822 380.774 176.655C380.561 176.488 380.317 176.365 380.057 176.292L339.865 164.979C339.604 164.905 339.332 164.884 339.063 164.915C338.794 164.947 338.535 165.03 338.298 165.162C338.062 165.294 337.854 165.471 337.687 165.683C337.519 165.895 337.395 166.137 337.322 166.397C337.248 166.657 337.227 166.929 337.259 167.197C337.29 167.465 337.375 167.724 337.507 167.96C337.64 168.195 337.817 168.402 338.03 168.569C338.242 168.736 338.486 168.859 338.747 168.932L378.939 180.245Z" fill="#DCE0E7"/>
<path d="M408.127 140.349L250.637 95.6399C249.864 95.4195 249.21 94.9022 248.819 94.2015C248.428 93.5008 248.331 92.674 248.551 91.9023L259.667 52.9263C259.888 52.1551 260.407 51.5029 261.109 51.1126C261.812 50.7224 262.64 50.6261 263.414 50.8447L420.905 95.5544C421.678 95.7748 422.332 96.292 422.723 96.9927C423.114 97.6934 423.211 98.5203 422.992 99.2919L411.875 138.267C411.654 139.038 411.135 139.69 410.433 140.08C409.731 140.47 408.902 140.567 408.128 140.348L408.127 140.349ZM263.082 52.0098C262.618 51.8787 262.12 51.9365 261.699 52.1707C261.278 52.4049 260.967 52.7963 260.834 53.259L249.717 92.2338C249.586 92.6968 249.644 93.1929 249.878 93.6133C250.113 94.0336 250.505 94.3439 250.969 94.4761L408.46 139.186C408.924 139.317 409.421 139.259 409.843 139.025C410.264 138.791 410.575 138.399 410.708 137.937L421.827 98.9637C421.958 98.5007 421.9 98.0046 421.665 97.5842C421.431 97.1638 421.038 96.8535 420.574 96.7214L263.082 52.0098Z" fill="#1E232C"/>
<path d="M282.492 91.0043C289.307 90.6912 294.577 84.9261 294.263 78.1275C293.949 71.329 288.17 66.0714 281.356 66.3844C274.541 66.6975 269.271 72.4626 269.585 79.2611C269.899 86.0597 275.677 91.3173 282.492 91.0043Z" fill="#F6C28B"/>
<path d="M311.614 78.5816C311.354 78.5078 311.082 78.4858 310.814 78.5168C310.545 78.5479 310.285 78.6314 310.049 78.7627C309.813 78.8939 309.605 79.0703 309.437 79.2817C309.269 79.4931 309.145 79.7354 309.071 79.9948C308.997 80.2543 308.975 80.5257 309.006 80.7936C309.037 81.0615 309.121 81.3207 309.252 81.5564C309.384 81.792 309.561 81.9995 309.772 82.167C309.984 82.3344 310.227 82.4586 310.487 82.5325L403.832 109.031C404.093 109.105 404.365 109.127 404.633 109.096C404.902 109.065 405.161 108.982 405.398 108.85C405.634 108.719 405.842 108.543 406.01 108.331C406.178 108.12 406.302 107.878 406.376 107.618C406.45 107.359 406.472 107.087 406.441 106.819C406.41 106.551 406.326 106.292 406.195 106.057C406.063 105.821 405.886 105.614 405.674 105.446C405.462 105.279 405.22 105.154 404.96 105.081L311.614 78.5816Z" fill="#DCE0E7"/>
<path d="M308.234 90.4342C307.974 90.3604 307.702 90.3384 307.433 90.3694C307.165 90.4005 306.905 90.484 306.669 90.6153C306.433 90.7465 306.225 90.9229 306.057 91.1343C305.889 91.3457 305.764 91.588 305.69 91.8474C305.616 92.1069 305.594 92.3783 305.625 92.6462C305.657 92.9141 305.74 93.1733 305.872 93.409C306.003 93.6446 306.18 93.8521 306.392 94.0196C306.604 94.187 306.847 94.3112 307.107 94.3851L347.274 105.788C347.534 105.862 347.806 105.884 348.074 105.853C348.343 105.822 348.603 105.738 348.839 105.607C349.075 105.476 349.283 105.299 349.451 105.088C349.619 104.877 349.743 104.634 349.817 104.375C349.891 104.115 349.913 103.844 349.882 103.576C349.851 103.308 349.767 103.049 349.636 102.813C349.504 102.578 349.327 102.37 349.116 102.203C348.904 102.035 348.661 101.911 348.401 101.837L308.234 90.4342Z" fill="#DCE0E7"/>
<path d="M435.916 135.88C436.586 136.073 437.306 135.992 437.917 135.656C438.528 135.32 438.98 134.756 439.175 134.088L440.638 129.044C440.734 128.712 440.763 128.365 440.725 128.023C440.687 127.68 440.581 127.348 440.414 127.046C440.248 126.744 440.023 126.478 439.753 126.263C439.483 126.048 439.173 125.888 438.841 125.792C438.509 125.696 438.161 125.666 437.818 125.705C437.474 125.743 437.142 125.848 436.839 126.015C436.536 126.181 436.27 126.405 436.054 126.675C435.838 126.944 435.678 127.253 435.582 127.584L434.119 132.628C433.926 133.297 434.006 134.015 434.343 134.625C434.68 135.235 435.245 135.686 435.916 135.88Z" fill="#1E232C"/>
<path d="M428.415 161.745C429.085 161.938 429.805 161.858 430.416 161.522C431.027 161.185 431.48 160.621 431.674 159.953L435.701 146.068C435.797 145.737 435.827 145.39 435.788 145.047C435.75 144.704 435.644 144.373 435.478 144.071C435.311 143.769 435.086 143.502 434.816 143.287C434.546 143.072 434.236 142.912 433.904 142.816C433.572 142.72 433.225 142.691 432.881 142.729C432.538 142.767 432.205 142.872 431.902 143.039C431.6 143.205 431.333 143.43 431.117 143.699C430.901 143.968 430.741 144.277 430.645 144.608L426.618 158.494C426.425 159.163 426.506 159.881 426.843 160.49C427.179 161.1 427.745 161.551 428.415 161.745Z" fill="#1E232C"/>
<path d="M422.385 182.539C423.055 182.732 423.775 182.651 424.386 182.315C424.997 181.979 425.45 181.415 425.644 180.747L429.671 166.862C429.865 166.193 429.785 165.474 429.448 164.865C429.111 164.255 428.545 163.803 427.874 163.61C427.204 163.416 426.484 163.497 425.872 163.833C425.261 164.169 424.809 164.733 424.615 165.402L420.588 179.288C420.395 179.956 420.476 180.674 420.813 181.284C421.149 181.894 421.715 182.345 422.385 182.539Z" fill="#1E232C"/>
<path d="M218.374 111.358C219.045 111.551 219.765 111.471 220.376 111.134C220.987 110.798 221.439 110.234 221.634 109.566L231.459 75.6855C231.653 75.0166 231.572 74.2982 231.235 73.6884C230.898 73.0786 230.332 72.6273 229.662 72.4338C228.991 72.2402 228.271 72.3204 227.66 72.6565C227.049 72.9927 226.596 73.5573 226.402 74.2262L216.578 108.107C216.385 108.775 216.465 109.493 216.802 110.103C217.139 110.713 217.704 111.164 218.374 111.358Z" fill="#1E232C"/>
</svg>
